<?xml version="1.0" encoding="UTF-8" standalone="no"?>
<svg
   xmlns:dc="http://purl.org/dc/elements/1.1/"
   xmlns:cc="http://creativecommons.org/ns#"
   xmlns:rdf="http://www.w3.org/1999/02/22-rdf-syntax-ns#"
   xmlns:svg="http://www.w3.org/2000/svg"
   xmlns="http://www.w3.org/2000/svg"
   xmlns:sodipodi="http://sodipodi.sourceforge.net/DTD/sodipodi-0.dtd"
   xmlns:inkscape="http://www.inkscape.org/namespaces/inkscape"
   id="icon-delivery"
   width="100"
   height="100"
   viewBox="0 0 100 100"
   version="1.1"
   sodipodi:docname="uEA03-delivery.svg"
   inkscape:version="0.92.4 (5da689c313, 2019-01-14)">
  <metadata
     id="metadata12">
    <rdf:RDF>
      <cc:Work
         rdf:about="">
        <dc:format>image/svg+xml</dc:format>
        <dc:type
           rdf:resource="http://purl.org/dc/dcmitype/StillImage" />
        <dc:title></dc:title>
      </cc:Work>
    </rdf:RDF>
  </metadata>
  <sodipodi:namedview
     pagecolor="#ffffff"
     bordercolor="#666666"
     borderopacity="1"
     objecttolerance="10"
     gridtolerance="10"
     guidetolerance="10"
     inkscape:pageopacity="0"
     inkscape:pageshadow="2"
     inkscape:window-width="1280"
     inkscape:window-height="971"
     id="namedview10"
     showgrid="false"
     inkscape:zoom="7.8666667"
     inkscape:cx="-0.44491545"
     inkscape:cy="9.2796611"
     inkscape:window-x="-8"
     inkscape:window-y="-8"
     inkscape:window-maximized="1"
     inkscape:current-layer="icon-delivery" />
  <defs
     id="defs4" />
  <g
     id="g5"
     transform="translate(0,70)" />
  <path
     id="Combined_Shape-2"
     data-name="Combined Shape"
     d="M 44.273476,98.657648 10.263507,81.648507 A 12.811918,12.811918 0 0 1 3.2487425,70.2038 V 29.740083 a 12.674781,12.674781 0 0 1 7.0646325,-11.4073 L 26.491382,10.245856 A 4.2678688,4.2678688 0 0 1 27.214467,9.8843126 L 44.323343,1.3319524 a 12.753739,12.753739 0 0 1 11.349123,0 L 89.686594,18.328626 a 12.674781,12.674781 0 0 1 7.064633,11.415613 V 70.249514 A 12.66647,12.66647 0 0 1 89.686594,81.656817 L 55.68909,98.653491 a 12.76205,12.76205 0 0 1 -11.411457,0 z M 11.74708,70.228737 a 4.2678688,4.2678688 0 0 0 2.327172,3.8149 L 45.748736,89.880881 V 48.324223 L 11.74708,31.348326 Z M 54.247073,89.864257 85.888314,74.03948 a 4.2221564,4.2221564 0 0 0 2.36042,-3.802433 V 31.352483 L 73.1886,38.88255 l -0.06233,0.029 -18.875034,9.437516 z M 49.999983,40.97285 61.74805,35.100893 28.772842,18.611209 17.024775,24.487323 Z M 71.25206,30.334343 82.975194,24.474856 51.870033,8.9409759 a 4.2387791,4.2387791 0 0 0 -3.769187,0 l -9.82815,4.9203101 z"
     inkscape:connector-curvature="0"
     style="fill:#091625;stroke:none;stroke-width:4.15566635" />
</svg>
