<?xml version="1.0" encoding="UTF-8" standalone="no"?>
<svg
   xmlns:dc="http://purl.org/dc/elements/1.1/"
   xmlns:cc="http://creativecommons.org/ns#"
   xmlns:rdf="http://www.w3.org/1999/02/22-rdf-syntax-ns#"
   xmlns:svg="http://www.w3.org/2000/svg"
   xmlns="http://www.w3.org/2000/svg"
   xmlns:sodipodi="http://sodipodi.sourceforge.net/DTD/sodipodi-0.dtd"
   xmlns:inkscape="http://www.inkscape.org/namespaces/inkscape"
   id="icon-credit-card"
   width="100"
   height="100"
   viewBox="0 0 100 100"
   version="1.1"
   sodipodi:docname="uEA07-credit-card.svg"
   inkscape:version="0.92.4 (5da689c313, 2019-01-14)">
  <metadata
     id="metadata8">
    <rdf:RDF>
      <cc:Work
         rdf:about="">
        <dc:format>image/svg+xml</dc:format>
        <dc:type
           rdf:resource="http://purl.org/dc/dcmitype/StillImage" />
        <dc:title></dc:title>
      </cc:Work>
    </rdf:RDF>
  </metadata>
  <defs
     id="defs6" />
  <sodipodi:namedview
     pagecolor="#ffffff"
     bordercolor="#666666"
     borderopacity="1"
     objecttolerance="10"
     gridtolerance="10"
     guidetolerance="10"
     inkscape:pageopacity="0"
     inkscape:pageshadow="2"
     inkscape:window-width="1280"
     inkscape:window-height="971"
     id="namedview4"
     showgrid="false"
     inkscape:zoom="7.8666667"
     inkscape:cx="-8.1991525"
     inkscape:cy="15"
     inkscape:window-x="-8"
     inkscape:window-y="-8"
     inkscape:window-maximized="1"
     inkscape:current-layer="icon-credit-card" />
  <path
     id="Combined_Shape-2"
     data-name="Combined Shape"
     d="M 12.50014,87.99986 A 12.599953,12.599953 0 0 1 1.8579186e-4,75.331907 V 24.668093 A 12.599953,12.599953 0 0 1 12.50014,12.00014 H 87.499861 A 12.599953,12.599953 0 0 1 99.999814,24.668093 V 75.331907 A 12.599953,12.599953 0 0 1 87.499861,87.99986 Z M 8.3361551,75.331907 a 4.1959844,4.1959844 0 0 0 4.1679849,4.223984 h 74.995721 a 4.1959844,4.1959844 0 0 0 4.167983,-4.223984 V 45.776016 H 8.3361551 Z M 91.667844,37.332046 V 24.668093 A 4.1959844,4.1959844 0 0 0 87.499861,20.444109 H 12.50014 a 4.1959844,4.1959844 0 0 0 -4.1639849,4.223984 v 12.667953 z"
     inkscape:connector-curvature="0"
     style="stroke-width:3.99998498" />
</svg>
