<?xml version="1.0" encoding="UTF-8" standalone="no"?>
<svg
   xmlns:dc="http://purl.org/dc/elements/1.1/"
   xmlns:cc="http://creativecommons.org/ns#"
   xmlns:rdf="http://www.w3.org/1999/02/22-rdf-syntax-ns#"
   xmlns:svg="http://www.w3.org/2000/svg"
   xmlns="http://www.w3.org/2000/svg"
   xmlns:sodipodi="http://sodipodi.sourceforge.net/DTD/sodipodi-0.dtd"
   xmlns:inkscape="http://www.inkscape.org/namespaces/inkscape"
   id="icon-drag_n-drop"
   data-name="icon-drag'n-drop"
   width="100"
   height="100"
   viewBox="0 0 100 100"
   version="1.1"
   sodipodi:docname="uEA0B-drag-n-drop.svg"
   inkscape:version="0.92.4 (5da689c313, 2019-01-14)">
  <metadata
     id="metadata8">
    <rdf:RDF>
      <cc:Work
         rdf:about="">
        <dc:format>image/svg+xml</dc:format>
        <dc:type
           rdf:resource="http://purl.org/dc/dcmitype/StillImage" />
        <dc:title></dc:title>
      </cc:Work>
    </rdf:RDF>
  </metadata>
  <defs
     id="defs6" />
  <sodipodi:namedview
     pagecolor="#ffffff"
     bordercolor="#666666"
     borderopacity="1"
     objecttolerance="10"
     gridtolerance="10"
     guidetolerance="10"
     inkscape:pageopacity="0"
     inkscape:pageshadow="2"
     inkscape:window-width="1280"
     inkscape:window-height="971"
     id="namedview4"
     showgrid="false"
     inkscape:zoom="7.8666667"
     inkscape:cx="-8.1991525"
     inkscape:cy="15"
     inkscape:window-x="-8"
     inkscape:window-y="-8"
     inkscape:window-maximized="1"
     inkscape:current-layer="icon-drag_n-drop" />
  <path
     id="Combined_Shape-2"
     data-name="Combined Shape"
     d="m 50.10522,100 h -0.445937 -0.07013 -0.0401 -0.07517 -0.03507 -0.07517 -0.03507 -0.07517 -0.03507 -0.07517 -0.04007 -0.06513 -0.0501 -0.0551 -0.06013 -0.04007 -0.07517 v 0 l -0.0952,-0.03 v 0 a 4.5445437,4.5445437 0 0 1 -1.76373,-1.097367 L 33.219761,84.998497 a 4.5562647,4.5562647 0 0 1 6.443532,-6.44353 l 5.887364,5.912413 V 54.449343 H 15.532618 l 5.892374,5.892374 A 4.5545647,4.5545647 0 1 1 15.001503,66.78024 L 1.4279988,53.201723 A 4.5796173,4.5796173 0 0 1 0.6363363,52.19962 v 0 L 0.586231,52.10942 v 0 L 0.5411363,52.02425 v 0 L 0.501052,51.898984 v 0 l -0.040084,-0.08517 v 0 l -0.0400843,-0.0902 v 0 l -0.0400843,-0.0952 v 0 l -0.0400843,-0.1002 v 0 A 4.50947,4.50947 0 0 1 0,50.330693 v 0 -0.1002 0 c 0,-0.03 0,-0.05513 0,-0.08517 v -0.0451 c 0,0 0,-0.0451 0,-0.06513 0,-0.02 0,-0.0952 0,-0.1403 v 0 0 c 0,-0.04007 0,-0.07517 0,-0.115233 v -0.03507 c 0,0 0,-0.0501 0,-0.07517 v -0.220467 -0.07517 -0.03507 -0.08517 0 -0.08517 -0.0451 -0.08017 -0.03 -0.07517 -0.04007 -0.07013 -0.0451 -0.06013 -0.0551 -0.0451 -0.07013 -0.03 l 0.23549453,-0.08017 v 0 A 4.5445437,4.5445437 0 0 1 1.3277884,46.683033 L 15.001503,33.00932 a 4.5545647,4.5545647 0 1 1 6.438521,6.43852 l -5.907406,5.892373 H 45.550657 V 15.322177 l -5.892374,5.907406 A 4.5545647,4.5545647 0 0 1 33.219761,14.79106 L 46.883457,1.1273667 A 4.5445437,4.5445437 0 0 1 48.64215,0.03006333 v 0 L 48.73735,0 h 0.03 0.07013 0.0451 0.0551 0.06013 0.0451 0.07013 0.0401 0.07517 0.025 0.08017 0.025 0.08517 v 0 h 0.08517 0.07517 0.07517 0.77663 0.1002 v 0 a 4.50947,4.50947 0 0 1 1.172463,0.27056667 v 0 l 0.1002,0.0401 v 0 l 0.0952,0.0400667 v 0 l 0.0902,0.0400667 v 0 l 0.0952,-0.13526667 v 0 L 52.214477,0.2906 v 0 l 0.08517,0.0451 v 0 l 0.0902,0.0501 v 0 a 4.5796173,4.5796173 0 0 1 1.002104,0.7916633 L 66.970463,14.750967 a 4.5562653,4.5562653 0 1 1 -6.443533,6.44353 l -5.867143,-5.87233 V 45.340203 H 84.677823 L 78.770417,39.44783 a 4.5545647,4.5545647 0 0 1 6.438523,-6.43852 l 13.663693,13.663693 a 4.5445437,4.5445437 0 0 1 1.097304,1.763704 v 0 L 100,48.531917 v 0 0.07517 0.04007 0.06013 0.0551 0.0501 0.06513 0.0401 0.07517 0.0501 0.07517 0.03 0.07517 0.03507 0.07517 0.06013 0.07013 0.220466 c 0,0.025 0,0.0501 0,0.08017 v 0.03507 c 0,0.04007 0,0.07517 0,0.115233 v 0 0 c 0,0.03507 0,0.07013 0,0.1002 0,0.03 0,0.04007 0,0.06013 v 0.0501 c 0,0.025 0,0.0551 0,0.08017 v 0.025 0.0952 0 0.105233 0 a 4.50947,4.50947 0 0 1 -0.225467,0.96202 v 0 l -0.03507,0.105234 v 0 l -0.04007,0.1002 v 0 l -0.0401,0.0952 v 0 l -0.04007,0.08517 v 0 l -0.0401,0.08017 v 0 l -0.0401,0.07517 v 0 l -0.0401,0.08017 v 0 l -0.0451,0.08017 v 0 l -0.0551,0.0902 v 0 a 4.5796173,4.5796173 0 0 1 -0.736546,0.896883 L 85.088683,66.65987 A 4.5562661,4.5562661 0 0 1 78.64515,60.216337 l 6.03267,-5.76711 H 54.659783 v 30.018036 l 5.892374,-5.892373 a 4.556265,4.556265 0 0 1 6.44353,6.443533 L 53.417173,98.591927 a 4.5796173,4.5796173 0 0 1 -0.896883,0.736546 v 0 l -0.0902,0.0551 v 0 l -0.08017,0.0451 v 0 l -0.08017,0.0401 v 0 l -0.160334,0.03 v 0 l -0.08017,0.0401 v 0 l -0.08517,0.0401 v 0 l -0.0952,0.0401 v 0 l -0.1002,0.04007 v 0 l -0.105233,0.03507 v 0 a 4.50947,4.50947 0 0 1 -0.96202,0.225466 v 0 h -0.105234 v 0 h -0.0952 -0.37579 z"
     inkscape:connector-curvature="0"
     style="stroke-width:3.33333325" />
</svg>
