<?xml version="1.0" encoding="UTF-8" standalone="no"?>
<svg
   xmlns:dc="http://purl.org/dc/elements/1.1/"
   xmlns:cc="http://creativecommons.org/ns#"
   xmlns:rdf="http://www.w3.org/1999/02/22-rdf-syntax-ns#"
   xmlns:svg="http://www.w3.org/2000/svg"
   xmlns="http://www.w3.org/2000/svg"
   xmlns:sodipodi="http://sodipodi.sourceforge.net/DTD/sodipodi-0.dtd"
   xmlns:inkscape="http://www.inkscape.org/namespaces/inkscape"
   id="icon-arrow-down-right"
   width="100"
   height="100"
   viewBox="0 0 100 100"
   version="1.1"
   sodipodi:docname="uEA05-arrow-down-right.svg"
   inkscape:version="0.92.4 (5da689c313, 2019-01-14)">
  <defs
     id="defs7" />
  <metadata
     id="metadata12">
    <rdf:RDF>
      <cc:Work
         rdf:about="">
        <dc:format>image/svg+xml</dc:format>
        <dc:type
           rdf:resource="http://purl.org/dc/dcmitype/StillImage" />
        <dc:title></dc:title>
      </cc:Work>
    </rdf:RDF>
  </metadata>
  <sodipodi:namedview
     pagecolor="#ffffff"
     bordercolor="#666666"
     borderopacity="1"
     objecttolerance="10"
     gridtolerance="10"
     guidetolerance="10"
     inkscape:pageopacity="0"
     inkscape:pageshadow="2"
     inkscape:window-width="1280"
     inkscape:window-height="971"
     id="namedview10"
     showgrid="false"
     inkscape:zoom="7.8666667"
     inkscape:cx="-8.1991525"
     inkscape:cy="15"
     inkscape:window-x="-8"
     inkscape:window-y="-8"
     inkscape:window-maximized="1"
     inkscape:current-layer="icon-arrow-down-right" />
  <path
     d="m 53.299226,98.77387 a 4.1664433,4.1664433 0 0 1 0,-5.89135 l 13.7201,-13.7201 H 39.583296 A 20.832217,20.832217 0 0 1 18.751078,58.330207 V 4.1664436 a 4.1664435,4.1664435 0 0 1 8.332887,0 V 58.330207 A 12.49933,12.49933 0 0 0 39.583296,70.829533 H 67.023493 L 53.299226,57.109437 a 4.1672881,4.1672881 0 0 1 5.89552,-5.89135 L 80.02696,72.050303 a 4.1664433,4.1664433 0 0 1 0,5.895517 L 59.194746,98.778036 a 4.1664433,4.1664433 0 0 1 -5.89552,0 z"
     id="path4"
     inkscape:connector-curvature="0"
     style="stroke-width:3.33333325" />
</svg>
