<?xml version="1.0" encoding="UTF-8" standalone="no"?>
<svg
   xmlns:dc="http://purl.org/dc/elements/1.1/"
   xmlns:cc="http://creativecommons.org/ns#"
   xmlns:rdf="http://www.w3.org/1999/02/22-rdf-syntax-ns#"
   xmlns:svg="http://www.w3.org/2000/svg"
   xmlns="http://www.w3.org/2000/svg"
   xmlns:sodipodi="http://sodipodi.sourceforge.net/DTD/sodipodi-0.dtd"
   xmlns:inkscape="http://www.inkscape.org/namespaces/inkscape"
   id="icon-compass"
   width="100"
   height="100"
   viewBox="0 0 100 100"
   version="1.1"
   sodipodi:docname="uEA09-compass.svg"
   inkscape:version="0.92.4 (5da689c313, 2019-01-14)">
  <metadata
     id="metadata8">
    <rdf:RDF>
      <cc:Work
         rdf:about="">
        <dc:format>image/svg+xml</dc:format>
        <dc:type
           rdf:resource="http://purl.org/dc/dcmitype/StillImage" />
        <dc:title></dc:title>
      </cc:Work>
    </rdf:RDF>
  </metadata>
  <defs
     id="defs6" />
  <sodipodi:namedview
     pagecolor="#ffffff"
     bordercolor="#666666"
     borderopacity="1"
     objecttolerance="10"
     gridtolerance="10"
     guidetolerance="10"
     inkscape:pageopacity="0"
     inkscape:pageshadow="2"
     inkscape:window-width="1280"
     inkscape:window-height="971"
     id="namedview4"
     showgrid="false"
     inkscape:zoom="7.8666667"
     inkscape:cx="-8.1991525"
     inkscape:cy="15"
     inkscape:window-x="-8"
     inkscape:window-y="-8"
     inkscape:window-maximized="1"
     inkscape:current-layer="icon-compass" />
  <path
     id="Combined_Shape"
     data-name="Combined Shape"
     d="M 50,100 A 50,50 0 1 1 100,50 50.055,50.055 0 0 1 50,100 Z M 50,9.09 A 40.91,40.91 0 1 0 90.91,50 40.955,40.955 0 0 0 50,9.09 Z M 30.705,73.825 A 4.56,4.56 0 0 1 27.02,71.91 4.47,4.47 0 0 1 26.41,67.835 l 9.64,-28.91 a 4.59,4.59 0 0 1 2.875,-2.875 l 28.91,-9.635 a 4.6,4.6 0 0 1 1.46,-0.24 4.555,4.555 0 0 1 3.67,1.905 4.5,4.5 0 0 1 0.615,4.085 l -9.63,28.91 a 4.59,4.59 0 0 1 -2.875,2.875 l -28.91,9.635 a 4.655,4.655 0 0 1 -1.46,0.24 z M 62.08,37.91 v 0 l -18.12,6.05 -6.05,18.12 18.13,-6.04 z"
     inkscape:connector-curvature="0"
     style="stroke-width:3.33333325" />
</svg>
