<?xml version="1.0" encoding="UTF-8" standalone="no"?>
<svg
   xmlns:dc="http://purl.org/dc/elements/1.1/"
   xmlns:cc="http://creativecommons.org/ns#"
   xmlns:rdf="http://www.w3.org/1999/02/22-rdf-syntax-ns#"
   xmlns:svg="http://www.w3.org/2000/svg"
   xmlns="http://www.w3.org/2000/svg"
   xmlns:sodipodi="http://sodipodi.sourceforge.net/DTD/sodipodi-0.dtd"
   xmlns:inkscape="http://www.inkscape.org/namespaces/inkscape"
   id="icon-configuration"
   width="100"
   height="100"
   viewBox="0 0 100 100"
   version="1.1"
   sodipodi:docname="uEA0A-configuration.svg"
   inkscape:version="0.92.4 (5da689c313, 2019-01-14)">
  <metadata
     id="metadata8">
    <rdf:RDF>
      <cc:Work
         rdf:about="">
        <dc:format>image/svg+xml</dc:format>
        <dc:type
           rdf:resource="http://purl.org/dc/dcmitype/StillImage" />
        <dc:title></dc:title>
      </cc:Work>
    </rdf:RDF>
  </metadata>
  <defs
     id="defs6" />
  <sodipodi:namedview
     pagecolor="#ffffff"
     bordercolor="#666666"
     borderopacity="1"
     objecttolerance="10"
     gridtolerance="10"
     guidetolerance="10"
     inkscape:pageopacity="0"
     inkscape:pageshadow="2"
     inkscape:window-width="1280"
     inkscape:window-height="971"
     id="namedview4"
     showgrid="false"
     inkscape:zoom="7.8666667"
     inkscape:cx="-8.1991525"
     inkscape:cy="15"
     inkscape:window-x="-8"
     inkscape:window-y="-8"
     inkscape:window-maximized="1"
     inkscape:current-layer="icon-configuration" />
  <path
     id="Combined_Shape-2"
     data-name="Combined Shape"
     d="m 50.33,100 a 12.5,12.5 0 0 1 -12.5,-12.5 2.905,2.905 0 0 0 -2,-2.855 2.745,2.745 0 0 0 -1.1,-0.23 2.67,2.67 0 0 0 -1.855,0.74 L 32.63,85.4 a 12.5,12.5 0 0 1 -17.685,0 12.57,12.57 0 0 1 -3.66,-8.84 12.425,12.425 0 0 1 3.66,-8.84 L 15.15,67.5 a 2.75,2.75 0 0 0 0.5,-3.03 2.705,2.705 0 0 0 -2.465,-1.64 H 12.5 a 12.5,12.5 0 0 1 0,-25 2.905,2.905 0 0 0 2.855,-2 2.71,2.71 0 0 0 -0.5,-2.96 L 14.61,32.625 a 12.5,12.5 0 0 1 8.83,-21.36 12.59,12.59 0 0 1 8.84,3.66 l 0.22,0.225 a 2.71,2.71 0 0 0 3,0.54 4,4 0 0 1 0.83,-0.265 2.705,2.705 0 0 0 1.17,-2.22 V 12.5 a 12.5,12.5 0 0 1 25,0 v 0.36 a 2.795,2.795 0 0 0 2.785,2.73 2.645,2.645 0 0 0 1.85,-0.74 l 0.255,-0.245 a 12.5,12.5 0 0 1 17.68,0 12.415,12.415 0 0 1 3.665,8.85 12.59,12.59 0 0 1 -3.66,8.84 L 84.85,32.5 a 2.695,2.695 0 0 0 -0.54,3 4.05,4.05 0 0 1 0.265,0.83 2.705,2.705 0 0 0 2.215,1.185 h 0.71 a 12.5,12.5 0 0 1 0,25 h -0.36 a 2.76,2.76 0 0 0 -2,4.635 l 0.245,0.255 a 12.57,12.57 0 0 1 3.66,8.84 12.395,12.395 0 0 1 -3.66,8.835 12.555,12.555 0 0 1 -8.84,3.665 12.425,12.425 0 0 1 -8.84,-3.66 L 67.5,84.85 A 2.68,2.68 0 0 0 65.615,84.08 2.84,2.84 0 0 0 64.47,84.325 2.705,2.705 0 0 0 62.83,86.79 V 87.5 A 12.5,12.5 0 0 1 50.33,100 Z M 34.77,76.055 a 10.25,10.25 0 0 1 4.17,0.865 11.05,11.05 0 0 1 7.23,10.205 V 87.5 a 4.17,4.17 0 0 0 8.335,0 v -0.725 a 11.085,11.085 0 0 1 18.86,-7.845 l 0.255,0.255 a 4.195,4.195 0 0 0 2.945,1.22 4.15,4.15 0 0 0 2.955,-1.225 4.195,4.195 0 0 0 1.22,-2.945 4.15,4.15 0 0 0 -1.225,-2.955 L 79.235,73 A 11.095,11.095 0 0 1 87.13,54.175 h 0.37 a 4.17,4.17 0 0 0 0,-8.335 h -0.725 a 11.03,11.03 0 0 1 -10.11,-6.695 3.91,3.91 0 0 1 -0.3,-1.095 11,11 0 0 1 2.56,-11.405 L 79.18,26.4 a 4.195,4.195 0 0 0 1.22,-2.945 4.15,4.15 0 0 0 -1.225,-2.955 4.175,4.175 0 0 0 -5.9,0 l -0.28,0.28 a 10.975,10.975 0 0 1 -7.73,3.155 10.805,10.805 0 0 1 -4.41,-0.93 11.04,11.04 0 0 1 -6.69,-10.12 V 12.5 a 4.17,4.17 0 1 0 -8.335,0 v 0.725 A 11.04,11.04 0 0 1 39.14,23.33 4.325,4.325 0 0 1 38.045,23.63 11.06,11.06 0 0 1 26.64,21.07 L 26.395,20.815 A 4.195,4.195 0 0 0 23.45,19.595 4.17,4.17 0 0 0 20.5,26.72 l 0.28,0.285 a 10.9,10.9 0 0 1 2.31,11.93 11.06,11.06 0 0 1 -10.215,7.23 H 12.5 a 4.17,4.17 0 0 0 0,8.335 h 0.725 a 11.095,11.095 0 0 1 7.845,18.86 l -0.255,0.255 a 4.195,4.195 0 0 0 -1.22,2.945 4.17,4.17 0 0 0 7.12,2.945 L 27,79.225 a 11.175,11.175 0 0 1 7.77,-3.17 z M 50,66.665 A 16.665,16.665 0 1 1 66.665,50 16.685,16.685 0 0 1 50,66.665 Z m 0,-25 A 8.335,8.335 0 1 0 58.33,50 8.345,8.345 0 0 0 50,41.665 Z"
     inkscape:connector-curvature="0"
     style="stroke-width:3.33333325" />
</svg>
