<?xml version="1.0" encoding="UTF-8" standalone="no"?>
<svg
   xmlns:dc="http://purl.org/dc/elements/1.1/"
   xmlns:cc="http://creativecommons.org/ns#"
   xmlns:rdf="http://www.w3.org/1999/02/22-rdf-syntax-ns#"
   xmlns:svg="http://www.w3.org/2000/svg"
   xmlns="http://www.w3.org/2000/svg"
   xmlns:sodipodi="http://sodipodi.sourceforge.net/DTD/sodipodi-0.dtd"
   xmlns:inkscape="http://www.inkscape.org/namespaces/inkscape"
   id="icon-gallery"
   width="100"
   height="100"
   viewBox="0 0 100 100"
   version="1.1"
   sodipodi:docname="uEA04-gallery.svg"
   inkscape:version="0.92.4 (5da689c313, 2019-01-14)">
  <metadata
     id="metadata12">
    <rdf:RDF>
      <cc:Work
         rdf:about="">
        <dc:format>image/svg+xml</dc:format>
        <dc:type
           rdf:resource="http://purl.org/dc/dcmitype/StillImage" />
        <dc:title></dc:title>
      </cc:Work>
    </rdf:RDF>
  </metadata>
  <sodipodi:namedview
     pagecolor="#ffffff"
     bordercolor="#666666"
     borderopacity="1"
     objecttolerance="10"
     gridtolerance="10"
     guidetolerance="10"
     inkscape:pageopacity="0"
     inkscape:pageshadow="2"
     inkscape:window-width="1280"
     inkscape:window-height="971"
     id="namedview10"
     showgrid="false"
     inkscape:zoom="7.8666667"
     inkscape:cx="-1.2076272"
     inkscape:cy="23.771187"
     inkscape:window-x="-8"
     inkscape:window-y="-8"
     inkscape:window-maximized="1"
     inkscape:current-layer="icon-gallery" />
  <defs
     id="defs4" />
  <path
     d="M 95,100 H 60 A 5,5 0 0 1 55,95 V 60 a 5,5 0 0 1 5,-5 h 35 a 5,5 0 0 1 5,5 v 35 a 5,5 0 0 1 -5,5 z M 65,65 V 90 H 90 V 65 Z M 40,100 H 5 A 5,5 0 0 1 0,95 V 60 a 5,5 0 0 1 5,-5 h 35 a 5,5 0 0 1 5,5 v 35 a 5,5 0 0 1 -5,5 z M 10,65 V 90 H 35 V 65 Z M 95,45 H 60 A 5,5 0 0 1 55,40 V 5 a 5,5 0 0 1 5,-5 h 35 a 5,5 0 0 1 5,5 v 35 a 5,5 0 0 1 -5,5 z M 65,10 V 35 H 90 V 10 Z M 40,45 H 5 A 5,5 0 0 1 0,40 V 5 A 5,5 0 0 1 5,0 h 35 a 5,5 0 0 1 5,5 v 35 a 5,5 0 0 1 -5,5 z M 10,10 V 35 H 35 V 10 Z"
     inkscape:connector-curvature="0"
     style="fill:#091625;stroke:none;stroke-width:5"
     id="path5" />
</svg>
