<?xml version="1.0" encoding="UTF-8" standalone="no"?>
<svg
   xmlns:dc="http://purl.org/dc/elements/1.1/"
   xmlns:cc="http://creativecommons.org/ns#"
   xmlns:rdf="http://www.w3.org/1999/02/22-rdf-syntax-ns#"
   xmlns:svg="http://www.w3.org/2000/svg"
   xmlns="http://www.w3.org/2000/svg"
   xmlns:sodipodi="http://sodipodi.sourceforge.net/DTD/sodipodi-0.dtd"
   xmlns:inkscape="http://www.inkscape.org/namespaces/inkscape"
   id="icon-map"
   width="100"
   height="100"
   viewBox="0 0 100 100"
   version="1.1"
   sodipodi:docname="uEA19-map-alt.svg"
   inkscape:version="0.92.4 (5da689c313, 2019-01-14)">
  <metadata
     id="metadata8">
    <rdf:RDF>
      <cc:Work
         rdf:about="">
        <dc:format>image/svg+xml</dc:format>
        <dc:type
           rdf:resource="http://purl.org/dc/dcmitype/StillImage" />
        <dc:title></dc:title>
      </cc:Work>
    </rdf:RDF>
  </metadata>
  <defs
     id="defs6" />
  <sodipodi:namedview
     pagecolor="#ffffff"
     bordercolor="#666666"
     borderopacity="1"
     objecttolerance="10"
     gridtolerance="10"
     guidetolerance="10"
     inkscape:pageopacity="0"
     inkscape:pageshadow="2"
     inkscape:window-width="1280"
     inkscape:window-height="971"
     id="namedview4"
     showgrid="false"
     inkscape:zoom="7.8666667"
     inkscape:cx="-8.1991525"
     inkscape:cy="15"
     inkscape:window-x="-8"
     inkscape:window-y="-8"
     inkscape:window-maximized="1"
     inkscape:current-layer="icon-map" />
  <path
     d="M 1.2701006,94.659953 A 4.1099956,4.1099956 0 0 1 1.0192747e-4,91.659956 V 25.000027 A 4.1749956,4.1749956 0 0 1 2.1000999,21.38503 L 31.205071,4.750047 a 4.1399956,4.1399956 0 0 1 1.849997,-0.59 h 0.529999 0.105 v 0 a 4.1399956,4.1399956 0 0 1 1.499997,0.42 v 0 h 0.025 L 66.520033,20.23503 93.770007,4.715047 a 4.1299956,4.1299956 0 0 1 2.059996,-0.555 A 4.1799956,4.1799956 0 0 1 100,8.335044 V 74.999973 A 4.1799956,4.1799956 0 0 1 97.9,78.61497 L 68.74003,95.274953 v 0 l -0.09,0.05 h -0.045 -0.05 a 4.1049956,4.1049956 0 0 1 -2.999997,0.29 h -0.04 -0.04 a 4.1399956,4.1399956 0 0 1 -0.74,-0.3 L 33.465067,79.72497 6.2350955,95.284953 a 4.1449956,4.1449956 0 0 1 -2.059998,0.555 4.2449956,4.2449956 0 0 1 -2.9049969,-1.18 z M 62.500037,84.924963 V 27.570023 L 37.500064,15.070037 v 57.349939 z m 8.334993,-0.435 20.829977,-11.904987 V 15.510034 L 70.83503,27.415023 Z M 8.3300935,27.420023 v 57.06494 L 29.165071,72.584976 V 15.515034 Z"
     id="path5"
     inkscape:connector-curvature="0"
     style="stroke-width:3.33333325" />
</svg>
