<?xml version="1.0" encoding="UTF-8" standalone="no"?>
<svg
   xmlns:dc="http://purl.org/dc/elements/1.1/"
   xmlns:cc="http://creativecommons.org/ns#"
   xmlns:rdf="http://www.w3.org/1999/02/22-rdf-syntax-ns#"
   xmlns:svg="http://www.w3.org/2000/svg"
   xmlns="http://www.w3.org/2000/svg"
   xmlns:sodipodi="http://sodipodi.sourceforge.net/DTD/sodipodi-0.dtd"
   xmlns:inkscape="http://www.inkscape.org/namespaces/inkscape"
   id="icon_new"
   width="100"
   height="100"
   viewBox="0 0 100 100"
   version="1.1"
   sodipodi:docname="uEA1D-new.svg"
   inkscape:version="0.92.4 (5da689c313, 2019-01-14)">
  <metadata
     id="metadata13">
    <rdf:RDF>
      <cc:Work
         rdf:about="">
        <dc:format>image/svg+xml</dc:format>
        <dc:type
           rdf:resource="http://purl.org/dc/dcmitype/StillImage" />
        <dc:title></dc:title>
      </cc:Work>
    </rdf:RDF>
  </metadata>
  <defs
     id="defs11" />
  <sodipodi:namedview
     pagecolor="#ffffff"
     bordercolor="#666666"
     borderopacity="1"
     objecttolerance="10"
     gridtolerance="10"
     guidetolerance="10"
     inkscape:pageopacity="0"
     inkscape:pageshadow="2"
     inkscape:window-width="1280"
     inkscape:window-height="971"
     id="namedview9"
     showgrid="false"
     inkscape:zoom="22.250293"
     inkscape:cx="4.6613748"
     inkscape:cy="8.8358788"
     inkscape:window-x="-8"
     inkscape:window-y="-8"
     inkscape:window-maximized="1"
     inkscape:current-layer="icon_new" />
  <path
     d="m 74.847378,13.403544 c -0.559892,-0.0093 -1.134331,0.126833 -1.676826,0.442072 L 51.928247,25.964478 27.492353,13.74653 h -0.0305 c -0.367179,-0.18057 -0.766675,-0.293973 -1.173765,-0.335366 h -0.503047 c -0.511338,0.04083 -1.002574,0.1979 -1.440544,0.464939 L 1.6311603,26.848619 C 0.62052162,27.433971 -0.00111461,28.516061 6.8256133e-5,29.683975 V 81.703616 C -0.00615862,82.587314 0.35209192,83.432915 0.99091859,84.043543 c 0.60809181,0.588862 1.41723081,0.920278 2.26371181,0.922258 0.5609873,0.0017 1.1132335,-0.1414 1.6006046,-0.419206 l 21.249928,-12.156975 24.405401,12.210329 0.04573,0.023 c 0.169133,0.0915 0.349692,0.172233 0.533535,0.228667 h 0.0381 0.023 c 0.282499,0.07637 0.576255,0.112966 0.868898,0.114333 0.527748,-0.024 1.044843,-0.176467 1.501519,-0.442076 h 0.03033 c 0.0073,-0.0037 0.01533,-0.0037 0.023,0 h 0.023 0.023 c 0.0087,-0.0043 0.022,-0.0043 0.03033,0 l 8.429848,-4.817057 c 0.0047,-0.0083 0.0031,-0.01467 0.0077,-0.023 4.00796,4.246422 9.674955,6.913085 15.960312,6.913085 12.103651,0 21.951144,-9.855171 21.951144,-21.966389 0,-12.103606 -9.847493,-21.951143 -21.951144,-21.951143 v -26.00601 c 0.0083,-1.882282 -1.52154,-3.241802 -3.201205,-3.269805 z m -45.579116,8.536554 19.512127,9.756068 V 76.45211 L 29.268262,66.696045 Z m 42.278821,0.335366 v 21.379501 l 0.0077,0.0077 c -8.95487,2.772086 -15.472507,11.120221 -15.472507,20.967912 0,3.499387 0.839605,6.801436 2.301821,9.740825 -0.008,-0.0087 -0.02267,-0.014 -0.03033,-0.023 l -3.071636,1.753045 v -44.5501 z m -48.787945,0.0077 V 66.810375 L 6.5015707,76.101501 V 31.574213 Z m 55.289445,25.274261 c 9.413079,0 17.073112,7.660033 17.073112,17.073109 0,9.420692 -7.660033,17.088358 -17.073112,17.088358 -9.413079,0 -17.073112,-7.667666 -17.073112,-17.088358 0,-9.413076 7.660033,-17.073109 17.073112,-17.073109 z m -0.0686,7.088388 a 1.998042,1.998042 0 0 0 -0.08383,0.0077 1.998042,1.998042 0 0 0 -1.852132,1.996944 v 5.983211 H 70.06081 a 1.998042,1.998042 0 0 0 0,3.993893 h 5.983208 v 5.975588 a 1.998042,1.998042 0 0 0 3.993893,0 v -5.975588 h 5.975587 a 1.998042,1.998042 0 0 0 0,-3.993893 h -5.97559 v -5.983254 a 1.998042,1.998042 0 0 0 -2.057922,-2.004568 z"
     id="path829"
     inkscape:connector-curvature="0"
     style="stroke-width:3.33332467" />
</svg>
