<?xml version="1.0" encoding="UTF-8" standalone="no"?>
<svg
   xmlns:dc="http://purl.org/dc/elements/1.1/"
   xmlns:cc="http://creativecommons.org/ns#"
   xmlns:rdf="http://www.w3.org/1999/02/22-rdf-syntax-ns#"
   xmlns:svg="http://www.w3.org/2000/svg"
   xmlns="http://www.w3.org/2000/svg"
   xmlns:sodipodi="http://sodipodi.sourceforge.net/DTD/sodipodi-0.dtd"
   xmlns:inkscape="http://www.inkscape.org/namespaces/inkscape"
   id="icon-notification"
   width="100"
   height="100"
   viewBox="0 0 100 100"
   version="1.1"
   sodipodi:docname="uEA1E-notification.svg"
   inkscape:version="0.92.4 (5da689c313, 2019-01-14)">
  <defs
     id="defs6" />
  <metadata
     id="metadata12">
    <rdf:RDF>
      <cc:Work
         rdf:about="">
        <dc:format>image/svg+xml</dc:format>
        <dc:type
           rdf:resource="http://purl.org/dc/dcmitype/StillImage" />
        <dc:title></dc:title>
      </cc:Work>
    </rdf:RDF>
  </metadata>
  <sodipodi:namedview
     pagecolor="#ffffff"
     bordercolor="#666666"
     borderopacity="1"
     objecttolerance="10"
     gridtolerance="10"
     guidetolerance="10"
     inkscape:pageopacity="0"
     inkscape:pageshadow="2"
     inkscape:window-width="1280"
     inkscape:window-height="971"
     id="namedview10"
     showgrid="false"
     inkscape:zoom="7.8666667"
     inkscape:cx="-9.279661"
     inkscape:cy="15.254238"
     inkscape:window-x="-8"
     inkscape:window-y="-8"
     inkscape:window-maximized="1"
     inkscape:current-layer="icon-notification" />
  <path
     id="Shape-2"
     data-name="Shape"
     d="m 50,98.017527 a 13.862942,13.862942 0 0 1 -11.84199,-6.54736 4.1553906,4.1553906 0 0 1 0,-4.364907 4.556962,4.556962 0 0 1 3.954603,-2.18245 h 15.792234 a 4.556962,4.556962 0 0 1 3.954603,2.18245 4.1553906,4.1553906 0 0 1 0,4.364907 A 13.862942,13.862942 0 0 1 50,98.017527 Z M 95.635093,76.192997 H 4.3649068 a 4.3649066,4.3649066 0 1 1 0,-8.729813 8.9436926,8.9436926 0 0 0 9.1270192,-8.729814 V 36.908841 A 35.79223,35.79223 0 0 1 50,1.9895905 35.79223,35.79223 0 0 1 86.508076,36.908841 V 58.73337 a 8.9436926,8.9436926 0 0 0 9.127017,8.729814 4.3649066,4.3649066 0 1 1 0,8.729813 z M 50,10.719404 A 26.839808,26.839808 0 0 0 22.618944,36.908841 V 58.73337 a 16.870362,16.870362 0 0 1 -2.439982,8.729814 H 79.82104 A 16.874727,16.874727 0 0 1 77.381057,58.73337 V 36.908841 A 26.839808,26.839808 0 0 0 50,10.719404 Z"
     inkscape:connector-curvature="0"
     style="fill:#091625;stroke-width:4.36490631" />
</svg>
