<?xml version="1.0" encoding="UTF-8" standalone="no"?>
<svg
   xmlns:dc="http://purl.org/dc/elements/1.1/"
   xmlns:cc="http://creativecommons.org/ns#"
   xmlns:rdf="http://www.w3.org/1999/02/22-rdf-syntax-ns#"
   xmlns:svg="http://www.w3.org/2000/svg"
   xmlns="http://www.w3.org/2000/svg"
   xmlns:sodipodi="http://sodipodi.sourceforge.net/DTD/sodipodi-0.dtd"
   xmlns:inkscape="http://www.inkscape.org/namespaces/inkscape"
   id="icon_map_background"
   width="100"
   height="100"
   viewBox="0 0 100 100"
   version="1.1"
   sodipodi:docname="uEA1A-map-background.svg"
   inkscape:version="0.92.4 (5da689c313, 2019-01-14)">
  <metadata
     id="metadata8">
    <rdf:RDF>
      <cc:Work
         rdf:about="">
        <dc:format>image/svg+xml</dc:format>
        <dc:type
           rdf:resource="http://purl.org/dc/dcmitype/StillImage" />
        <dc:title></dc:title>
      </cc:Work>
    </rdf:RDF>
  </metadata>
  <defs
     id="defs6" />
  <sodipodi:namedview
     pagecolor="#ffffff"
     bordercolor="#666666"
     borderopacity="1"
     objecttolerance="10"
     gridtolerance="10"
     guidetolerance="10"
     inkscape:pageopacity="0"
     inkscape:pageshadow="2"
     inkscape:window-width="1280"
     inkscape:window-height="971"
     id="namedview4"
     showgrid="false"
     inkscape:zoom="7.8666667"
     inkscape:cx="-8.1991525"
     inkscape:cy="15"
     inkscape:window-x="-8"
     inkscape:window-y="-8"
     inkscape:window-maximized="1"
     inkscape:current-layer="icon_map_background" />
  <path
     id="Path"
     d="m 55.386364,0.2969135 a 5.0273635,5.0273635 0 0 1 5.081244,3.3985472 6.2665897,6.2665897 0 0 1 3.013101,1.5749369 5.0936765,5.0936765 0 0 1 1.193636,1.9065037 11.965373,11.965373 0 0 1 4.625341,3.7591247 5.1765678,5.1765678 0 0 1 2.262934,-0.547084 c 1.0693,0 4.530017,0.414457 4.915461,5.914301 a 18.480637,18.480637 0 0 0 2.99238,0.629977 12.984937,12.984937 0 0 1 7.746201,3.054547 h 0.1036 a 4.2564734,4.2564734 0 0 1 2.437007,0.70872 c 3.593344,0.2404 8.794778,0.67142 10.017425,4.596327 0.725306,2.333394 -0.302566,4.633631 -3.054547,6.842688 a 16.163823,16.163823 0 0 0 -0.73359,4.181871 22.927761,22.927761 0 0 1 -0.96154,5.425241 6.1256743,6.1256743 0 0 1 -4.915458,4.360087 c -0.692143,0.940817 -1.65783,2.271224 -2.71055,3.696957 a 5.3879409,5.3879409 0 0 1 2.072284,1.657827 8.3803203,8.3803203 0 0 1 1.728287,8.023888 7.8249479,7.8249479 0 0 1 1.24337,1.313827 4.5880391,4.5880391 0 0 1 0.174067,5.421098 3.6264986,3.6264986 0 0 1 -1.123181,1.065153 4.4056777,4.4056777 0 0 1 0.46005,0.621687 4.9734838,4.9734838 0 0 1 0.165767,4.501004 14.45626,14.45626 0 0 0 1.782167,0.414457 4.28963,4.28963 0 0 1 3.452427,2.926067 c 0.99055,3.125004 -1.417443,6.216854 -7.567984,12.350815 l -0.64241,0.646554 a 6.1339637,6.1339637 0 0 1 -6.055218,3.394404 36.323009,36.323009 0 0 1 -11.393422,-3.025538 c -1.098277,-0.414456 -2.602757,-0.99055 -3.04208,-1.08173 a 18.451625,18.451625 0 0 0 -3.481438,-0.385446 c -0.907663,0 -2.515753,0.116033 -3.112573,0.895226 -0.310834,0.414457 -0.928384,1.732431 0.0373,5.276038 a 3.8130043,3.8130043 0 0 1 -0.64241,3.60992 7.0209015,7.0209015 0 0 1 -5.678061,2.271224 24.86742,24.86742 0 0 1 -7.994875,-1.71585 8.2518387,8.2518387 0 0 1 -2.42043,0.414457 4.6709304,4.6709304 0 0 1 -4.670931,-3.601631 c -0.534647,0.033 -1.193634,0.128467 -1.889924,0.2321 a 26.110791,26.110791 0 0 1 -3.75912,0.352283 8.9232591,8.9232591 0 0 1 -5.877,-1.910647 l -0.128483,-0.025 a 16.284015,16.284015 0 0 1 -6.598154,-2.70627 H 22.28783 A 4.3683767,4.3683767 0 0 1 18.586729,88.431191 3.9083293,3.9083293 0 0 1 18.192995,87.030328 4.2937744,4.2937744 0 0 1 15.959072,82.500314 3.9166186,3.9166186 0 0 1 18.860271,79.51208 44.409067,44.409067 0 0 0 22.068168,67.190271 91.682031,91.682031 0 0 0 23.311539,55.477716 12.127012,12.127012 0 0 1 17.703935,45.240631 c -0.373011,-0.513927 -0.86207,-1.20607 -1.53349,-2.155177 L 15.416133,42.020301 A 24.86742,24.86742 0 0 0 6.476296,38.729513 L 5.9416462,38.667343 5.4525871,38.45597 C 1.5566915,36.76913 -0.26691931,34.642966 0.03148971,32.143789 A 4.14457,4.14457 0 0 1 0.8313917,30.137819 4.8698698,4.8698698 0 0 1 0.38792273,26.254358 5.9143013,5.9143013 0 0 1 5.1334554,22.524244 10.245377,10.245377 0 0 1 7.5911852,22.229977 15.264451,15.264451 0 0 1 9.7463615,22.408211 l 0.2155167,0.029 a 5.4666879,5.4666879 0 0 1 4.1735828,-2.072287 7.0126125,7.0126125 0 0 1 5.802398,4.384954 28.788183,28.788183 0 0 1 2.859753,-0.555374 c -0.43518,-2.034983 -1.023709,-4.534157 -1.58737,-6.747357 l -0.965685,-3.800571 3.866884,-0.667277 a 11.115736,11.115736 0 0 1 1.898212,-0.174067 7.6342979,7.6342979 0 0 1 6.631313,3.842018 c 0.799901,1.139757 0.899371,1.284817 2.146888,1.284817 a 8.9895721,8.9895721 0 0 0 1.09002,-0.0746 17.506663,17.506663 0 0 1 9.901378,-6.589868 q -0.05803,-0.128467 -0.107766,-0.2611 a 7.2571418,7.2571418 0 0 1 1.57908,-7.2074083 12.541469,12.541469 0 0 1 8.135791,-3.50216053 z M 57.703178,10.434532 A 6.3909267,6.3909267 0 0 1 54.889017,8.5611882 l -0.783323,3.1042808 a 8.8030664,8.8030664 0 0 1 -4.782834,6.038641 26.728331,26.728331 0 0 0 -6.299748,2.934354 l -0.605107,1.60395 -0.675563,1.749007 -1.815324,0.460047 a 20.946656,20.946656 0 0 1 -5.110254,0.712866 9.6444142,9.6444142 0 0 1 -4.600472,-1.04443 c 0.766746,3.813004 0.712866,5.205578 -0.29841,6.506975 a 3.6803783,3.6803783 0 0 1 -2.921921,1.43402 3.7632696,3.7632696 0 0 1 -2.287802,-0.77918 20.126032,20.126032 0 0 0 -4.032667,0.762603 9.9138113,9.9138113 0 0 1 -2.453585,0.4559 h -0.14506 c -2.333393,-0.0746 -3.315656,-1.964523 -4.016088,-3.344667 l -0.227952,-0.43518 a 5.8894339,5.8894339 0 0 1 -3.369535,0.986407 9.7273056,9.7273056 0 0 1 -1.1439012,-0.0746 3.9207633,3.9207633 0 0 1 0.2486733,2.25879 31.084274,31.084274 0 0 1 6.5194079,2.254647 16.38763,16.38763 0 0 1 4.716521,2.901201 l 0.0373,0.0456 c 0.215517,0.281833 0.605107,0.828913 1.276528,1.782163 0.538794,0.762604 1.400864,1.985251 1.744863,2.437007 a 3.991221,3.991221 0 0 1 1.044434,2.648381 c 0.18236,3.187177 1.081733,5.027364 2.669103,5.462544 a 4.6087617,4.6087617 0 0 1 2.99238,4.720664 36.103349,36.103349 0 0 1 -0.08704,3.821294 116.87687,116.87687 0 0 1 -2.316815,16.080933 32.982487,32.982487 0 0 1 -3.100138,9.234101 4.3393647,4.3393647 0 0 1 0.464192,0.828914 5.7029283,5.7029283 0 0 1 1.040287,0.629973 9.0641745,9.0641745 0 0 0 3.945631,1.574937 5.6034586,5.6034586 0 0 1 3.228619,1.492044 1.9189359,1.9189359 0 0 0 1.305541,0.294266 20.420296,20.420296 0 0 0 2.714693,-0.2777 23.147423,23.147423 0 0 1 3.294931,-0.319133 6.341192,6.341192 0 0 1 5.910158,3.15402 4.9734838,4.9734838 0 0 1 1.02371,-0.1119 3.9953653,3.9953653 0 0 1 1.765587,0.414457 23.437543,23.437543 0 0 0 4.679217,1.359417 11.0287,11.0287 0 0 1 1.865057,-8.189668 10.469184,10.469184 0 0 1 8.877668,-3.730114 25.638309,25.638309 0 0 1 4.878161,0.522217 29.753867,29.753867 0 0 1 4.231604,1.421587 35.900266,35.900266 0 0 0 8.645575,2.54891 13.192166,13.192166 0 0 1 1.73243,-1.91479 q 2.48674,-2.486744 3.941484,-4.144571 a 6.9255764,6.9255764 0 0 1 -3.415124,-2.9012 5.5412899,5.5412899 0 0 1 -0.613397,-3.651364 4.4554127,4.4554127 0 0 1 -2.979947,-3.290791 5.8521326,5.8521326 0 0 1 2.868044,-5.777531 4.7248098,4.7248098 0 0 1 -1.193637,-2.64009 4.5963281,4.5963281 0 0 1 0.795757,-2.942644 2.8017293,2.8017293 0 0 0 0.2611,-0.501493 1.8857793,1.8857793 0 0 0 -0.344,-0.828914 6.6313117,6.6313117 0 0 0 -0.874504,-0.04973 13.262624,13.262624 0 0 0 -1.815323,0.136766 l -8.641428,1.359417 5.135124,-7.074777 c 0,0 1.885777,-2.590358 3.779847,-5.184858 0.949107,-1.301393 1.902357,-2.598647 2.619367,-3.572621 l 0.891084,-1.201923 a 3.912474,3.912474 0 0 1 3.199607,-1.8692 h 0.0746 a 29.621241,29.621241 0 0 0 0.414457,-3.212044 16.549268,16.549268 0 0 1 1.96038,-7.563841 q -0.7626,-0.0746 -1.703417,-0.136767 c -0.460047,-0.029 -0.828914,-0.05387 -1.139757,-0.08703 A 4.6087617,4.6087617 0 0 1 86.180516,27.344384 4.6750748,4.6750748 0 0 1 81.953055,25.006847 12.346674,12.346674 0 0 0 78.347278,24.11162 18.808058,18.808058 0 0 1 73.282614,22.826803 6.8261068,6.8261068 0 0 1 69.86749,19.552593 3.8295826,3.8295826 0 0 1 67.99,20.037506 3.7301129,3.7301129 0 0 1 64.380079,17.285513 7.0955038,7.0955038 0 0 0 63.741816,15.818336 l -0.124334,-0.2031 -0.08703,-0.203067 a 5.4501095,5.4501095 0 0 0 -3.058694,-2.101297 l -2.950934,-0.71701 z"
     inkscape:connector-curvature="0"
     style="stroke-width:3.33333397" />
</svg>
