<?xml version="1.0" encoding="UTF-8" standalone="no"?>
<svg
   xmlns:dc="http://purl.org/dc/elements/1.1/"
   xmlns:cc="http://creativecommons.org/ns#"
   xmlns:rdf="http://www.w3.org/1999/02/22-rdf-syntax-ns#"
   xmlns:svg="http://www.w3.org/2000/svg"
   xmlns="http://www.w3.org/2000/svg"
   xmlns:sodipodi="http://sodipodi.sourceforge.net/DTD/sodipodi-0.dtd"
   xmlns:inkscape="http://www.inkscape.org/namespaces/inkscape"
   id="icon_info"
   width="100"
   height="100"
   viewBox="0 0 100 100"
   version="1.1"
   sodipodi:docname="uEA13-info.svg"
   inkscape:version="0.92.4 (5da689c313, 2019-01-14)">
  <metadata
     id="metadata8">
    <rdf:RDF>
      <cc:Work
         rdf:about="">
        <dc:format>image/svg+xml</dc:format>
        <dc:type
           rdf:resource="http://purl.org/dc/dcmitype/StillImage" />
        <dc:title></dc:title>
      </cc:Work>
    </rdf:RDF>
  </metadata>
  <defs
     id="defs6" />
  <sodipodi:namedview
     pagecolor="#ffffff"
     bordercolor="#666666"
     borderopacity="1"
     objecttolerance="10"
     gridtolerance="10"
     guidetolerance="10"
     inkscape:pageopacity="0"
     inkscape:pageshadow="2"
     inkscape:window-width="1280"
     inkscape:window-height="971"
     id="namedview4"
     showgrid="false"
     inkscape:zoom="7.8666667"
     inkscape:cx="-8.1991525"
     inkscape:cy="15"
     inkscape:window-x="-8"
     inkscape:window-y="-8"
     inkscape:window-maximized="1"
     inkscape:current-layer="icon_info" />
  <path
     id="Combined_Shape-2"
     data-name="Combined Shape"
     d="M 0,50 A 50,50 0 1 1 50,100 50.056523,50.056523 0 0 1 0,50 Z m 9.0913043,0 A 40.908697,40.908697 0 1 0 50,9.0913033 40.952173,40.952173 0 0 0 9.0913043,50 Z M 44.669567,70.608697 v -23.44348 a 4.9456523,4.9456523 0 0 1 9.891303,0 v 23.44348 a 4.9456523,4.9456523 0 1 1 -9.891303,0 z m 0,-37.826087 c 0,-3.62174 1.621736,-5.42174 4.852173,-5.52174 a 4.4869567,4.4869567 0 0 1 5.030433,4.943477 4.4391303,4.4391303 0 0 1 -4.782606,4.96522 4.5434783,4.5434783 0 0 1 -5.095654,-4.373914 z"
     inkscape:connector-curvature="0"
     style="stroke-width:4.347826" />
</svg>
