<?xml version="1.0" encoding="UTF-8" standalone="no"?>
<svg
   xmlns:dc="http://purl.org/dc/elements/1.1/"
   xmlns:cc="http://creativecommons.org/ns#"
   xmlns:rdf="http://www.w3.org/1999/02/22-rdf-syntax-ns#"
   xmlns:svg="http://www.w3.org/2000/svg"
   xmlns="http://www.w3.org/2000/svg"
   xmlns:sodipodi="http://sodipodi.sourceforge.net/DTD/sodipodi-0.dtd"
   xmlns:inkscape="http://www.inkscape.org/namespaces/inkscape"
   id="icon_open"
   width="100"
   height="100"
   viewBox="0 0 100 100"
   version="1.1"
   sodipodi:docname="uEA1F-open.svg"
   inkscape:version="0.92.4 (5da689c313, 2019-01-14)">
  <metadata
     id="metadata11">
    <rdf:RDF>
      <cc:Work
         rdf:about="">
        <dc:format>image/svg+xml</dc:format>
        <dc:type
           rdf:resource="http://purl.org/dc/dcmitype/StillImage" />
        <dc:title></dc:title>
      </cc:Work>
    </rdf:RDF>
  </metadata>
  <defs
     id="defs9" />
  <sodipodi:namedview
     pagecolor="#ffffff"
     bordercolor="#666666"
     borderopacity="1"
     objecttolerance="10"
     gridtolerance="10"
     guidetolerance="10"
     inkscape:pageopacity="0"
     inkscape:pageshadow="2"
     inkscape:window-width="1280"
     inkscape:window-height="971"
     id="namedview7"
     showgrid="false"
     inkscape:zoom="7.8666667"
     inkscape:cx="25.550847"
     inkscape:cy="3.3050848"
     inkscape:window-x="-8"
     inkscape:window-y="-8"
     inkscape:window-maximized="1"
     inkscape:current-layer="icon_open" />
  <path
     style="fill:#091625;stroke-width:4.25419092"
     d="M 5.3343567,17.099953 A 5.3390097,5.3390097 0 0 0 1.4922739e-7,22.43431 V 91.548298 A 5.3219931,5.3219931 0 0 0 5.3343567,96.857728 H 59.907651 l 21.2211,0.124633 h 0.025 a 4.2541911,4.2541911 0 0 0 3.971617,-2.750267 L 99.724221,55.844667 a 4.2541911,4.2541911 0 0 0 -0.48192,-3.93014 4.2541911,4.2541911 0 0 0 -3.498077,-1.836283 H 85.083821 V 33.06148 A 5.3305014,5.3305014 0 0 0 79.766084,27.73543 H 42.54191 v -5.30112 a 5.3219931,5.3219931 0 0 0 -5.30112,-5.334357 z m 3.1740254,8.508384 H 34.03353 V 36.27705 H 76.575441 V 50.078244 H 24.170785 A 4.2541911,4.2541911 0 0 0 20.224026,52.75373 L 8.5083821,82.042841 Z M 27.020761,58.594934 h 62.533283 l -11.358357,29.86243 -62.96535,-0.365596 z"
     id="Soustraction_16"
     inkscape:connector-curvature="0" />
</svg>
