<?xml version="1.0" encoding="UTF-8" standalone="no"?>
<svg
   xmlns:dc="http://purl.org/dc/elements/1.1/"
   xmlns:cc="http://creativecommons.org/ns#"
   xmlns:rdf="http://www.w3.org/1999/02/22-rdf-syntax-ns#"
   xmlns:svg="http://www.w3.org/2000/svg"
   xmlns="http://www.w3.org/2000/svg"
   xmlns:sodipodi="http://sodipodi.sourceforge.net/DTD/sodipodi-0.dtd"
   xmlns:inkscape="http://www.inkscape.org/namespaces/inkscape"
   id="icon_legend"
   width="100"
   height="100"
   viewBox="0 0 100 100"
   version="1.1"
   sodipodi:docname="uEA15-legend.svg"
   inkscape:version="0.92.4 (5da689c313, 2019-01-14)">
  <metadata
     id="metadata15">
    <rdf:RDF>
      <cc:Work
         rdf:about="">
        <dc:format>image/svg+xml</dc:format>
        <dc:type
           rdf:resource="http://purl.org/dc/dcmitype/StillImage" />
        <dc:title></dc:title>
      </cc:Work>
    </rdf:RDF>
  </metadata>
  <defs
     id="defs13" />
  <sodipodi:namedview
     pagecolor="#ffffff"
     bordercolor="#666666"
     borderopacity="1"
     objecttolerance="10"
     gridtolerance="10"
     guidetolerance="10"
     inkscape:pageopacity="0"
     inkscape:pageshadow="2"
     inkscape:window-width="1280"
     inkscape:window-height="971"
     id="namedview11"
     showgrid="false"
     inkscape:zoom="7.8666667"
     inkscape:cx="-31.398305"
     inkscape:cy="15"
     inkscape:window-x="-8"
     inkscape:window-y="-8"
     inkscape:window-maximized="1"
     inkscape:current-layer="icon_legend" />
  <path
     inkscape:connector-curvature="0"
     style="fill:#091625;stroke-width:4.5454545"
     d="M 13.636363,0 A 4.5454547,4.5454547 0 0 0 9.09091,4.5454533 V 95.454547 A 4.5454547,4.5454547 0 0 0 13.636363,100 H 86.363636 A 4.5454547,4.5454547 0 0 0 90.90909,95.454547 V 4.5454533 A 4.5454547,4.5454547 0 0 0 86.363636,0 Z m 4.80291,8.87784 h 63.11257 v 82.235443 h -63.11257 z m 15.083457,11.0174 c -1.259093,0 -2.27273,1.013637 -2.27273,2.27273 v 4.545453 c 0,1.25909 1.013637,2.272727 2.27273,2.272727 h 4.545453 c 1.25909,0 2.272727,-1.013637 2.272727,-2.272727 V 22.16797 c 0,-1.259093 -1.013637,-2.27273 -2.272727,-2.27273 z m 15.90021,0 c -2.518184,0 -4.545454,2.027273 -4.545454,4.545457 0,2.51818 2.02727,4.545453 4.545454,4.545453 h 14.772726 c 2.518184,0 4.545454,-2.027273 4.545454,-4.545453 0,-2.518184 -2.02727,-4.545457 -4.545454,-4.545457 z M 33.52273,36.940697 c -1.259093,0 -2.27273,1.013636 -2.27273,2.272726 v 4.545454 c 0,1.259093 1.013637,2.272726 2.27273,2.272726 h 4.545453 c 1.25909,0 2.272727,-1.013636 2.272727,-2.272726 v -4.545454 c 0,-1.25909 -1.013637,-2.272726 -2.272727,-2.272726 z m 15.90021,0 c -2.518184,0 -4.545454,2.02727 -4.545454,4.545453 0,2.518183 2.02727,4.545453 4.545454,4.545453 h 14.772726 c 2.518184,0 4.545454,-2.02727 4.545454,-4.545453 0,-2.518183 -2.02727,-4.545453 -4.545454,-4.545453 z M 33.52273,53.98615 c -1.259093,0 -2.27273,1.013637 -2.27273,2.272727 v 4.545456 c 0,1.25909 1.013637,2.272727 2.27273,2.272727 h 4.545453 c 1.25909,0 2.272727,-1.013637 2.272727,-2.272727 v -4.545456 c 0,-1.25909 -1.013637,-2.272727 -2.272727,-2.272727 z m 15.90021,0 c -2.518184,0 -4.545454,2.027273 -4.545454,4.545453 0,2.518184 2.02727,4.545457 4.545454,4.545457 h 14.772726 c 2.518184,0 4.545454,-2.027273 4.545454,-4.545457 0,-2.51818 -2.02727,-4.545453 -4.545454,-4.545453 z M 33.52273,71.031603 c -1.259093,0 -2.27273,1.013637 -2.27273,2.27273 v 4.545454 c 0,1.25909 1.013637,2.272726 2.27273,2.272726 h 4.545453 c 1.25909,0 2.272727,-1.013636 2.272727,-2.272726 v -4.545454 c 0,-1.259093 -1.013637,-2.27273 -2.272727,-2.27273 z m 15.90021,0 c -2.518184,0 -4.545454,2.027274 -4.545454,4.545457 0,2.51818 2.02727,4.545453 4.545454,4.545453 h 14.772726 c 2.518184,0 4.545454,-2.027273 4.545454,-4.545453 0,-2.518183 -2.02727,-4.545457 -4.545454,-4.545457 z"
     id="Soustraction_11" />
</svg>
