<?xml version="1.0" encoding="UTF-8" standalone="no"?>
<svg
   xmlns:dc="http://purl.org/dc/elements/1.1/"
   xmlns:cc="http://creativecommons.org/ns#"
   xmlns:rdf="http://www.w3.org/1999/02/22-rdf-syntax-ns#"
   xmlns:svg="http://www.w3.org/2000/svg"
   xmlns="http://www.w3.org/2000/svg"
   xmlns:sodipodi="http://sodipodi.sourceforge.net/DTD/sodipodi-0.dtd"
   xmlns:inkscape="http://www.inkscape.org/namespaces/inkscape"
   id="icon-mesure"
   width="100"
   height="100"
   viewBox="0 0 100 100"
   version="1.1"
   sodipodi:docname="uEA1B-mesure.svg"
   inkscape:version="0.92.4 (5da689c313, 2019-01-14)">
  <metadata
     id="metadata8">
    <rdf:RDF>
      <cc:Work
         rdf:about="">
        <dc:format>image/svg+xml</dc:format>
        <dc:type
           rdf:resource="http://purl.org/dc/dcmitype/StillImage" />
        <dc:title></dc:title>
      </cc:Work>
    </rdf:RDF>
  </metadata>
  <defs
     id="defs6" />
  <sodipodi:namedview
     pagecolor="#ffffff"
     bordercolor="#666666"
     borderopacity="1"
     objecttolerance="10"
     gridtolerance="10"
     guidetolerance="10"
     inkscape:pageopacity="0"
     inkscape:pageshadow="2"
     inkscape:window-width="1280"
     inkscape:window-height="971"
     id="namedview4"
     showgrid="false"
     inkscape:zoom="7.8666667"
     inkscape:cx="-8.1991525"
     inkscape:cy="15"
     inkscape:window-x="-8"
     inkscape:window-y="-8"
     inkscape:window-maximized="1"
     inkscape:current-layer="icon-mesure" />
  <path
     d="M 67.839062,96.675926 3.3146703,32.163974 a 11.395125,11.392928 0 0 1 0,-16.066143 L 16.090887,3.3195774 a 11.381629,11.379435 0 0 1 16.06924,0 L 96.689016,67.83603 a 11.404122,11.401924 0 0 1 0,16.066143 l -12.780714,12.77825 a 11.381629,11.379435 0 0 1 -16.06924,0 z M 21.534274,8.7574207 8.7535593,21.535671 a 3.81487,3.8141346 0 0 0 0,5.311903 L 73.156487,91.238086 a 3.9228381,3.9220819 0 0 0 5.312924,0 L 91.376088,78.59027 91.25013,78.464336 a 3.8058729,3.8051393 0 0 0 0,-5.437839 l -15.187507,-15.18458 -6.451087,6.449846 -5.312927,-5.311903 6.45109,-6.449846 -8.097604,-7.970104 -6.577051,6.32391 -5.312927,-5.311903 6.451089,-6.44085 -8.0976,-8.096043 -6.455588,6.440853 -5.321926,-5.311903 6.464586,-6.454343 -8.0976,-8.096044 -6.464587,6.454347 -5.303928,-5.3164 6.451089,-6.449846 L 26.8472,8.7574207 a 3.7878781,3.7871479 0 0 0 -5.312926,0 z m 47.888316,69.5944653 8.943354,-8.946123 5.371408,5.370374 -8.947851,8.946123 z"
     id="path5"
     inkscape:connector-curvature="0"
     style="stroke-width:3.33365464" />
</svg>
