<?xml version="1.0" encoding="UTF-8" standalone="no"?>
<svg
   xmlns:dc="http://purl.org/dc/elements/1.1/"
   xmlns:cc="http://creativecommons.org/ns#"
   xmlns:rdf="http://www.w3.org/1999/02/22-rdf-syntax-ns#"
   xmlns:svg="http://www.w3.org/2000/svg"
   xmlns="http://www.w3.org/2000/svg"
   xmlns:sodipodi="http://sodipodi.sourceforge.net/DTD/sodipodi-0.dtd"
   xmlns:inkscape="http://www.inkscape.org/namespaces/inkscape"
   id="icon_import"
   width="100"
   height="100"
   viewBox="0 0 100 100"
   version="1.1"
   sodipodi:docname="uEA12-import.svg"
   inkscape:version="0.92.4 (5da689c313, 2019-01-14)">
  <metadata
     id="metadata10">
    <rdf:RDF>
      <cc:Work
         rdf:about="">
        <dc:format>image/svg+xml</dc:format>
        <dc:type
           rdf:resource="http://purl.org/dc/dcmitype/StillImage" />
        <dc:title></dc:title>
      </cc:Work>
    </rdf:RDF>
  </metadata>
  <defs
     id="defs8" />
  <sodipodi:namedview
     pagecolor="#ffffff"
     bordercolor="#666666"
     borderopacity="1"
     objecttolerance="10"
     gridtolerance="10"
     guidetolerance="10"
     inkscape:pageopacity="0"
     inkscape:pageshadow="2"
     inkscape:window-width="1280"
     inkscape:window-height="971"
     id="namedview6"
     showgrid="false"
     inkscape:zoom="7.8666667"
     inkscape:cx="-8.1991525"
     inkscape:cy="15"
     inkscape:window-x="-8"
     inkscape:window-y="-8"
     inkscape:window-maximized="1"
     inkscape:current-layer="icon_import" />
  <path
     d="M 50.586327,2.9641036 A 5.5485634,5.5485634 0 0 0 45.258791,8.3421875 V 62.274647 L 26.546705,47.606234 a 5.6313778,5.6313778 0 0 0 -7.794177,0.849167 5.3622311,5.3622311 0 0 0 0.849173,7.622323 l 31.19692,24.464207 31.20703,-24.464207 a 5.3725831,5.3725831 0 0 0 0.859277,-7.64254 5.6313778,5.6313778 0 0 0 -7.794174,-0.849173 L 56.348557,62.274647 V 8.3421875 A 5.5485634,5.5485634 0 0 0 50.586327,2.9641036 Z M 5.4993977,63.406874 A 5.4916288,5.4916288 0 0 0 5.3884904e-6,68.906268 V 91.550825 A 5.4916288,5.4916288 0 0 0 5.489288,97.040108 h 89.031523 a 5.4916288,5.4916288 0 0 0 5.479174,-5.499393 V 69.856531 a 5.4864528,5.4864528 0 0 0 -5.499394,-5.499394 5.4916288,5.4916288 0 0 0 -5.49939,5.499394 v 16.1949 H 10.99879 V 68.906268 A 5.4968044,5.4968044 0 0 0 5.4993977,63.406874 Z"
     id="Fill_1"
     inkscape:connector-curvature="0"
     style="stroke-width:5.17589903" />
</svg>
