<?xml version="1.0" encoding="UTF-8" standalone="no"?>
<svg
   xmlns:dc="http://purl.org/dc/elements/1.1/"
   xmlns:cc="http://creativecommons.org/ns#"
   xmlns:rdf="http://www.w3.org/1999/02/22-rdf-syntax-ns#"
   xmlns:svg="http://www.w3.org/2000/svg"
   xmlns="http://www.w3.org/2000/svg"
   xmlns:sodipodi="http://sodipodi.sourceforge.net/DTD/sodipodi-0.dtd"
   xmlns:inkscape="http://www.inkscape.org/namespaces/inkscape"
   id="icon-lock"
   width="100"
   height="100"
   viewBox="0 0 100 100"
   version="1.1"
   sodipodi:docname="uEA18-lock.svg"
   inkscape:version="0.92.4 (5da689c313, 2019-01-14)">
  <metadata
     id="metadata8">
    <rdf:RDF>
      <cc:Work
         rdf:about="">
        <dc:format>image/svg+xml</dc:format>
        <dc:type
           rdf:resource="http://purl.org/dc/dcmitype/StillImage" />
        <dc:title></dc:title>
      </cc:Work>
    </rdf:RDF>
  </metadata>
  <defs
     id="defs6" />
  <sodipodi:namedview
     pagecolor="#ffffff"
     bordercolor="#666666"
     borderopacity="1"
     objecttolerance="10"
     gridtolerance="10"
     guidetolerance="10"
     inkscape:pageopacity="0"
     inkscape:pageshadow="2"
     inkscape:window-width="1280"
     inkscape:window-height="971"
     id="namedview4"
     showgrid="false"
     inkscape:zoom="7.8666667"
     inkscape:cx="-8.1991525"
     inkscape:cy="15"
     inkscape:window-x="-8"
     inkscape:window-y="-8"
     inkscape:window-maximized="1"
     inkscape:current-layer="icon-lock" />
  <path
     id="Combined_Shape-2"
     data-name="Combined Shape"
     d="M 18.184164,100 A 13.635358,13.635358 0 0 1 4.5488067,86.364649 V 54.548816 A 13.635358,13.635358 0 0 1 18.184164,40.913459 h 4.54512 V 27.278101 a 27.270716,27.270716 0 1 1 54.54143,0 v 13.635358 h 4.545118 A 13.635358,13.635358 0 0 1 95.451193,54.548816 V 86.364649 A 13.635358,13.635358 0 0 1 81.815832,100 Z M 13.639045,54.548816 v 31.815833 a 4.5451194,4.5451194 0 0 0 4.545119,4.545118 h 63.631668 a 4.5451194,4.5451194 0 0 0 4.545125,-4.545118 V 54.548816 A 4.5451194,4.5451194 0 0 0 81.815832,50.003695 H 18.184164 a 4.5451194,4.5451194 0 0 0 -4.545119,4.545121 z M 68.180478,40.913459 V 27.278101 a 18.180478,18.180478 0 0 0 -36.360956,0 v 13.635358 z"
     inkscape:connector-curvature="0"
     style="stroke-width:4.54511929" />
</svg>
