<?xml version="1.0" encoding="UTF-8" standalone="no"?>
<svg
   xmlns:dc="http://purl.org/dc/elements/1.1/"
   xmlns:cc="http://creativecommons.org/ns#"
   xmlns:rdf="http://www.w3.org/1999/02/22-rdf-syntax-ns#"
   xmlns:svg="http://www.w3.org/2000/svg"
   xmlns="http://www.w3.org/2000/svg"
   xmlns:sodipodi="http://sodipodi.sourceforge.net/DTD/sodipodi-0.dtd"
   xmlns:inkscape="http://www.inkscape.org/namespaces/inkscape"
   id="icon_line"
   width="100"
   height="100"
   viewBox="0 0 100 100"
   version="1.1"
   sodipodi:docname="uEA17-line.svg"
   inkscape:version="0.92.4 (5da689c313, 2019-01-14)">
  <metadata
     id="metadata15">
    <rdf:RDF>
      <cc:Work
         rdf:about="">
        <dc:format>image/svg+xml</dc:format>
        <dc:type
           rdf:resource="http://purl.org/dc/dcmitype/StillImage" />
        <dc:title></dc:title>
      </cc:Work>
    </rdf:RDF>
  </metadata>
  <defs
     id="defs13" />
  <sodipodi:namedview
     pagecolor="#ffffff"
     bordercolor="#666666"
     borderopacity="1"
     objecttolerance="10"
     gridtolerance="10"
     guidetolerance="10"
     inkscape:pageopacity="0"
     inkscape:pageshadow="2"
     inkscape:window-width="1280"
     inkscape:window-height="971"
     id="namedview11"
     showgrid="false"
     inkscape:zoom="7.8666667"
     inkscape:cx="-8.1991525"
     inkscape:cy="15"
     inkscape:window-x="-8"
     inkscape:window-y="-8"
     inkscape:window-maximized="1"
     inkscape:current-layer="icon_line" />
  <g
     id="Ligne"
     transform="matrix(4.4440494,0,0,4.4440494,0.01777555,0.00444425)">
    <path
       id="Tracé_29"
       data-name="Tracé 29"
       d="m 15463.625,10468.25 a 2.625,2.625 0 1 1 2.625,-2.624 2.626,2.626 0 0 1 -2.625,2.624 z m 0,-3.25 a 0.626,0.626 0 1 0 0.627,0.626 0.626,0.626 0 0 0 -0.627,-0.626 z"
       transform="translate(-15461.002,-10445.749)"
       inkscape:connector-curvature="0"
       style="fill:#091625" />
    <path
       id="Tracé_28"
       data-name="Tracé 28"
       d="m 15463.625,10468.25 a 2.625,2.625 0 1 1 2.625,-2.624 2.626,2.626 0 0 1 -2.625,2.624 z m 0,-3.25 a 0.626,0.626 0 1 0 0.627,0.626 0.626,0.626 0 0 0 -0.627,-0.626 z"
       transform="translate(-15456.594,-10459.524)"
       inkscape:connector-curvature="0"
       style="fill:#091625" />
    <path
       id="Tracé_31"
       data-name="Tracé 31"
       d="m 15463.625,10468.25 a 2.625,2.625 0 1 1 2.625,-2.624 2.626,2.626 0 0 1 -2.625,2.624 z m 0,-3.25 a 0.626,0.626 0 1 0 0.627,0.626 0.626,0.626 0 0 0 -0.627,-0.626 z"
       transform="translate(-15443.754,-10463.001)"
       inkscape:connector-curvature="0"
       style="fill:#091625" />
    <path
       id="Tracé_30"
       data-name="Tracé 30"
       d="m 15463.625,10468.25 a 2.625,2.625 0 1 1 2.625,-2.624 2.626,2.626 0 0 1 -2.625,2.624 z m 0,-3.25 a 0.626,0.626 0 1 0 0.627,0.626 0.626,0.626 0 0 0 -0.627,-0.626 z"
       transform="translate(-15447.634,-10448.122)"
       inkscape:connector-curvature="0"
       style="fill:#091625" />
    <path
       id="Tracé_24"
       data-name="Tracé 24"
       d="m -12340.652,-9658.875 -1.911,-0.588 3.662,-11.873 1.911,0.588 z"
       transform="translate(12344.647,9677.998)"
       inkscape:connector-curvature="0"
       style="fill:#091625" />
    <path
       id="Tracé_25"
       data-name="Tracé 25"
       d="m -12331.813,-9661.075 -7.476,-9.528 1.572,-1.235 7.476,9.527 z"
       transform="translate(12346.209,9678.178)"
       inkscape:connector-curvature="0"
       style="fill:#091625" />
    <path
       id="Tracé_26"
       data-name="Tracé 26"
       d="m -12332.035,-9661.1 -1.941,-0.483 3.188,-12.771 1.94,0.483 z"
       transform="translate(12349.396,9677.59)"
       inkscape:connector-curvature="0"
       style="fill:#091625" />
  </g>
</svg>
