<?xml version="1.0" encoding="UTF-8" standalone="no"?>
<svg
   xmlns:dc="http://purl.org/dc/elements/1.1/"
   xmlns:cc="http://creativecommons.org/ns#"
   xmlns:rdf="http://www.w3.org/1999/02/22-rdf-syntax-ns#"
   xmlns:svg="http://www.w3.org/2000/svg"
   xmlns="http://www.w3.org/2000/svg"
   xmlns:sodipodi="http://sodipodi.sourceforge.net/DTD/sodipodi-0.dtd"
   xmlns:inkscape="http://www.inkscape.org/namespaces/inkscape"
   id="icon_pencil"
   width="100"
   height="100"
   viewBox="0 0 100 100"
   version="1.1"
   sodipodi:docname="uEA20-pencil.svg"
   inkscape:version="0.92.4 (5da689c313, 2019-01-14)">
  <metadata
     id="metadata12">
    <rdf:RDF>
      <cc:Work
         rdf:about="">
        <dc:format>image/svg+xml</dc:format>
        <dc:type
           rdf:resource="http://purl.org/dc/dcmitype/StillImage" />
        <dc:title></dc:title>
      </cc:Work>
    </rdf:RDF>
  </metadata>
  <defs
     id="defs10" />
  <sodipodi:namedview
     pagecolor="#ffffff"
     bordercolor="#666666"
     borderopacity="1"
     objecttolerance="10"
     gridtolerance="10"
     guidetolerance="10"
     inkscape:pageopacity="0"
     inkscape:pageshadow="2"
     inkscape:window-width="1280"
     inkscape:window-height="971"
     id="namedview8"
     showgrid="false"
     inkscape:zoom="7.8666667"
     inkscape:cx="22.881356"
     inkscape:cy="25.932203"
     inkscape:window-x="-8"
     inkscape:window-y="-8"
     inkscape:window-maximized="1"
     inkscape:current-layer="icon_pencil" />
  <path
     style="fill:#091625;stroke:none;stroke-width:4.56616688"
     d="M 74.896957,0.09072348 A 3.995396,3.995396 0 0 0 72.012825,1.2626045 L 5.3066546,67.968775 a 4.0182272,4.0182272 0 0 0 -1.119799,2.174494 L 0.05271365,95.267131 a 3.9999624,3.9999624 0 0 0 1.11328865,3.470077 4.0045284,4.0045284 0 0 0 3.4375227,1.126307 l 25.306156,-3.951846 a 3.9816976,3.9816976 0 0 0 2.213557,-1.126311 l 66.706171,-66.70617 a 3.995396,3.995396 0 0 0 0,-5.651077 L 77.663902,1.2626045 A 3.995396,3.995396 0 0 0 74.896957,0.09072348 Z M 74.838357,9.7392237 90.352783,25.25365 84.285033,31.314886 68.770607,15.800461 Z M 63.11953,21.451541 78.633955,36.965967 30.834167,84.772272 15.319741,69.257847 Z M 11.250704,76.490968 23.568494,88.802245 8.8483447,91.100437 Z"
     id="Tracé_16"
     inkscape:connector-curvature="0" />
</svg>
