<?xml version="1.0" encoding="UTF-8" standalone="no"?>
<svg
   xmlns:dc="http://purl.org/dc/elements/1.1/"
   xmlns:cc="http://creativecommons.org/ns#"
   xmlns:rdf="http://www.w3.org/1999/02/22-rdf-syntax-ns#"
   xmlns:svg="http://www.w3.org/2000/svg"
   xmlns="http://www.w3.org/2000/svg"
   xmlns:sodipodi="http://sodipodi.sourceforge.net/DTD/sodipodi-0.dtd"
   xmlns:inkscape="http://www.inkscape.org/namespaces/inkscape"
   id="icon-share"
   width="100"
   height="100"
   viewBox="0 0 100 100"
   version="1.1"
   sodipodi:docname="uEA28-share-alt.svg"
   inkscape:version="0.92.4 (5da689c313, 2019-01-14)">
  <metadata
     id="metadata9">
    <rdf:RDF>
      <cc:Work
         rdf:about="">
        <dc:format>image/svg+xml</dc:format>
        <dc:type
           rdf:resource="http://purl.org/dc/dcmitype/StillImage" />
        <dc:title></dc:title>
      </cc:Work>
    </rdf:RDF>
  </metadata>
  <defs
     id="defs7" />
  <sodipodi:namedview
     pagecolor="#ffffff"
     bordercolor="#666666"
     borderopacity="1"
     objecttolerance="10"
     gridtolerance="10"
     guidetolerance="10"
     inkscape:pageopacity="0"
     inkscape:pageshadow="2"
     inkscape:window-width="1280"
     inkscape:window-height="971"
     id="namedview5"
     showgrid="false"
     inkscape:zoom="7.8666667"
     inkscape:cx="-8.1991525"
     inkscape:cy="15"
     inkscape:window-x="-8"
     inkscape:window-y="-8"
     inkscape:window-maximized="1"
     inkscape:current-layer="icon-share" />
  <path
     style="fill:#091625;stroke-width:4.54037857"
     inkscape:connector-curvature="0"
     d="M 59.050144,81.807456 A 18.12065,18.12065 0 0 1 59.73574,76.853903 L 35.62179,62.77873 a 18.161514,18.161514 0 1 1 0,-25.54871 L 59.7312,23.154847 a 18.202377,18.202377 0 1 1 4.585783,7.859396 L 40.207574,45.089417 a 18.211458,18.211458 0 0 1 0,9.870783 l 24.123029,14.075173 a 18.161514,18.161514 0 1 1 -5.280459,12.772083 z m 9.080756,0 a 9.0807569,9.0807569 0 1 0 1.525567,-5.03528 4.5403783,4.5403783 0 0 1 -0.540304,0.908077 9.0217319,9.0217319 0 0 0 -0.985263,4.127203 z M 13.646359,50.024807 a 9.0807569,9.0807569 0 0 0 16.826642,4.731076 l 0.0908,-0.168 0.104433,-0.168 a 9.0807569,9.0807569 0 0 0 0,-8.794713 l -0.104433,-0.168 -0.09533,-0.168 a 9.0807569,9.0807569 0 0 0 -16.822109,4.735637 z m 63.565298,-22.70189 a 9.0807569,9.0807569 0 1 0 -7.959284,-4.708373 l 0.1226,0.195233 0.108967,0.204333 a 9.0807569,9.0807569 0 0 0 7.727723,4.30882 z"
     data-name="Combined Shape"
     id="Combined_Shape-2" />
</svg>
