<?xml version="1.0" encoding="UTF-8" standalone="no"?>
<svg
   xmlns:dc="http://purl.org/dc/elements/1.1/"
   xmlns:cc="http://creativecommons.org/ns#"
   xmlns:rdf="http://www.w3.org/1999/02/22-rdf-syntax-ns#"
   xmlns:svg="http://www.w3.org/2000/svg"
   xmlns="http://www.w3.org/2000/svg"
   xmlns:sodipodi="http://sodipodi.sourceforge.net/DTD/sodipodi-0.dtd"
   xmlns:inkscape="http://www.inkscape.org/namespaces/inkscape"
   id="icon-save"
   width="100"
   height="100"
   viewBox="0 0 100 100"
   version="1.1"
   sodipodi:docname="uEA27-save.svg"
   inkscape:version="0.92.4 (5da689c313, 2019-01-14)">
  <metadata
     id="metadata10">
    <rdf:RDF>
      <cc:Work
         rdf:about="">
        <dc:format>image/svg+xml</dc:format>
        <dc:type
           rdf:resource="http://purl.org/dc/dcmitype/StillImage" />
        <dc:title></dc:title>
      </cc:Work>
    </rdf:RDF>
  </metadata>
  <defs
     id="defs8" />
  <sodipodi:namedview
     pagecolor="#ffffff"
     bordercolor="#666666"
     borderopacity="1"
     objecttolerance="10"
     gridtolerance="10"
     guidetolerance="10"
     inkscape:pageopacity="0"
     inkscape:pageshadow="2"
     inkscape:window-width="1280"
     inkscape:window-height="971"
     id="namedview6"
     showgrid="false"
     inkscape:zoom="7.8666667"
     inkscape:cx="-8.1991525"
     inkscape:cy="15"
     inkscape:window-x="-8"
     inkscape:window-y="-8"
     inkscape:window-maximized="1"
     inkscape:current-layer="icon-save" />
  <path
     d="M 4.545454,1.0379734e-5 A 4.5454536,4.5454536 0 0 0 2.4668549e-7,4.5454637 V 95.454537 A 4.5454536,4.5454536 0 0 0 4.545454,99.99999 h 90.909072 a 4.5454536,4.5454536 0 0 0 4.545453,-4.545453 V 25.381751 A 4.5454536,4.5454536 0 0 0 98.38421,21.892761 L 73.472993,1.0653504 A 4.5454536,4.5454536 0 0 0 70.552186,1.0379734e-5 Z M 9.0909076,9.090917 h 9.5525544 v 25.23082 a 4.5454536,4.5454536 0 0 0 4.545455,4.545453 H 60.111846 A 4.5454536,4.5454536 0 0 0 64.6573,34.321737 V 9.090917 h 4.252486 l 21.999287,18.421517 v 63.396649 h -9.375 V 62.40234 A 4.5454536,4.5454536 0 0 0 76.98862,57.856887 H 23.01136 A 4.5454536,4.5454536 0 0 0 18.465905,62.40234 V 90.909083 H 9.0909076 Z M 27.72549,10.626784 h 27.840903 v 19.1495 H 27.72549 Z m -0.177567,56.312133 h 44.89523 v 23.96129 H 27.547937 Z"
     id="Tracé_8"
     inkscape:connector-curvature="0"
     style="stroke-width:4.54545355" />
</svg>
