<?xml version="1.0" encoding="UTF-8" standalone="no"?>
<svg
   xmlns:dc="http://purl.org/dc/elements/1.1/"
   xmlns:cc="http://creativecommons.org/ns#"
   xmlns:rdf="http://www.w3.org/1999/02/22-rdf-syntax-ns#"
   xmlns:svg="http://www.w3.org/2000/svg"
   xmlns="http://www.w3.org/2000/svg"
   xmlns:sodipodi="http://sodipodi.sourceforge.net/DTD/sodipodi-0.dtd"
   xmlns:inkscape="http://www.inkscape.org/namespaces/inkscape"
   id="icon-support"
   width="100"
   height="100"
   viewBox="0 0 100 100"
   version="1.1"
   sodipodi:docname="uEA2B-support.svg"
   inkscape:version="0.92.4 (5da689c313, 2019-01-14)">
  <metadata
     id="metadata8">
    <rdf:RDF>
      <cc:Work
         rdf:about="">
        <dc:format>image/svg+xml</dc:format>
        <dc:type
           rdf:resource="http://purl.org/dc/dcmitype/StillImage" />
        <dc:title></dc:title>
      </cc:Work>
    </rdf:RDF>
  </metadata>
  <defs
     id="defs6" />
  <sodipodi:namedview
     pagecolor="#ffffff"
     bordercolor="#666666"
     borderopacity="1"
     objecttolerance="10"
     gridtolerance="10"
     guidetolerance="10"
     inkscape:pageopacity="0"
     inkscape:pageshadow="2"
     inkscape:window-width="1280"
     inkscape:window-height="971"
     id="namedview4"
     showgrid="false"
     inkscape:zoom="7.8666667"
     inkscape:cx="-8.1991525"
     inkscape:cy="15"
     inkscape:window-x="-8"
     inkscape:window-y="-8"
     inkscape:window-maximized="1"
     inkscape:current-layer="icon-support" />
  <path
     id="Fill_1"
     data-name="Fill 1"
     d="m 45.659525,100 c -0.54515,0 -0.985463,0 -1.396423,-0.04193 A 10.37043,10.37043 0 0 1 36.249398,83.700016 10.508814,10.508814 0 0 1 44.845992,79.2214 h 5.514403 1.30836 1.312553 a 10.550749,10.550749 0 0 1 8.806267,4.864413 8.5756285,8.5756285 0 0 1 0.788374,1.54739 h 9.204646 0.784177 a 40.005621,40.005621 0 0 0 4.029917,-0.142567 17.985756,17.985756 0 0 0 3.50154,-0.960303 17.059001,17.059001 0 0 0 2.729943,-1.497063 l 0.78837,-0.582894 a 16.354499,16.354499 0 0 0 1.207717,-1.10288 15.096461,15.096461 0 0 0 1.12385,-1.220296 c 0.293533,-0.381604 0.452893,-0.612244 0.603857,-0.838694 a 16.773845,16.773845 0 0 0 1.12804,-1.966733 h -6.935984 -0.75063 A 13.758747,13.758747 0 0 1 76.691139,77.02824 9.0872308,9.0872308 0 0 1 69.939665,68.326806 c 0,-0.356443 0,-0.72547 0,-1.086106 v -0.272567 -20.36345 a 10.483653,10.483653 0 0 1 1.144817,-5.191504 9.1375521,9.1375521 0 0 1 8.122733,-4.575067 h 2.935424 2.792843 2.801234 a 43.222007,43.222007 0 0 0 -1.677384,-5.061533 42.018484,42.018484 0 0 0 -3.12413,-5.870847 c -0.591277,-0.922563 -1.178363,-1.778026 -1.803187,-2.608333 l -0.26,-0.335477 -0.3145,-0.389993 c -0.377416,-0.469667 -0.69612,-0.83869 -1.006436,-1.186747 a 44.660364,44.660364 0 0 0 -4.49539,-4.43249 c -0.285167,-0.230633 -0.578697,-0.47386 -0.87224,-0.7045 l -1.081914,-0.838693 c -0.98127,-0.687727 -1.80738,-1.232877 -2.599946,-1.715127 a 41.158824,41.158824 0 0 0 -5.384404,-2.784457 42.395894,42.395894 0 0 0 -9.846247,-2.6838163 43.507161,43.507161 0 0 0 -5.275373,-0.3187 44.320694,44.320694 0 0 0 -5.308923,0.3187 42.966204,42.966204 0 0 0 -9.930117,2.7341363 42.798467,42.798467 0 0 0 -5.870846,3.115744 c -0.83869,0.528376 -1.677383,1.098686 -2.608333,1.803186 a 0.24322077,0.24322077 0 0 1 -0.04613,0.04193 l -0.280967,0.2013 -0.419343,0.343863 c -0.394187,0.310333 -0.792567,0.645793 -1.182557,1.00224 a 44.530367,44.530367 0 0 0 -4.424092,4.491197 c -0.377412,0.4487 -0.670954,0.81353 -0.922562,1.14062 L 18.293,22.878048 l 0.553537,0.419347 -0.13419,0.1929 c -0.104836,0.142567 -0.209673,0.285167 -0.310316,0.419347 -0.620633,0.87224 -1.18675,1.719316 -1.736093,2.59575 a 43.674901,43.674901 0 0 0 -2.784459,5.396986 41.641071,41.641071 0 0 0 -1.656417,4.939897 h 2.876715 2.95639 c 1.065139,0 2.033829,0 2.96897,0 a 9.0956175,9.0956175 0 0 1 8.697239,6.59212 13.419076,13.419076 0 0 1 0.3145,3.509927 v 19.897977 a 19.315083,19.315083 0 0 1 -0.1845,3.233157 8.9782008,8.9782008 0 0 1 -8.76014,7.2463 H 13.705351 12.950528 A 13.767134,13.767134 0 0 1 9.6460806,77.02822 8.9614268,8.9614268 0 0 1 2.9658967,69.060643 2.9018752,2.9018752 0 0 1 2.886221,68.360333 V 46.629819 c 0,-0.48225 0.029367,-0.993853 0.08387,-1.57255 0.1006434,-2.01286 0.26838,-3.774113 0.5032152,-5.371823 A 46.899671,46.899671 0 0 1 28.780843,5.005522 48.224804,48.224804 0 0 1 59.166665,0.84560856 47.025474,47.025474 0 0 1 92.865319,27.553762 48.744794,48.744794 0 0 1 96.903622,42.838929 c 0.0755,0.77579 0.113234,1.56416 0.150967,2.331564 v 0.02933 c 0.02933,0.490637 0.03773,1.00224 0.03773,1.618677 0,0.838693 0,1.677386 0,2.516076 V 68.360313 A 35.845707,35.845707 0 0 1 96.534592,76.02177 22.531468,22.531468 0 0 1 74.355375,93.575597 H 62.559169 a 10.223659,10.223659 0 0 1 -0.478057,1.031593 10.508814,10.508814 0 0 1 -9.06207,5.350857 h -0.306134 -4.6799 c -0.419346,0 -0.813533,0 -1.16159,0 h -0.373216 z m 0.465473,-12.83199 c -0.6416,0 -1.195136,0.021 -1.677383,0.0671 -0.08387,0 -0.3858,0.09227 -0.721277,0.213866 -0.08387,0.04613 -0.26,0.150967 -0.419346,0.2558 l -0.457087,0.45289 c -0.1258,0.226434 -0.226433,0.419344 -0.335477,0.670954 v 0.03353 c -0.02933,0.104834 -0.0755,0.26 -0.109033,0.419347 -0.03353,0.159367 0,0.4487 0,0.729663 0.025,0.100634 0.09647,0.360637 0.1971,0.64579 a 4.1934614,4.1934614 0 0 0 0.2516,0.419347 l 0.465473,0.465477 a 5.7660094,5.7660094 0 0 0 0.59128,0.306133 h 0.04613 c 0.1216,0.04193 0.301933,0.08387 0.49483,0.1258 0.465473,0.04193 0.96869,0.0629 1.57674,0.0629 0.419346,0 0.838693,0 1.25804,0 0.419346,0 0.83869,0 1.258036,0 h 4.440877 0.142567 0.07967 a 5.3760174,5.3760174 0 0 0 0.838694,-0.226433 4.6757094,4.6757094 0 0 0 0.419343,-0.2474 l 0.230633,-0.226434 c 0.0587,-0.05033 0.159367,-0.146766 0.243234,-0.234833 0.1216,-0.213867 0.213866,-0.419347 0.310333,-0.612247 a 4.1053987,4.1053987 0 0 0 0.1342,-0.51999 6.3195461,6.3195461 0 0 0 0,-0.71708 c -0.04193,-0.150966 -0.117433,-0.419346 -0.1971,-0.65418 l -0.0629,-0.104833 c -0.05453,-0.08807 -0.117433,-0.1971 -0.1929,-0.301934 l -0.104833,-0.109033 -0.104834,-0.109033 -0.2516,-0.2516 c -0.1258,-0.0713 -0.243233,-0.13 -0.356446,-0.1887 l -0.155167,-0.0755 -0.159367,-0.07967 -0.519986,-0.1216 c -0.419347,-0.03773 -0.951917,-0.0545 -1.568357,-0.0545 -0.469667,0 -0.951913,0 -1.421583,0 -0.469667,0 -0.943527,0 -1.488677,0 h -1.25804 c -0.457087,-0.025 -0.930947,-0.03353 -1.400617,-0.03353 z M 21.756796,69.089996 v 0 l 0.662567,0.280967 -0.540956,-0.4487 0.13419,-0.234833 a 0.37321807,0.37321807 0 0 1 0.02097,-0.109034 c 0,-0.04193 0.02517,-0.09227 0.03355,-0.1384 0.02517,-0.419346 0,-0.930946 0,-1.46771 V 66.64102 65.72265 47.271419 c 0,-0.503213 0,-1.086106 0,-1.64803 a 0.36063767,0.36063767 0 0 1 -0.04613,-0.104833 v -0.05033 l -0.18451,-0.306134 0.285157,-0.66676 -0.419346,0.549344 -0.478055,-0.1929 h -6.290194 -1.027398 c -0.348057,0 -0.658374,0 -0.951916,0 -0.419346,0 -0.838692,0 -1.190943,0.04613 l -0.0671,0.02533 -0.167736,0.05453 a 1.8660903,1.8660903 0 0 1 -0.234834,0.142566 l -0.306123,0.41935 c -0.02937,0.637404 -0.04613,1.367067 -0.05032,2.21834 v 0.746437 19.37379 c 0,0.213867 0,0.45289 0.03355,0.746437 v 0 c 0,0 0,0 0.07129,0.1887 a 0.89320728,0.89320728 0 0 1 0.08806,0.13 l 0.08806,0.1384 0.419346,0.2558 v 0 a 0.49482844,0.49482844 0 0 1 0.138383,0.02933 l 0.07968,0.025 h 9.196261 a 2.9899379,2.9899379 0 0 0 0.419346,-0.09227 l 0.2558,-0.167734 z m 56.863336,0.218067 h 0.0629 l 0.142567,0.03773 h 9.29271 a 2.9899379,2.9899379 0 0 0 0.419347,-0.09227 l 0.419346,-0.419347 0.09227,-0.163533 a 0.35644421,0.35644421 0 0 1 0.021,-0.1216 l 0.02933,-0.117434 v -1.870283 q 0,-0.419347 0,-0.838693 V 47.028189 c 0,-0.482246 -0.025,-0.985463 -0.04193,-1.484483 l -0.339686,-0.482243 -0.524184,-0.226434 h -6.29019 -1.019013 c -0.348057,0 -0.662567,0 -0.956107,0 -0.419347,0 -0.838693,0 -1.195137,0.04613 l -0.0755,0.02533 -0.159366,0.05453 -0.109034,0.0713 -0.163533,0.104834 -0.26,0.419346 c 0,0 0,0.021 -0.0587,0.243234 0,0.465473 0,1.010623 0,1.58932 v 0.222266 0.90579 18.451231 c 0,0.53257 0,1.098686 0.025,1.677383 v 0 c 0,0 0,0 0.0713,0.171933 0.025,0.04193 0.100633,0.171934 0.180333,0.293534 l 0.419344,0.26 v 0 z"
     inkscape:connector-curvature="0"
     style="fill:#091625;stroke-width:4.19346142" />
</svg>
