<?xml version="1.0" encoding="UTF-8" standalone="no"?>
<svg
   xmlns:dc="http://purl.org/dc/elements/1.1/"
   xmlns:cc="http://creativecommons.org/ns#"
   xmlns:rdf="http://www.w3.org/1999/02/22-rdf-syntax-ns#"
   xmlns:svg="http://www.w3.org/2000/svg"
   xmlns="http://www.w3.org/2000/svg"
   xmlns:sodipodi="http://sodipodi.sourceforge.net/DTD/sodipodi-0.dtd"
   xmlns:inkscape="http://www.inkscape.org/namespaces/inkscape"
   id="icon_tag"
   width="100"
   height="100"
   viewBox="0 0 100 100"
   version="1.1"
   sodipodi:docname="uEA2C-tag.svg"
   inkscape:version="0.92.4 (5da689c313, 2019-01-14)">
  <metadata
     id="metadata10">
    <rdf:RDF>
      <cc:Work
         rdf:about="">
        <dc:format>image/svg+xml</dc:format>
        <dc:type
           rdf:resource="http://purl.org/dc/dcmitype/StillImage" />
        <dc:title></dc:title>
      </cc:Work>
    </rdf:RDF>
  </metadata>
  <defs
     id="defs8" />
  <sodipodi:namedview
     pagecolor="#ffffff"
     bordercolor="#666666"
     borderopacity="1"
     objecttolerance="10"
     gridtolerance="10"
     guidetolerance="10"
     inkscape:pageopacity="0"
     inkscape:pageshadow="2"
     inkscape:window-width="1280"
     inkscape:window-height="971"
     id="namedview6"
     showgrid="false"
     inkscape:zoom="7.9643629"
     inkscape:cx="-7.9140762"
     inkscape:cy="14.816"
     inkscape:window-x="-8"
     inkscape:window-y="-8"
     inkscape:window-maximized="1"
     inkscape:current-layer="icon_tag" />
  <path
     style="fill:#091625;stroke-width:4.54053974"
     d="M 56.890465,4.5059248e-4 A 4.3861616,4.3861616 0 0 0 53.7245,1.2863466 L 1.2865835,53.724261 a 4.3861616,4.3861616 0 0 0 0,6.207768 L 40.085146,98.730588 a 4.3861616,4.3861616 0 0 0 6.190031,-0.01767 L 98.704224,46.292674 a 4.3861616,4.3861616 0 0 0 1.294763,-3.228038 L 98.837248,5.4012105 A 4.3997831,4.3997831 0 0 0 94.58936,1.1444518 L 56.934802,4.5059248e-4 a 4.3861616,4.3861616 0 0 0 -0.04434,0 z M 58.584295,8.8509545 90.208447,9.808724 91.175086,41.43288 43.189026,89.418933 10.598238,56.828148 Z m 17.26647,7.2010145 a 8.2319989,8.2319989 0 0 0 -5.941722,2.412161 8.2319989,8.2319989 0 0 0 0,11.644001 8.2319989,8.2319989 0 1 0 5.941722,-14.056162 z m -0.177368,5.498311 a 2.7243239,2.7243239 0 0 1 1.968752,0.798141 2.7243239,2.7243239 0 1 1 -3.848818,0 2.7243239,2.7243239 0 0 1 1.880066,-0.798141 z"
     id="Tracé_45"
     inkscape:connector-curvature="0" />
</svg>
