<?xml version="1.0" encoding="UTF-8" standalone="no"?>
<svg
   xmlns:dc="http://purl.org/dc/elements/1.1/"
   xmlns:cc="http://creativecommons.org/ns#"
   xmlns:rdf="http://www.w3.org/1999/02/22-rdf-syntax-ns#"
   xmlns:svg="http://www.w3.org/2000/svg"
   xmlns="http://www.w3.org/2000/svg"
   xmlns:sodipodi="http://sodipodi.sourceforge.net/DTD/sodipodi-0.dtd"
   xmlns:inkscape="http://www.inkscape.org/namespaces/inkscape"
   id="icon-reset"
   width="100"
   height="100"
   viewBox="0 0 100 100"
   version="1.1"
   sodipodi:docname="uEA26-reset.svg"
   inkscape:version="0.92.4 (5da689c313, 2019-01-14)">
  <defs
     id="defs6" />
  <metadata
     id="metadata12">
    <rdf:RDF>
      <cc:Work
         rdf:about="">
        <dc:format>image/svg+xml</dc:format>
        <dc:type
           rdf:resource="http://purl.org/dc/dcmitype/StillImage" />
        <dc:title></dc:title>
      </cc:Work>
    </rdf:RDF>
  </metadata>
  <sodipodi:namedview
     pagecolor="#ffffff"
     bordercolor="#666666"
     borderopacity="1"
     objecttolerance="10"
     gridtolerance="10"
     guidetolerance="10"
     inkscape:pageopacity="0"
     inkscape:pageshadow="2"
     inkscape:window-width="1280"
     inkscape:window-height="971"
     id="namedview10"
     showgrid="false"
     inkscape:zoom="7.8666667"
     inkscape:cx="-8.1991525"
     inkscape:cy="15"
     inkscape:window-x="-8"
     inkscape:window-y="-8"
     inkscape:window-maximized="1"
     inkscape:current-layer="icon-reset" />
  <path
     style="fill:#091625;stroke-width:5.00055313"
     d="M 52.861707,2.1703423 A 43.504816,43.504816 0 0 0 21.451983,14.886592 L 8.6966658,26.880107 v -16.03693 a 4.3504816,4.3504816 0 1 0 -8.69236813,0 V 36.92028 a 4.400487,4.400487 0 0 0 0.31253373,1.591972 v 0.04883 a 4.3504816,4.3504816 0 0 0 4.0336495,2.724917 H 30.447121 a 4.3504816,4.3504816 0 0 0 0,-8.692368 H 15.328259 L 27.507341,21.166583 a 34.783848,34.783848 0 0 1 57.506364,12.87252 4.3454809,4.3454809 0 1 0 8.184501,-2.90071 A 43.504816,43.504816 0 0 0 52.861707,2.1703423 Z M 69.533479,58.690271 a 4.3511114,4.3511114 0 1 0 0.03907,8.702135 H 84.681641 L 72.512326,78.829214 a 34.783848,34.783848 0 0 1 -57.506365,-12.89205 4.3504816,4.3504816 0 0 0 -8.194266,2.890944 43.504816,43.504816 0 0 0 31.39996,27.903479 l -0.01967,0.02933 A 43.474813,43.474813 0 0 0 78.548017,85.089702 L 91.303333,73.086423 V 89.13312 a 4.3504816,4.3504816 0 1 0 8.692371,0 V 63.046217 a 4.4254897,4.4254897 0 0 0 -0.293,-1.582202 v -0.04883 a 4.3554819,4.3554819 0 0 0 -4.033652,-2.72491 H 69.572415 a 4.3504816,4.3504816 0 0 0 -0.03907,0 z"
     id="Combined_Shape-2"
     inkscape:connector-curvature="0" />
</svg>
