<?xml version="1.0" encoding="UTF-8" standalone="no"?>
<svg
   xmlns:dc="http://purl.org/dc/elements/1.1/"
   xmlns:cc="http://creativecommons.org/ns#"
   xmlns:rdf="http://www.w3.org/1999/02/22-rdf-syntax-ns#"
   xmlns:svg="http://www.w3.org/2000/svg"
   xmlns="http://www.w3.org/2000/svg"
   xmlns:sodipodi="http://sodipodi.sourceforge.net/DTD/sodipodi-0.dtd"
   xmlns:inkscape="http://www.inkscape.org/namespaces/inkscape"
   id="icon-user"
   width="100"
   height="100"
   viewBox="0 0 100 100"
   version="1.1"
   sodipodi:docname="uEA24-user-alt.svg"
   inkscape:version="0.92.4 (5da689c313, 2019-01-14)">
  <defs
     id="defs6" />
  <metadata
     id="metadata16">
    <rdf:RDF>
      <cc:Work
         rdf:about="">
        <dc:format>image/svg+xml</dc:format>
        <dc:type
           rdf:resource="http://purl.org/dc/dcmitype/StillImage" />
        <dc:title></dc:title>
      </cc:Work>
    </rdf:RDF>
  </metadata>
  <sodipodi:namedview
     pagecolor="#ffffff"
     bordercolor="#666666"
     borderopacity="1"
     objecttolerance="10"
     gridtolerance="10"
     guidetolerance="10"
     inkscape:pageopacity="0"
     inkscape:pageshadow="2"
     inkscape:window-width="1280"
     inkscape:window-height="971"
     id="namedview14"
     showgrid="false"
     inkscape:zoom="7.8666667"
     inkscape:cx="-8.1991525"
     inkscape:cy="15"
     inkscape:window-x="-8"
     inkscape:window-y="-8"
     inkscape:window-maximized="1"
     inkscape:current-layer="icon-user" />
  <path
     style="fill:#091625;stroke-width:3.8109374"
     d="M 34.574789,8.2893611 A 20.842016,20.842016 0 0 0 35.445646,49.9566 20.864881,20.864881 0 0 0 56.286709,29.115537 20.842016,20.842016 0 0 0 34.574789,8.2893611 Z m 0.870857,8.3215399 A 12.518929,12.518929 0 0 1 47.950282,29.115537 12.507496,12.507496 0 1 1 35.445646,16.610901 Z m 60.141352,16.71751 a 4.1691652,4.1691652 0 0 0 -2.66468,1.176029 L 79.204435,48.222327 73.808092,42.840864 a 4.1691652,4.1691652 0 0 0 -5.89505,5.895049 l 8.336426,8.336423 a 4.1691652,4.1691652 0 0 0 5.895047,0 L 98.817368,40.399487 a 4.1691652,4.1691652 0 0 0 -3.23037,-7.071076 z M 20.842016,58.293026 A 20.864881,20.864881 0 0 0 9.5269667e-4,79.134089 v 8.336423 a 4.1691652,4.1691652 0 1 0 8.33642500333,0 V 79.134089 A 12.518929,12.518929 0 0 1 20.842016,66.62945 h 29.170046 a 12.518929,12.518929 0 0 1 12.504637,12.504639 v 8.336423 a 4.1920309,4.1920309 0 0 0 4.175656,4.168213 4.1920309,4.1920309 0 0 0 4.175653,-4.168213 V 79.134089 A 20.864881,20.864881 0 0 0 50.026946,58.293026 Z"
     id="Combined_Shape-2"
     inkscape:connector-curvature="0" />
</svg>
