<?xml version="1.0" encoding="UTF-8" standalone="no"?>
<svg
   id="icon-shared"
   width="100"
   height="100"
   viewBox="0 0 100 100"
   version="1.1"
   sodipodi:docname="uEA3C-shared.svg"
   inkscape:version="1.1.1 (3bf5ae0d25, 2021-09-20)"
   xmlns:inkscape="http://www.inkscape.org/namespaces/inkscape"
   xmlns:sodipodi="http://sodipodi.sourceforge.net/DTD/sodipodi-0.dtd"
   xmlns="http://www.w3.org/2000/svg"
   xmlns:svg="http://www.w3.org/2000/svg">
  <sodipodi:namedview
     id="namedview14"
     pagecolor="#ffffff"
     bordercolor="#cccccc"
     borderopacity="1"
     inkscape:pageshadow="0"
     inkscape:pageopacity="1"
     inkscape:pagecheckerboard="0"
     showgrid="false"
     inkscape:zoom="6.6333333"
     inkscape:cx="-2.4874372"
     inkscape:cy="38.517588"
     inkscape:window-width="2880"
     inkscape:window-height="1721"
     inkscape:window-x="1909"
     inkscape:window-y="3"
     inkscape:window-maximized="1"
     inkscape:current-layer="icon-shared" />
  <defs
     id="defs4" />
  <path
     id="Combined_Shape-4"
     d="M 19.254252,19.569187 A 12.792718,12.792718 0 0 0 21.754251,44.910076 12.807264,12.807264 0 0 0 34.545435,32.111791 12.792718,12.792718 0 0 0 19.254252,19.569187 Z m 56.498539,0 A 12.792718,12.792718 0 0 0 78.252789,44.910076 12.807264,12.807264 0 0 0 91.043973,32.111791 12.792718,12.792718 0 0 0 75.752791,19.569187 Z m -53.99854,4.865053 a 7.6872673,7.6872673 0 0 1 7.670449,7.684654 7.6763582,7.6763582 0 1 1 -7.670449,-7.677552 z m 56.498538,0 a 7.6872673,7.6872673 0 0 1 7.670449,7.684654 7.6763582,7.6763582 0 1 1 -7.670449,-7.677552 z M 49.126392,29.533668 A 12.792718,12.792718 0 0 0 49.999969,55.087629 12.807264,12.807264 0 0 0 62.798255,42.296441 12.792718,12.792718 0 0 0 49.126392,29.533668 Z m 0.873577,5.085222 A 7.6872673,7.6872673 0 0 1 57.67752,42.296441 7.6763582,7.6763582 0 1 1 49.999969,34.61889 Z M 12.798291,50.023708 A 12.8109,12.8109 0 0 0 4.5005084e-6,62.821998 v 5.127836 A 2.5454527,2.5454527 0 0 0 2.5426165,70.499549 2.5454527,2.5454527 0 0 0 5.1136372,67.942732 v -5.120734 a 7.6872673,7.6872673 0 0 1 7.6846538,-7.677551 h 17.904817 a 7.6872673,7.6872673 0 0 1 7.350848,5.461643 12.807264,12.807264 0 0 0 -9.801131,12.393457 v 5.120734 a 2.55818,2.55818 0 0 0 5.113632,0 v -5.120734 a 7.6872673,7.6872673 0 0 1 7.677551,-7.670449 h 17.919024 a 7.6836309,7.6836309 0 0 1 7.684653,7.670449 v 5.127836 a 2.5454527,2.5454527 0 0 0 2.542612,2.549715 2.5454527,2.5454527 0 0 0 2.563919,-2.556817 v -5.120734 a 12.807264,12.807264 0 0 0 -9.786924,-12.386355 7.6872673,7.6872673 0 0 1 7.32954,-5.468745 h 17.904816 a 7.6872673,7.6872673 0 0 1 7.691755,7.677551 v 5.127836 a 2.5454527,2.5454527 0 0 0 2.549714,2.549715 2.5454527,2.5454527 0 0 0 2.556815,-2.563919 V 62.821998 A 12.8109,12.8109 0 0 0 87.201648,50.023708 H 69.296832 A 12.8109,12.8109 0 0 0 56.782634,60.208363 H 43.217305 A 12.8109,12.8109 0 0 0 30.703108,50.023708 Z"
     style="stroke-width:3.63636" />
</svg>
