<?xml version="1.0" encoding="UTF-8" standalone="no"?>
<svg
   id="icon_import"
   width="100"
   height="100"
   viewBox="0 0 100 100"
   version="1.1"
   sodipodi:docname="disconnect.svg"
   inkscape:version="1.1.1 (3bf5ae0d25, 2021-09-20)"
   xmlns:inkscape="http://www.inkscape.org/namespaces/inkscape"
   xmlns:sodipodi="http://sodipodi.sourceforge.net/DTD/sodipodi-0.dtd"
   xmlns="http://www.w3.org/2000/svg"
   xmlns:svg="http://www.w3.org/2000/svg"
   xmlns:rdf="http://www.w3.org/1999/02/22-rdf-syntax-ns#"
   xmlns:cc="http://creativecommons.org/ns#"
   xmlns:dc="http://purl.org/dc/elements/1.1/">
  <metadata
     id="metadata10">
    <rdf:RDF>
      <cc:Work
         rdf:about="">
        <dc:format>image/svg+xml</dc:format>
        <dc:type
           rdf:resource="http://purl.org/dc/dcmitype/StillImage" />
        <dc:title />
      </cc:Work>
    </rdf:RDF>
  </metadata>
  <defs
     id="defs8" />
  <sodipodi:namedview
     pagecolor="#ffffff"
     bordercolor="#666666"
     borderopacity="1"
     objecttolerance="10"
     gridtolerance="10"
     guidetolerance="10"
     inkscape:pageopacity="0"
     inkscape:pageshadow="2"
     inkscape:window-width="2880"
     inkscape:window-height="1721"
     id="namedview6"
     showgrid="false"
     inkscape:zoom="7.8666667"
     inkscape:cx="-8.0720339"
     inkscape:cy="15.063559"
     inkscape:window-x="1909"
     inkscape:window-y="3"
     inkscape:window-maximized="1"
     inkscape:current-layer="icon_import"
     inkscape:pagecheckerboard="0" />
  <path
     style="stroke-width:5.1759"
     d="M 33.633234,5.4993974 A 5.4916288,5.4916288 0 0 0 28.13384,5.0456844e-6 H 5.489283 A 5.4916288,5.4916288 0 0 0 0,5.4892877 V 94.520811 a 5.4916288,5.4916288 0 0 0 5.499393,5.479174 h 21.684184 a 5.4864528,5.4864528 0 0 0 5.499394,-5.499394 5.4916288,5.4916288 0 0 0 -5.499394,-5.49939 h -16.1949 V 10.99879 H 28.13384 a 5.4968044,5.4968044 0 0 0 5.499394,-5.4993926 z"
     id="path824" />
  <path
     style="stroke-width:5.1759"
     d="m 22.422173,50.586327 a 5.5485634,5.5485634 0 0 1 5.378084,-5.327536 H 81.732716 L 67.064303,26.546705 a 5.6313778,5.6313778 0 0 1 0.849167,-7.794177 5.3622311,5.3622311 0 0 1 7.622323,0.849173 L 100,50.798621 75.535793,82.005651 a 5.3725831,5.3725831 0 0 1 -7.64254,0.859277 5.6313778,5.6313778 0 0 1 -0.849173,-7.794174 L 81.732716,56.348557 H 27.800257 a 5.5485634,5.5485634 0 0 1 -5.378084,-5.76223 z"
     id="Fill_1" />
</svg>
