<?xml version="1.0" encoding="UTF-8" standalone="no"?>
<svg
   id="icon-step"
   width="100"
   height="100"
   viewBox="0 0 100 100"
   version="1.1"
   sodipodi:docname="icon-step.svg"
   inkscape:version="1.1.1 (3bf5ae0d25, 2021-09-20)"
   xmlns:inkscape="http://www.inkscape.org/namespaces/inkscape"
   xmlns:sodipodi="http://sodipodi.sourceforge.net/DTD/sodipodi-0.dtd"
   xmlns="http://www.w3.org/2000/svg"
   xmlns:svg="http://www.w3.org/2000/svg">
  <defs
     id="defs14" />
  <sodipodi:namedview
     id="namedview12"
     pagecolor="#ffffff"
     bordercolor="#cccccc"
     borderopacity="1"
     inkscape:pageshadow="0"
     inkscape:pageopacity="1"
     inkscape:pagecheckerboard="0"
     showgrid="false"
     inkscape:zoom="9.38095"
     inkscape:cx="39.92133"
     inkscape:cy="70.941643"
     inkscape:window-width="2880"
     inkscape:window-height="1721"
     inkscape:window-x="1909"
     inkscape:window-y="3"
     inkscape:window-maximized="1"
     inkscape:current-layer="icon-step" />
  <rect
     id="Rectangle_131"
     data-name="Rectangle 131"
     width="30"
     height="30"
     fill="none"
     x="0"
     y="0" />
  <path
     id="Soustraction_18"
     style="stroke-width:4.60385"
     d="M 15.0625 6.1308594 A 12.946012 12.946012 0 0 0 16.914062 31.890625 A 12.959823 12.959823 0 0 0 28.902344 23.714844 L 81.634766 23.714844 A 12.370531 12.370531 0 0 1 86.271484 25.123047 A 9.3365975 9.3365975 0 0 1 90.732422 34.068359 A 9.4609013 9.4609013 0 0 1 86.492188 42.945312 A 11.859504 11.859504 0 0 1 81.570312 44.546875 L 61.708984 44.537109 A 12.950616 12.950616 0 0 0 38.527344 44.523438 L 18.736328 44.513672 L 18.556641 44.513672 L 18.244141 44.513672 A 18.682403 18.682403 0 0 0 5.8789062 49.292969 A 20.335183 20.335183 0 0 0 0.037109375 64.625 A 20.947494 20.947494 0 0 0 5.5605469 80.070312 A 19.524906 19.524906 0 0 0 18.630859 85.664062 L 62.375 85.664062 A 12.950616 12.950616 0 0 0 74.439453 94.001953 A 12.95522 12.95522 0 0 0 86.546875 85.664062 L 93.867188 85.664062 A 4.603845 4.603845 0 0 0 93.867188 76.455078 L 86.523438 76.455078 A 12.950616 12.950616 0 0 0 62.361328 76.455078 L 18.685547 76.455078 A 10.837451 10.837451 0 0 1 13.667969 74.849609 A 10.869678 10.869678 0 0 1 9.2441406 64.689453 A 11.537235 11.537235 0 0 1 12.111328 56.111328 A 9.4562974 9.4562974 0 0 1 18.335938 53.773438 L 18.392578 53.773438 L 37.634766 53.773438 A 12.950616 12.950616 0 0 0 50.001953 62.949219 A 12.969031 12.969031 0 0 0 62.367188 53.773438 L 81.716797 53.773438 L 81.896484 53.773438 A 21.034967 21.034967 0 0 0 90.824219 51.103516 A 18.304887 18.304887 0 0 0 99.962891 34.068359 A 18.41538 18.41538 0 0 0 90.791016 17.107422 A 21.232933 21.232933 0 0 0 81.841797 14.505859 L 28.884766 14.505859 A 12.946012 12.946012 0 0 0 15.0625 6.1308594 z M 16.886719 14.355469 A 4.6038449 4.6038449 0 0 1 21.490234 18.958984 A 4.6038449 4.6038449 0 1 1 16.886719 14.355469 z M 46.601562 46.949219 A 4.6038449 4.6038449 0 1 1 52.652344 53.746094 A 4.6038449 4.6038449 0 0 1 47.320312 53.722656 A 4.6038449 4.6038449 0 0 1 46.560547 46.998047 A 4.6038449 4.6038449 0 0 1 46.601562 46.949219 z M 74.439453 76.455078 A 4.6038449 4.6038449 0 0 1 74.443359 76.455078 A 4.6038916 4.6038916 0 0 1 74.445312 76.455078 A 4.6038916 4.6038916 0 0 1 76.378906 76.888672 A 4.6038449 4.6038449 0 0 1 76.5 76.947266 A 4.6038916 4.6038916 0 0 1 77.966797 78.107422 A 4.6038449 4.6038449 0 0 1 78.09375 78.263672 A 4.6038916 4.6038916 0 0 1 78.896484 79.914062 A 4.6038449 4.6038449 0 0 1 78.947266 80.146484 A 4.6038916 4.6038916 0 0 1 78.955078 81.761719 A 4.6038449 4.6038449 0 0 1 78.904297 82.175781 A 4.6038916 4.6038916 0 0 1 78.199219 83.65625 A 4.6038449 4.6038449 0 0 1 77.931641 84.03125 A 4.6038916 4.6038916 0 0 1 76.646484 85.066406 A 4.6038449 4.6038449 0 0 1 76.275391 85.246094 A 4.6038916 4.6038916 0 0 1 74.591797 85.638672 A 4.6038449 4.6038449 0 0 1 73.902344 85.611328 A 4.6060566 4.6060566 0 0 1 72.566406 85.261719 A 4.6038449 4.6038449 0 0 1 72.949219 76.738281 A 4.6060566 4.6060566 0 0 1 74.308594 76.470703 A 4.6038449 4.6038449 0 0 1 74.439453 76.455078 z " />
</svg>
