<?xml version="1.0" encoding="UTF-8" standalone="no"?>
<svg
   id="icon_formatting"
   width="100"
   height="100"
   viewBox="0 0 100 100"
   version="1.1"
   sodipodi:docname="icon-formatting.svg"
   inkscape:version="1.1.1 (3bf5ae0d25, 2021-09-20)"
   xmlns:inkscape="http://www.inkscape.org/namespaces/inkscape"
   xmlns:sodipodi="http://sodipodi.sourceforge.net/DTD/sodipodi-0.dtd"
   xmlns="http://www.w3.org/2000/svg"
   xmlns:svg="http://www.w3.org/2000/svg">
  <defs
     id="defs11" />
  <sodipodi:namedview
     id="namedview9"
     pagecolor="#ffffff"
     bordercolor="#cccccc"
     borderopacity="1"
     inkscape:pageshadow="0"
     inkscape:pageopacity="1"
     inkscape:pagecheckerboard="0"
     showgrid="false"
     inkscape:zoom="6.6333333"
     inkscape:cx="67.311558"
     inkscape:cy="56.005025"
     inkscape:window-width="2880"
     inkscape:window-height="1721"
     inkscape:window-x="1909"
     inkscape:window-y="3"
     inkscape:window-maximized="1"
     inkscape:current-layer="icon_formatting" />
  <path
     id="Soustraction_13"
     d="M 22.373877,0.13961649 A 11.364102,11.364102 0 0 0 16.120136,3.319187 L 3.3491533,16.098954 a 11.355108,11.355108 0 0 0 0,16.064738 L 22.883311,51.69785 6.0368569,68.544301 A 3.9574236,3.9574236 0 0 0 4.9301557,70.687439 L 0.86346724,95.43012 a 3.9394354,3.9394354 0 0 0 1.08913466,3.41672 3.9439324,3.9439324 0 0 0 3.3903707,1.1067 L 30.261319,96.062521 a 3.9214471,3.9214471 0 0 0 0.570917,-0.18447 l 0.009,0.009 0.01754,-0.01754 a 3.9214471,3.9214471 0 0 0 1.589782,-0.913468 L 49.295007,78.109588 67.854213,96.66879 a 11.242681,11.242681 0 0 0 8.019193,3.32889 11.242681,11.242681 0 0 0 8.02798,-3.31132 L 96.672365,83.89781 a 11.418067,11.418067 0 0 0 0,-16.073522 L 78.13073,49.282648 98.147965,29.265405 a 3.9349383,3.9349383 0 0 0 0,-5.568638 L 77.296131,2.8448866 a 3.9349383,3.9349383 0 0 0 -5.568643,0 L 51.719033,22.862129 32.176092,3.319187 A 11.364102,11.364102 0 0 0 22.373877,0.13961649 Z m 1.835719,7.50975911 a 3.8494939,3.8494939 0 0 1 2.670137,1.106702 l 3.530903,3.5396884 -6.446974,6.464541 5.287574,5.313923 6.473325,-6.464541 8.089459,8.098244 -6.464541,6.455759 2.538386,2.529603 L 28.249936,46.322441 8.7860432,26.867334 a 3.8449968,3.8449968 0 0 1 0,-5.340274 L 21.557026,8.7385106 a 3.795529,3.795529 0 0 1 2.65257,-1.089135 z M 74.51181,11.197847 89.794831,26.472083 83.822152,32.453542 68.539135,17.170521 Z M 62.979279,22.739162 78.253513,38.013398 31.174787,85.092124 15.900553,69.81789 Z m 13.087182,35.107027 15.186402,15.168836 a 3.8090203,3.8090203 0 0 1 1.159404,2.705273 3.9349383,3.9349383 0 0 1 -1.159404,2.731616 l 0.131764,0.105411 -12.902735,12.665582 a 3.9484295,3.9484295 0 0 1 -5.31392,0 l -18.497736,-18.488949 11.69063,-11.69063 3.276189,3.267402 z m 2.336368,11.558883 -8.959009,8.950227 5.366622,5.349056 h 0.01754 l 8.915122,-8.932661 z M 11.895348,76.941181 24.025146,89.070981 9.5238442,91.3283 Z"
     style="stroke-width:4.49707" />
  <rect
     id="Rectangle_117"
     data-name="Rectangle 117"
     width="30"
     height="30"
     fill="none"
     x="0"
     y="0" />
</svg>
