<?xml version="1.0" encoding="UTF-8" standalone="no"?>
<svg
   id="icon-storymap"
   width="100"
   height="100"
   viewBox="0 0 100 100"
   version="1.1"
   sodipodi:docname="icon-storymap.svg"
   inkscape:version="1.1.1 (3bf5ae0d25, 2021-09-20)"
   xmlns:inkscape="http://www.inkscape.org/namespaces/inkscape"
   xmlns:sodipodi="http://sodipodi.sourceforge.net/DTD/sodipodi-0.dtd"
   xmlns="http://www.w3.org/2000/svg"
   xmlns:svg="http://www.w3.org/2000/svg">
  <defs
     id="defs10" />
  <sodipodi:namedview
     id="namedview8"
     pagecolor="#ffffff"
     bordercolor="#cccccc"
     borderopacity="1"
     inkscape:pageshadow="0"
     inkscape:pageopacity="1"
     inkscape:pagecheckerboard="0"
     showgrid="false"
     inkscape:zoom="6.6333333"
     inkscape:cx="26.758794"
     inkscape:cy="90.226131"
     inkscape:window-width="2880"
     inkscape:window-height="1721"
     inkscape:window-x="1909"
     inkscape:window-y="3"
     inkscape:window-maximized="1"
     inkscape:current-layer="icon-storymap" />
  <path
     id="Combined_Shape"
     style="stroke-width:3.80938"
     d="M 66.667969 16.673828 A 38.703288 38.703288 0 0 0 39.599609 26.628906 C 37.568796 26.353348 35.475635 26.201172 33.332031 26.201172 C 14.917495 26.201172 0 36.840744 0 50.009766 A 22.166775 22.166775 0 0 0 12.570312 68.650391 A 23.618148 23.618148 0 0 1 5.8046875 79.734375 C 5.2447088 80.401017 4.6141217 80.961133 4.8007812 81.890625 L 4.8007812 81.929688 A 1.7294579 1.7294579 0 0 0 6.4003906 83.341797 L 6.5859375 83.341797 A 30.547408 30.547408 0 0 0 10.826172 82.523438 A 40.809874 40.809874 0 0 0 27.9375 73.521484 A 51.281856 51.281856 0 0 0 33.332031 73.818359 C 44.513579 73.818359 54.397434 69.891391 60.443359 63.861328 A 47.308674 47.308674 0 0 0 66.667969 64.28125 A 51.857072 51.857072 0 0 0 72.0625 63.994141 A 40.585121 40.585121 0 0 0 89.169922 72.984375 A 29.035084 29.035084 0 0 0 93.402344 73.816406 L 93.587891 73.816406 A 1.7142204 1.7142204 0 0 0 95.199219 72.417969 L 95.199219 72.367188 A 2.1332521 2.1332521 0 0 0 94.4375 70.498047 L 94.199219 70.214844 C 93.894469 69.872 93.581707 69.534154 93.261719 69.1875 A 21.656318 21.656318 0 0 1 87.429688 59.138672 A 22.056303 22.056303 0 0 0 100 40.494141 C 100 27.363213 85.044411 16.673828 66.667969 16.673828 z M 66.652344 21.447266 C 82.141278 21.447266 95.222656 30.166915 95.222656 40.494141 A 17.47362 17.47362 0 0 1 85.074219 54.970703 L 81.822266 56.802734 L 82.837891 60.378906 A 26.539941 26.539941 0 0 0 85.445312 66.783203 A 37.038589 37.038589 0 0 1 75.205078 60.421875 L 73.617188 59.003906 L 71.490234 59.222656 A 42.257438 42.257438 0 0 1 66.65625 59.527344 C 65.759264 59.527344 64.854873 59.49166 63.953125 59.431641 C 65.694564 56.543375 66.664062 53.35851 66.664062 50.009766 C 66.664062 39.922143 57.906385 31.325462 45.533203 27.851562 A 35.99101 35.99101 0 0 1 66.652344 21.447266 z M 33.332031 30.962891 L 33.320312 30.966797 C 48.79401 30.966797 61.890625 39.671209 61.890625 50.013672 C 61.890625 60.356135 48.79401 69.060547 33.320312 69.060547 A 42.18506 42.18506 0 0 1 28.482422 68.763672 L 26.361328 68.539062 L 24.761719 69.953125 A 36.867167 36.867167 0 0 1 14.537109 76.314453 A 26.810407 26.810407 0 0 0 17.142578 69.914062 L 18.15625 66.345703 L 14.917969 64.486328 A 17.462192 17.462192 0 0 1 4.7617188 50.009766 C 4.7617188 39.667303 17.858335 30.962891 33.332031 30.962891 z " />
</svg>
