<?xml version="1.0" encoding="UTF-8" standalone="no"?>
<svg
   id="icon-add-point"
   width="100"
   height="100"
   viewBox="0 0 100 100"
   version="1.1"
   sodipodi:docname="uEA47-add-point.svg"
   inkscape:version="1.1.1 (3bf5ae0d25, 2021-09-20)"
   xmlns:inkscape="http://www.inkscape.org/namespaces/inkscape"
   xmlns:sodipodi="http://sodipodi.sourceforge.net/DTD/sodipodi-0.dtd"
   xmlns="http://www.w3.org/2000/svg"
   xmlns:svg="http://www.w3.org/2000/svg">
  <sodipodi:namedview
     id="namedview19"
     pagecolor="#ffffff"
     bordercolor="#cccccc"
     borderopacity="1"
     inkscape:pageshadow="0"
     inkscape:pageopacity="1"
     inkscape:pagecheckerboard="0"
     showgrid="false"
     inkscape:zoom="3.3166667"
     inkscape:cx="-137.03517"
     inkscape:cy="136.43216"
     inkscape:window-width="2880"
     inkscape:window-height="1721"
     inkscape:window-x="1909"
     inkscape:window-y="3"
     inkscape:window-maximized="1"
     inkscape:current-layer="Mapmaker" />
  <defs
     id="defs5" />
  <rect
     id="Rectangle_173"
     data-name="Rectangle 173"
     width="30"
     height="30"
     fill="none"
     x="0"
     y="0" />
  <g
     id="icon"
     transform="translate(4.375,4.5)">
    <g
       id="Mapmaker">
      <path
         id="Soustraction_44"
         d="M 36.797687,-3.6039457 A 41.177392,41.177392 0 0 0 -4.375,36.9438 c 0,13.038801 6.5870417,26.636596 19.630549,40.42827 a 127.8659,127.8659 0 0 0 13.178934,12.030141 c 1.529272,1.218712 3.005974,2.35824 4.347027,3.29933 0.536421,0.395258 1.083359,0.775736 1.718595,1.203932 a 4.1407959,4.1407959 0 0 0 2.288392,0.698467 4.1360905,4.1360905 0 0 0 2.306771,-0.698467 c 0.272916,-0.183513 0.890436,-0.61553 1.718595,-1.213122 1.421046,-1.011671 2.925981,-2.156126 4.347027,-3.29014 1.421046,-1.134013 2.889438,-2.337502 4.301073,-3.575036 a 26.439923,26.439923 0 0 1 -0.220568,-0.284901 c 4.858621,5.544808 11.982823,9.052477 19.915449,9.052477 14.594287,0 26.468156,-11.887703 26.468156,-26.495725 0,-11.669883 -7.608778,-21.593837 -18.123332,-25.098799 A 39.958681,39.958681 0 0 0 77.970373,36.9438 41.177392,41.177392 0 0 0 36.797687,-3.6039457 Z m -0.0092,7.6371659 A 32.938149,32.938149 0 0 1 69.726636,36.971369 31.733554,31.733554 0 0 1 69.368213,41.64925 c -0.07078,-5.6e-4 -0.140472,-0.0092 -0.211379,-0.0092 -14.60341,0 -26.486535,11.873901 -26.486535,26.458966 0,3.872994 0.843701,7.55292 2.343535,10.872158 a 26.439923,26.439923 0 0 1 -0.07352,-0.137851 c -1.585737,1.397509 -3.232498,2.790111 -4.907639,4.126459 -1.082253,0.865802 -2.171786,1.700281 -3.225807,2.481386 -1.077548,-0.795221 -2.162375,-1.634405 -3.225807,-2.481386 A 119.77723,119.77723 0 0 1 21.266026,71.701631 C 9.709441,59.514521 3.8503471,47.831547 3.8503471,36.971369 A 32.938149,32.938149 0 0 1 36.788497,4.0332202 Z M 36.218695,20.502295 a 16.469075,16.469075 0 0 0 0.569802,32.928959 v -0.01838 A 16.469075,16.469075 0 0 0 53.257571,36.962179 16.469075,16.469075 0 0 0 40.45544,20.906669 16.469075,16.469075 0 0 0 36.218695,20.502295 Z m 0.569802,8.225347 a 8.2439482,8.2439482 0 0 1 8.243727,8.216158 8.2345373,8.2345373 0 1 1 -8.243727,-8.216158 z m 32.368347,18.79423 c 11.350063,0 20.586344,9.231698 20.586344,20.577154 0,11.363849 -9.236281,20.613912 -20.586344,20.613912 -11.350062,0 -20.586343,-9.250063 -20.586343,-20.613912 0,-11.345456 9.236281,-20.577154 20.586343,-20.577154 z m -0.0092,8.565387 a 2.4091903,2.4091903 0 0 0 -2.407869,2.407868 v 7.21441 h -7.214409 a 2.4091903,2.4091903 0 1 0 0,4.815732 h 7.214409 v 7.20522 a 2.4091903,2.4091903 0 0 0 4.815737,0 v -7.20522 h 7.20522 a 2.4091903,2.4091903 0 1 0 0,-4.815732 h -7.20522 v -7.21441 a 2.4091903,2.4091903 0 0 0 -2.407868,-2.407868 z"
         style="stroke-width:4.70545" />
    </g>
  </g>
</svg>
