<?xml version="1.0" encoding="UTF-8" standalone="no"?>
<svg
   id="icôn-move_to"
   data-name="icôn-move to"
   width="100"
   height="100"
   viewBox="0 0 100 100"
   version="1.1"
   sodipodi:docname="moveto.svg"
   inkscape:version="1.1.1 (3bf5ae0d25, 2021-09-20)"
   xmlns:inkscape="http://www.inkscape.org/namespaces/inkscape"
   xmlns:sodipodi="http://sodipodi.sourceforge.net/DTD/sodipodi-0.dtd"
   xmlns="http://www.w3.org/2000/svg"
   xmlns:svg="http://www.w3.org/2000/svg">
  <defs
     id="defs11" />
  <sodipodi:namedview
     id="namedview9"
     pagecolor="#ffffff"
     bordercolor="#cccccc"
     borderopacity="1"
     inkscape:pageshadow="0"
     inkscape:pageopacity="1"
     inkscape:pagecheckerboard="0"
     showgrid="false"
     inkscape:zoom="6.6333333"
     inkscape:cx="25.251256"
     inkscape:cy="45"
     inkscape:window-width="2880"
     inkscape:window-height="1721"
     inkscape:window-x="1909"
     inkscape:window-y="3"
     inkscape:window-maximized="1"
     inkscape:current-layer="Dossier" />
  <g
     id="Dossier"
     transform="translate(3.751,6.246)">
    <path
       id="Tracé_101"
       d="M 1.8134883,2.0835001 A 5.5694011,5.5694011 0 0 0 -3.7512595,7.6482479 V 79.877112 a 5.5605113,5.5605113 0 0 0 5.5647478,5.547386 H 90.710553 a 5.5516216,5.5516216 0 0 0 5.538705,-5.556067 V 18.76038 A 5.5605113,5.5605113 0 0 0 90.693191,13.195633 H 40.697273 V 7.6482479 A 5.5605113,5.5605113 0 0 0 35.149888,2.0835001 Z M 5.1818535,10.973206 H 31.816248 V 22.08534 H 87.376913 V 76.534791 H 5.1818535 Z M 52.73831,32.589777 a 5.2271473,5.2271473 0 0 0 -3.2121,0.729236 3.1113972,3.1113972 0 0 0 -0.76396,5.009141 l 6.337388,6.502331 H 26.355675 a 4.4448535,4.4448535 0 0 0 0,8.889707 h 28.796052 l -6.389477,6.502335 a 3.1113972,3.1113972 0 0 0 0.755279,4.991779 5.1738091,5.1738091 0 0 0 2.743305,0.755278 4.9160076,4.9160076 0 0 0 3.498589,-1.345613 L 70.752117,49.318747 55.750738,33.926704 A 5.2271473,5.2271473 0 0 0 52.73831,32.589777 Z"
       style="stroke-width:4.44485" />
  </g>
  <g
     id="Arrow"
     transform="translate(9.516,12.169)" />
</svg>
