<?xml version="1.0" encoding="UTF-8" standalone="no"?>
<svg
   id="icon-galerie"
   width="100"
   height="100"
   viewBox="0 0 100 100"
   version="1.1"
   sodipodi:docname="uEA4A-galerie.svg"
   inkscape:version="1.1.1 (3bf5ae0d25, 2021-09-20)"
   xmlns:inkscape="http://www.inkscape.org/namespaces/inkscape"
   xmlns:sodipodi="http://sodipodi.sourceforge.net/DTD/sodipodi-0.dtd"
   xmlns="http://www.w3.org/2000/svg"
   xmlns:svg="http://www.w3.org/2000/svg">
  <defs
     id="defs12" />
  <sodipodi:namedview
     id="namedview10"
     pagecolor="#ffffff"
     bordercolor="#cccccc"
     borderopacity="1"
     inkscape:pageshadow="0"
     inkscape:pageopacity="1"
     inkscape:pagecheckerboard="0"
     showgrid="false"
     inkscape:zoom="6.6333334"
     inkscape:cx="76.507537"
     inkscape:cy="84.195979"
     inkscape:window-width="2880"
     inkscape:window-height="1721"
     inkscape:window-x="1909"
     inkscape:window-y="3"
     inkscape:window-maximized="1"
     inkscape:current-layer="Groupe" />
  <g
     id="Galerie"
     transform="matrix(4.4438523,0,0,4.4438523,0.00443087,7.5101062)">
    <g
       id="Groupe"
       transform="translate(0,3.098)">
      <path
         id="Combined_Shape"
         style="stroke-width:4.44385"
         d="M 21.40625 7.5097656 A 11.580679 11.580679 0 0 0 10.189453 19.378906 L 10.189453 21.375 A 11.554016 11.554016 0 0 0 0.00390625 33.146484 L 0.00390625 80.621094 A 11.554016 11.554016 0 0 0 11.234375 92.490234 L 78.59375 92.490234 A 11.554016 11.554016 0 0 0 89.824219 80.621094 L 89.824219 78.644531 A 11.554016 11.554016 0 0 0 99.996094 66.867188 L 99.996094 19.378906 A 11.554016 11.554016 0 0 0 88.789062 7.5097656 L 21.40625 7.5097656 z M 21.40625 15.40625 L 88.789062 15.40625 A 3.8572638 3.8572638 0 0 1 92.511719 19.378906 L 92.511719 66.867188 A 3.8528199 3.8528199 0 0 1 89.824219 70.646484 L 89.824219 33.146484 A 11.554016 11.554016 0 0 0 78.59375 21.277344 L 17.681641 21.277344 L 17.681641 19.378906 A 3.8572638 3.8572638 0 0 1 21.40625 15.40625 z M 11.234375 29.191406 L 78.59375 29.191406 A 3.8572638 3.8572638 0 0 1 82.335938 33.146484 L 82.335938 63.697266 L 67.933594 45.744141 A 3.9505847 3.9505847 0 0 0 64.853516 44.251953 A 3.9550285 3.9550285 0 0 0 61.779297 45.732422 L 42.544922 69.523438 L 29.560547 59.152344 A 3.9283654 3.9283654 0 0 0 24.511719 59.257812 L 7.4921875 74.048828 L 7.4921875 33.146484 A 3.8572638 3.8572638 0 0 1 11.234375 29.191406 z M 25.552734 32.212891 A 10.665246 10.665246 0 0 0 14.886719 42.878906 A 10.665246 10.665246 0 1 0 25.552734 32.212891 z M 25.552734 40.349609 A 2.5463274 2.5463274 0 0 1 28.09375 42.892578 A 2.5418835 2.5418835 0 1 1 25.552734 40.349609 z M 64.839844 54.734375 L 82.335938 76.546875 L 82.335938 80.621094 A 3.8572638 3.8572638 0 0 1 78.59375 84.576172 L 11.234375 84.576172 A 3.8572638 3.8572638 0 0 1 8.8808594 83.533203 L 27.205078 67.617188 L 40.6875 78.384766 A 3.9328093 3.9328093 0 0 0 46.224609 77.767578 L 64.839844 54.734375 z "
         transform="matrix(0.22502998,0,0,0.22502998,-9.9707859e-4,-4.7879991)" />
    </g>
  </g>
</svg>
