<?xml version="1.0" encoding="UTF-8" standalone="no"?>
<svg
   id="icon-author"
   width="100"
   height="100"
   viewBox="0 0 100 100"
   version="1.1"
   sodipodi:docname="uEA48-author.svg"
   inkscape:version="1.1.1 (3bf5ae0d25, 2021-09-20)"
   xmlns:inkscape="http://www.inkscape.org/namespaces/inkscape"
   xmlns:sodipodi="http://sodipodi.sourceforge.net/DTD/sodipodi-0.dtd"
   xmlns="http://www.w3.org/2000/svg"
   xmlns:svg="http://www.w3.org/2000/svg">
  <sodipodi:namedview
     id="namedview14"
     pagecolor="#ffffff"
     bordercolor="#cccccc"
     borderopacity="1"
     inkscape:pageshadow="0"
     inkscape:pageopacity="1"
     inkscape:pagecheckerboard="0"
     showgrid="false"
     inkscape:zoom="6.6333333"
     inkscape:cx="15"
     inkscape:cy="54.195981"
     inkscape:window-width="2880"
     inkscape:window-height="1721"
     inkscape:window-x="1909"
     inkscape:window-y="3"
     inkscape:window-maximized="1"
     inkscape:current-layer="icons" />
  <defs
     id="defs4" />
  <rect
     id="Rectangle_95"
     data-name="Rectangle 95"
     width="30"
     height="30"
     fill="none"
     x="0"
     y="0" />
  <g
     id="icons"
     transform="translate(3.955,3.84)">
    <path
       id="Soustraction_42"
       d="m 35.635817,-1.2048311 a 23.687897,23.687897 0 0 0 -3.959079,0.4483574 23.687897,23.687897 0 0 0 4.602009,46.9168117 h 0.02538 A 23.713885,23.713885 0 0 0 59.982479,22.481983 23.687897,23.687897 0 0 0 35.635817,-1.2048311 Z m 0.64293,9.466266 h 0.02538 A 14.219668,14.219668 0 0 1 50.499295,22.481983 14.211006,14.211006 0 1 1 36.278747,8.2614349 Z M 78.517412,30.349388 a 4.3313031,4.3313031 0 0 0 -2.385604,1.20972 L 52.047398,55.643523 H 19.731814 A 23.718216,23.718216 0 0 0 -3.9550002,79.347255 v 9.466266 a 4.7254517,4.7254517 0 0 0 4.72044388,4.720445 h 0.00846 A 4.7384456,4.7384456 0 0 0 5.5281849,88.830439 V 79.347255 A 14.236993,14.236993 0 0 1 19.731814,65.118248 h 22.840858 l -6.302384,6.302384 a 4.3313031,4.3313031 0 0 0 -1.20972,2.436358 L 32.82724,88.525897 a 4.3313031,4.3313031 0 0 0 4.92347,4.92347 L 52.470376,91.300638 A 4.3313031,4.3313031 0 0 0 54.915193,90.074 L 67.020847,77.968345 a 14.072404,14.072404 0 0 1 0.05922,1.37891 v 9.466266 a 4.7644334,4.7644334 0 0 0 4.76274,4.720445 4.7254517,4.7254517 0 0 0 4.728903,-4.711986 V 79.338796 A 23.709553,23.709553 0 0 0 74.693681,70.295507 L 94.776717,50.212476 a 4.3313031,4.3313031 0 0 0 0,-6.124736 L 82.256544,31.559108 a 4.3313031,4.3313031 0 0 0 -3.739132,-1.20972 z m 0.676766,10.40528 6.395438,6.395438 -3.206178,3.214641 -6.403901,-6.403901 z m -9.339372,9.339373 6.403896,6.395437 -21.436563,21.436568 -6.403901,-6.403901 z m -26.740721,28.373418 4.754281,4.754281 -5.591782,0.812119 z"
       style="stroke-width:4.3313" />
  </g>
</svg>
