<?xml version="1.0" encoding="UTF-8" standalone="no"?>
<svg
   id="icon-menu"
   width="100"
   height="100"
   viewBox="0 0 100 100"
   version="1.1"
   sodipodi:docname="menu.svg"
   inkscape:version="1.1.1 (3bf5ae0d25, 2021-09-20)"
   xmlns:inkscape="http://www.inkscape.org/namespaces/inkscape"
   xmlns:sodipodi="http://sodipodi.sourceforge.net/DTD/sodipodi-0.dtd"
   xmlns="http://www.w3.org/2000/svg"
   xmlns:svg="http://www.w3.org/2000/svg">
  <defs
     id="defs10" />
  <sodipodi:namedview
     id="namedview8"
     pagecolor="#ffffff"
     bordercolor="#cccccc"
     borderopacity="1"
     inkscape:pageshadow="0"
     inkscape:pageopacity="1"
     inkscape:pagecheckerboard="0"
     showgrid="false"
     inkscape:zoom="3.3166667"
     inkscape:cx="-124.97487"
     inkscape:cy="122.56281"
     inkscape:window-width="2880"
     inkscape:window-height="1721"
     inkscape:window-x="1909"
     inkscape:window-y="3"
     inkscape:window-maximized="1"
     inkscape:current-layer="icon-menu" />
  <g
     id="Circles"
     transform="matrix(4.4444444,0,0,4.4444444,36.111111,5e-7)">
    <path
       id="Tracé_102"
       data-name="Tracé 102"
       d="M 3.125,0 A 3.125,3.125 0 1 1 0,3.125 3.125,3.125 0 0 1 3.125,0 Z"
       fill="#091625" />
    <path
       id="Tracé_104"
       data-name="Tracé 104"
       d="M 3.125,0 A 3.125,3.125 0 1 1 0,3.125 3.125,3.125 0 0 1 3.125,0 Z"
       transform="translate(0,16.25)"
       fill="#091625" />
    <path
       id="Tracé_103"
       data-name="Tracé 103"
       d="M 3.125,0 A 3.125,3.125 0 1 1 0,3.125 3.125,3.125 0 0 1 3.125,0 Z"
       transform="translate(0,8.125)"
       fill="#091625" />
  </g>
</svg>
