<?xml version="1.0" encoding="UTF-8" standalone="no"?>
<svg
   width="100"
   height="100"
   viewBox="0 0 100 100"
   version="1.1"
   id="svg15"
   sodipodi:docname="uEA59-distribute.svg"
   inkscape:version="1.1.1 (3bf5ae0d25, 2021-09-20)"
   xmlns:inkscape="http://www.inkscape.org/namespaces/inkscape"
   xmlns:sodipodi="http://sodipodi.sourceforge.net/DTD/sodipodi-0.dtd"
   xmlns="http://www.w3.org/2000/svg"
   xmlns:svg="http://www.w3.org/2000/svg"
   xmlns:rdf="http://www.w3.org/1999/02/22-rdf-syntax-ns#"
   xmlns:cc="http://creativecommons.org/ns#"
   xmlns:dc="http://purl.org/dc/elements/1.1/">
  <defs
     id="defs19" />
  <sodipodi:namedview
     id="namedview17"
     pagecolor="#ffffff"
     bordercolor="#cccccc"
     borderopacity="1"
     inkscape:pageshadow="0"
     inkscape:pageopacity="1"
     inkscape:pagecheckerboard="0"
     showgrid="false"
     fit-margin-top="0"
     fit-margin-left="0"
     fit-margin-right="0"
     fit-margin-bottom="0"
     inkscape:zoom="8.2916667"
     inkscape:cx="19.59799"
     inkscape:cy="45.286432"
     inkscape:window-width="2880"
     inkscape:window-height="1541"
     inkscape:window-x="-11"
     inkscape:window-y="-11"
     inkscape:window-maximized="1"
     inkscape:current-layer="svg15" />
  <title
     id="title2">02.Icons/Diffuser</title>
  <path
     id="path868"
     style="fill-rule:evenodd;stroke:none;stroke-width:5"
     d="m 50.371095,2.65625 c -9.678415,0 -17.54883,7.870416 -17.54883,17.548828 v 1.308594 c 0.769464,9.113337 8.478775,16.25 17.54883,16.25 8.5699,0 16.00862,-6.435961 17.304685,-14.990235 0.12265,-0.863242 0.253905,-1.764029 0.25391,-2.568359 C 67.92968,10.527868 60.05071,2.65625 50.371095,2.65625 Z m 0,7.3339845 c 5.70124,0 10.341795,4.6405505 10.341795,10.3417965 0,0.429217 -4.2e-4,0.960473 -0.10742,1.503906 -0.750225,5.035179 -5.151105,8.837891 -10.234375,8.837891 -5.40909,0 -9.893845,-4.192653 -10.214845,-9.501953 v -0.869141 c -0.0517,-2.725585 0.977785,-5.297186 2.890625,-7.246093 1.941695,-1.978965 4.53732,-3.0664065 7.32422,-3.0664065 z M 29.003906,21.396484 c -0.662979,0.0086 -1.316234,0.197453 -1.884766,0.576172 -10.485146,6.78571 -17.344349,18.268018 -18.339843,30.712889 -0.09258,1.00992 0.245888,2.008335 0.917969,2.744145 0.639617,0.70092 1.501217,1.08398 2.441406,1.08398 h 0.244141 c 1.805835,0 3.42197,-1.453475 3.603515,-3.261715 0.821164,-10.321635 6.460425,-19.785587 15.097656,-25.312502 1.663966,-1.109711 2.100407,-3.2903 0.957031,-5.15625 -0.807035,-0.922755 -1.932143,-1.401019 -3.037109,-1.386719 z m 42.587889,0 c -1.11182,-0.0077 -2.26011,0.500757 -3.105465,1.47461 -1.08206,1.782992 -0.63843,3.961199 1.035155,5.078125 8.62641,5.520903 14.265525,14.978841 15.08789,25.312501 0.17915,1.796215 1.796475,3.26172 3.603515,3.26172 h 0.24414 c 0.94019,0 1.80299,-0.392835 2.44141,-1.09375 0.672075,-0.7346 1.00934,-1.739035 0.917965,-2.744145 C 90.81971,40.235861 83.96426,28.754759 73.48633,21.972656 72.91554,21.593034 72.25889,21.401105 71.591795,21.396484 Z M 17.43164,56.75781 c -2.107609,2e-5 -4.154165,0.39385 -6.074218,1.16211 C 4.5644995,60.4844 0,67.07503 0,74.316405 c 0,9.67841 7.819354,17.54883 17.43164,17.54883 4.200792,0 8.191087,-1.470195 11.230469,-4.13086 4.018044,-3.367605 6.328125,-8.25415 6.328125,-13.41797 0,-9.678415 -7.880181,-17.55858 -17.558594,-17.558595 z m 65.01953,0 c -2.10881,0 -4.163925,0.39505 -6.08398,1.16211 -6.79292,2.56448 -11.357425,9.15631 -11.357425,16.396485 0,9.67961 7.82912,17.54883 17.441405,17.54883 4.200795,0 8.191085,-1.470195 11.23047,-4.13086 C 97.69848,84.36677 100,79.480225 100,74.316405 100,64.63799 92.129585,56.757825 82.45117,56.75781 Z m -65.01953,7.2168 c 5.701246,0 10.341797,4.64055 10.341797,10.341795 0,3.088675 -1.331929,5.94219 -3.652343,7.8418 -1.82868,1.505265 -4.226603,2.373045 -6.572266,2.373045 -5.701246,0 -10.332031,-4.64055 -10.332031,-10.341795 0,-4.21522 2.676978,-8.060245 6.660156,-9.570315 1.185455,-0.42803 2.381255,-0.64453 3.554687,-0.64453 z m 65.01953,0 c 5.701245,0 10.332035,4.640545 10.332035,10.341795 0,3.088675 -1.322165,5.942185 -3.64258,7.8418 -1.828675,1.505265 -4.226605,2.373045 -6.572265,2.373045 -5.701245,0 -10.3418,-4.63935 -10.3418,-10.341795 0,-4.21402 2.685545,-8.060245 6.669925,-9.570315 1.185455,-0.42803 2.381255,-0.64453 3.554685,-0.64453 z M 33.466797,86.191405 c -1.275909,0.05583 -2.500384,0.81451 -3.212891,2.138675 -0.627592,1.857535 0.142235,3.863635 1.777344,4.667965 5.706055,2.8915 11.998245,4.345705 18.291015,4.345705 5.9934,-0.0012 11.99203,-1.320865 17.48047,-3.95508 0.92095,-0.4292 1.617095,-1.218155 1.91406,-2.167965 0.28495,-0.90532 0.179535,-1.85207 -0.292965,-2.666015 L 69.296875,88.34961 C 68.389145,86.78784 66.31255,86.122365 64.658205,86.875 55.32485,91.358325 44.315865,91.245405 35.195312,86.5625 34.633619,86.288605 34.046755,86.16603 33.466797,86.191405 Z" />
  <metadata
     id="metadata836">
    <rdf:RDF>
      <cc:Work
         rdf:about="">
        <dc:title>02.Icons/Diffuser</dc:title>
      </cc:Work>
    </rdf:RDF>
  </metadata>
</svg>
