<?xml version="1.0" encoding="UTF-8" standalone="no"?>
<svg
   id="icon-portrait"
   width="100"
   height="100"
   viewBox="0 0 100 100"
   version="1.1"
   sodipodi:docname="portrait.svg"
   inkscape:version="1.1.1 (3bf5ae0d25, 2021-09-20)"
   xmlns:inkscape="http://www.inkscape.org/namespaces/inkscape"
   xmlns:sodipodi="http://sodipodi.sourceforge.net/DTD/sodipodi-0.dtd"
   xmlns="http://www.w3.org/2000/svg"
   xmlns:svg="http://www.w3.org/2000/svg">
  <defs
     id="defs9" />
  <sodipodi:namedview
     id="namedview7"
     pagecolor="#ffffff"
     bordercolor="#cccccc"
     borderopacity="1"
     inkscape:pageshadow="0"
     inkscape:pageopacity="1"
     inkscape:pagecheckerboard="0"
     showgrid="false"
     inkscape:zoom="26.533333"
     inkscape:cx="13.66206"
     inkscape:cy="14.981156"
     inkscape:window-width="2880"
     inkscape:window-height="1721"
     inkscape:window-x="1909"
     inkscape:window-y="3"
     inkscape:window-maximized="1"
     inkscape:current-layer="icon-portrait" />
  <g
     id="Portait"
     transform="matrix(4.4414835,0,0,4.4414835,11.10815,-5.0124942e-7)">
    <path
       id="Tracé_96"
       data-name="Tracé 96"
       d="m 3555.041,585.038 h 10.426 a 1,1 0 0 1 0.707,0.293 l 5.076,5.074 a 1,1 0 0 1 0.293,0.707 v 15.441 a 1,1 0 0 1 -1,1 h -15.513 a 1,1 0 0 1 -1,-1 l 0.011,-20.516 a 1,1 0 0 1 1,-0.999 z m 10.011,2 h -9.011 l -0.01,18.516 h 13.512 v -14.027 z"
       transform="translate(-3554.03,-585.038)"
       fill="#091625" />
    <path
       id="Tracé_97"
       data-name="Tracé 97"
       d="m 3568.347,592.041 h -4.916 a 1,1 0 0 1 -1,-1 v -5.191 h 2 v 4.191 h 3.916 z"
       transform="translate(-3552.169,-584.775)"
       fill="#091625" />
  </g>
</svg>
