<?xml version="1.0" encoding="UTF-8" standalone="no"?>
<svg
   id="icon-unvisible"
   width="100"
   height="100"
   viewBox="0 0 100 100"
   version="1.1"
   sodipodi:docname="uEA53-unvisible.svg"
   inkscape:version="1.1.1 (3bf5ae0d25, 2021-09-20)"
   xmlns:inkscape="http://www.inkscape.org/namespaces/inkscape"
   xmlns:sodipodi="http://sodipodi.sourceforge.net/DTD/sodipodi-0.dtd"
   xmlns="http://www.w3.org/2000/svg"
   xmlns:svg="http://www.w3.org/2000/svg">
  <sodipodi:namedview
     id="namedview11"
     pagecolor="#ffffff"
     bordercolor="#cccccc"
     borderopacity="1"
     inkscape:pageshadow="0"
     inkscape:pageopacity="1"
     inkscape:pagecheckerboard="0"
     showgrid="false"
     fit-margin-top="0"
     fit-margin-left="0"
     fit-margin-right="0"
     fit-margin-bottom="0"
     inkscape:zoom="4.690475"
     inkscape:cx="10.340104"
     inkscape:cy="15.456857"
     inkscape:window-width="1920"
     inkscape:window-height="1457"
     inkscape:window-x="-11"
     inkscape:window-y="-11"
     inkscape:window-maximized="1"
     inkscape:current-layer="icon-unvisible" />
  <defs
     id="defs4" />
  <path
     id="Rectangle_377"
     d="M 85.12022,7.907821 73.780558,19.247486 C 66.254508,14.575125 58.298159,12.223441 50,12.223441 c -13.295682,0 -25.709608,6.052404 -36.898553,17.984231 a 85.873343,85.873343 0 0 0 -9.3753137,12.046531 62.554469,62.554469 0 0 0 -3.28880011,5.587985 4.1906161,4.1906161 0 0 0 0,3.727804 61.335381,61.335381 0 0 0 3.28880011,5.610306 85.873343,85.873343 0 0 0 9.3753137,12.068856 c 1.78173,1.900673 3.603849,3.629348 5.44661,5.23083 L 7.6697177,85.358324 14.403574,92.092179 26.271529,80.224221 c 7.51305,4.652445 15.448099,7.001724 23.728471,7.001724 13.295682,0 25.705978,-6.048416 36.891113,-17.991671 a 85.667622,85.667622 0 0 0 9.382752,-12.046536 64.002137,64.002137 0 0 0 3.288807,-5.602865 4.1906161,4.1906161 0 0 0 0,-3.727801 64.002137,64.002137 0 0 0 -3.288807,-5.602869 85.667622,85.667622 0 0 0 -9.382752,-12.046531 C 85.12227,28.321388 83.317615,26.598217 81.489146,25.006607 L 91.854075,14.641676 Z M 50,20.557052 c 6.073513,0 11.982514,1.606553 17.679162,4.791827 l -9.814317,9.814314 A 16.667223,16.667223 0 0 0 35.4385,57.589538 L 24.448552,68.57949 C 22.6681,67.065317 20.916219,65.38624 19.18796,63.542118 A 77.084478,77.084478 0 0 1 10.727855,52.671222 C 10.087834,51.680712 9.4797777,50.692344 8.9197597,49.724694 9.4759687,48.76847 10.080215,47.780102 10.727855,46.778165 A 77.084478,77.084478 0 0 1 19.180519,35.914709 C 28.731313,25.727701 39.100588,20.557052 50,20.557052 Z M 75.588652,30.9071 c 1.767789,1.505384 3.514007,3.16971 5.23083,5.000169 a 76.783516,76.783516 0 0 1 8.460104,10.870896 c 0.666688,1.043847 1.289982,2.047451 1.808094,2.946529 -0.533351,0.925745 -1.141406,1.917923 -1.808094,2.946528 a 76.783516,76.783516 0 0 1 -8.460104,10.870897 c -9.554605,10.187006 -19.91263,15.357654 -30.812042,15.357654 -6.059124,0 -11.960529,-1.601451 -17.641956,-4.769504 l 9.76223,-9.76223 A 16.667223,16.667223 0 0 0 50,66.399356 v -0.0074 A 16.686271,16.686271 0 0 0 66.674663,49.724694 16.667223,16.667223 0 0 0 64.643346,41.852407 Z M 50,41.391081 a 8.3431357,8.3431357 0 0 1 1.406298,0.230663 l -9.546452,9.546448 A 8.3317067,8.3317067 0 0 1 50,41.398521 Z m 8.117829,6.98684 a 8.3431357,8.3431357 0 0 1 0.215782,1.354213 8.3317067,8.3317067 0 0 1 -9.717585,8.147594 z"
     style="stroke-width:3.80965" />
  <g
     id="Groupe_3"
     data-name="Groupe 3"
     transform="translate(5.6168607e-4,1.1328125)" />
</svg>
