<?xml version="1.0" encoding="UTF-8" standalone="no"?>
<svg
   width="100"
   height="100"
   viewBox="0 0 99.999994 99.999994"
   version="1.1"
   id="svg13"
   sodipodi:docname="uEA30-theme-agriculture.svg"
   inkscape:version="1.1.1 (3bf5ae0d25, 2021-09-20)"
   xmlns:inkscape="http://www.inkscape.org/namespaces/inkscape"
   xmlns:sodipodi="http://sodipodi.sourceforge.net/DTD/sodipodi-0.dtd"
   xmlns="http://www.w3.org/2000/svg"
   xmlns:svg="http://www.w3.org/2000/svg">
  <sodipodi:namedview
     id="namedview8"
     pagecolor="#ffffff"
     bordercolor="#cccccc"
     borderopacity="1"
     inkscape:pageshadow="0"
     inkscape:pageopacity="1"
     inkscape:pagecheckerboard="0"
     showgrid="false"
     inkscape:zoom="7.96"
     inkscape:cx="50"
     inkscape:cy="49.937186"
     inkscape:window-width="2880"
     inkscape:window-height="1721"
     inkscape:window-x="-11"
     inkscape:window-y="-11"
     inkscape:window-maximized="1"
     inkscape:current-layer="svg13" />
  <path
     d="M 51.109634,0.59874405 C 50.862347,0.22494777 50.445978,0.00150999 49.996426,-1.99812e-6 49.553878,-1.99812e-6 49.13334,0.22511576 48.883052,0.59874405 46.441865,4.2543877 40.829137,13.280938 40.829137,19.044961 c 0,7.373446 4.108664,13.352507 9.166122,13.352507 5.064129,0 9.166123,-5.979061 9.166123,-13.352507 0.0017,-5.764023 -5.607726,-14.7888933 -8.052248,-18.44621695 M 74.987909,47.26868 c 4.048635,-4.080679 6.414785,-14.459616 7.251859,-18.782213 0.08788,-0.442676 -0.05203,-0.897111 -0.364177,-1.216308 -0.319155,-0.318693 -0.769041,-0.457796 -1.208254,-0.371276 -4.293754,0.839991 -14.592094,3.225568 -18.642396,7.302887 -5.179185,5.212988 -6.463142,12.364677 -2.889738,15.969921 3.578406,3.606924 10.676857,2.303257 15.852706,-2.911411 m 13.039673,10.726694 c -0.312152,-0.316173 -0.761704,-0.455276 -1.197916,-0.371781 -5.000764,0.959271 -18.425624,3.944601 -23.611479,9.164309 -6.423122,6.467936 -8.027235,15.341608 -3.585076,19.823803 4.440492,4.472116 13.248107,2.855972 19.659558,-3.613644 5.182519,-5.219708 8.143959,-18.748614 9.094421,-23.788563 0.09905,-0.439148 -0.04085,-0.892744 -0.35684,-1.209588 M 19.327517,26.890483 c -0.436045,-0.08685 -0.888765,0.05258 -1.203919,0.37094 -0.31632,0.319197 -0.456055,0.773632 -0.368512,1.216308 0.837074,4.324277 3.206559,14.703214 7.255194,18.782213 5.175849,5.214668 12.272633,6.518335 15.851039,2.911411 3.581741,-3.605244 2.284444,-10.758613 -2.889738,-15.969921 -4.046968,-4.06724 -14.345308,-6.452816 -18.642397,-7.297847 m -6.154658,30.71379 c -0.436046,-0.08349 -0.88493,0.05544 -1.201084,0.371781 -0.315487,0.316844 -0.451886,0.77044 -0.367345,1.210092 0.950462,5.034909 3.911901,18.563815 9.094421,23.788563 6.419787,6.471296 15.227403,8.08744 19.659557,3.613644 C 44.800567,82.125982 43.199789,73.25231 36.773331,66.777654 31.604152,61.566346 18.18096,58.581016 13.178528,57.621745 M 49.992425,36.012792 c -1.839228,0 -3.333288,1.503921 -3.333288,3.358287 v 57.27063 c 0,1.854702 1.49406,3.358287 3.333288,3.358287 1.842562,0 3.333287,-1.502913 3.333287,-3.358287 v -57.27063 c 0,-1.856382 -1.490725,-3.359967 -3.333287,-3.359967"
     id="path9"
     style="fill:#0b6ba7;stroke-width:0.167372" />
</svg>
