<?xml version="1.0" encoding="UTF-8" standalone="no"?>
<svg
   width="100"
   height="100"
   viewBox="0 0 100 100"
   version="1.1"
   id="svg11"
   sodipodi:docname="uEA36-theme-sante.svg"
   inkscape:version="1.1.1 (3bf5ae0d25, 2021-09-20)"
   xmlns:inkscape="http://www.inkscape.org/namespaces/inkscape"
   xmlns:sodipodi="http://sodipodi.sourceforge.net/DTD/sodipodi-0.dtd"
   xmlns="http://www.w3.org/2000/svg"
   xmlns:svg="http://www.w3.org/2000/svg">
  <defs
     id="defs5" />
  <sodipodi:namedview
     id="namedview13"
     pagecolor="#ffffff"
     bordercolor="#cccccc"
     borderopacity="1"
     inkscape:pageshadow="0"
     inkscape:pageopacity="1"
     inkscape:pagecheckerboard="0"
     showgrid="false"
     inkscape:zoom="0.4975"
     inkscape:cx="-867.33668"
     inkscape:cy="-177.88945"
     inkscape:window-width="2880"
     inkscape:window-height="1721"
     inkscape:window-x="-11"
     inkscape:window-y="-11"
     inkscape:window-maximized="1"
     inkscape:current-layer="svg11" />
  <path
     d="m 65.941542,64.34403 c 0,1.57349 -1.274483,2.84898 -2.848984,2.84898 h -5.901226 v 5.90123 c 0,1.57349 -1.274483,2.84898 -2.848984,2.84898 h -8.677977 c -1.573996,0 -2.847304,-1.27498 -2.847304,-2.84898 v -5.90123 h -5.901226 c -1.573493,0 -2.847304,-1.27498 -2.847304,-2.84898 v -8.67798 c 0,-1.57349 1.274147,-2.8473 2.847304,-2.8473 h 5.901226 v -5.90123 c 0,-1.57349 1.274148,-2.8473 2.847304,-2.8473 h 8.677977 c 1.573661,0 2.848984,1.27431 2.848984,2.8473 v 5.90123 h 5.901226 c 1.573661,0 2.848984,1.27431 2.848984,2.8473 l -0.01848,8.65446 z M 39.23232,21.69327 c 0.306064,-0.88863 1.142281,-1.48413 2.081303,-1.48413 h 17.386192 c 0.939527,0 1.775576,0.5955 2.081304,1.48597 l 2.714597,7.88846 H 36.517722 L 39.23232,21.69343 Z M 88.333613,30.2083 H 74.280195 L 70.230136,18.44112 C 68.536872,13.51756 63.900554,10.2083 58.693096,10.2083 H 41.306904 c -5.207458,0 -9.845456,3.30926 -11.53704,8.23114 L 25.719805,30.2083 H 11.666387 C 5.2225769,30.2083 0,35.43088 0,41.87469 V 78.12532 C 0,84.56913 5.2225769,89.7917 11.666387,89.7917 H 88.333613 C 94.777423,89.7917 100,84.56913 100,78.12532 V 41.87469 C 100,35.43088 94.777423,30.2083 88.333613,30.2083"
     style="isolation:auto;mix-blend-mode:normal;stroke-width:0.167983"
     overflow="visible"
     solid-color="#000000"
     id="path7" />
</svg>
