<?xml version="1.0" encoding="UTF-8" standalone="no"?>
<svg
   width="100"
   height="100"
   viewBox="0 0 100 100"
   version="1.1"
   id="svg11"
   sodipodi:docname="uEA32-theme-developpement.svg"
   inkscape:version="1.1.1 (3bf5ae0d25, 2021-09-20)"
   xmlns:inkscape="http://www.inkscape.org/namespaces/inkscape"
   xmlns:sodipodi="http://sodipodi.sourceforge.net/DTD/sodipodi-0.dtd"
   xmlns="http://www.w3.org/2000/svg"
   xmlns:svg="http://www.w3.org/2000/svg">
  <defs
     id="defs5" />
  <sodipodi:namedview
     id="namedview13"
     pagecolor="#ffffff"
     bordercolor="#cccccc"
     borderopacity="1"
     inkscape:pageshadow="0"
     inkscape:pageopacity="1"
     inkscape:pagecheckerboard="0"
     showgrid="false"
     inkscape:zoom="1.99"
     inkscape:cx="-303.26633"
     inkscape:cy="247.48744"
     inkscape:window-width="2880"
     inkscape:window-height="1721"
     inkscape:window-x="-11"
     inkscape:window-y="-11"
     inkscape:window-maximized="1"
     inkscape:current-layer="svg11" />
  <path
     d="m 89.625538,62.103423 c -5.673588,0.350112 -13.136579,6.021825 -20.337053,9.281861 -8.821116,3.991334 -22.555055,0.780855 -22.557734,0.780855 2.11621,-0.992208 10.725706,-3.043058 12.461534,-3.809179 9.217571,-4.050267 8.440734,-12.507073 4.050267,-12.434747 -5.804847,0.09724 -9.204177,1.521528 -20.779046,3.099311 C 33.690607,60.213567 23.315817,59.778002 18.341383,61.67777 11.317706,64.361607 -3.0960214e-6,82.413688 -3.0960214e-6,82.413688 L 17.494898,99.36212 c 0,0 10.827499,-10.661411 16.096595,-10.661411 12.006147,0 12.49368,-0.164475 23.642628,-0.766658 4.736025,-0.253141 5.729841,-0.447886 8.440734,-1.367232 C 80.12402,81.68614 95.650041,68.672784 95.917916,67.105717 96.563494,63.473335 92.598948,61.908946 89.596072,62.096458 M 65.490021,35.878483 c 0.300823,0.06161 0.607272,-0.07152 0.769604,-0.331629 4.020801,-6.477212 10.088164,-14.30987 18.003864,-19.63522 -7.377272,7.082609 -12.584757,14.540242 -15.743001,21.558561 -0.0951,0.210817 -0.08438,0.452708 0.02679,0.655222 0.112507,0.201977 0.313413,0.339665 0.542446,0.371274 0.515123,0.06965 1.050605,0.106078 1.589301,0.106078 5.054797,0 10.088164,-3.080559 13.423205,-5.662872 3.8065,-2.949301 7.460312,-6.846879 9.777429,-10.431043 C 97.356674,17.137965 99.529138,10.5161 99.997917,3.8647697 100.01402,3.6531486 99.936309,3.4455456 99.786298,3.2947321 99.636286,3.1447223 99.427344,3.0659671 99.215723,3.0823075 94.179677,3.4305447 81.685998,5.0377933 74.378374,12.34006 c -0.254481,0.230372 -2.946623,2.705535 -5.448573,6.664724 -3.428797,5.424464 -4.819067,11.047155 -4.015443,16.257319 0.04474,0.304038 0.274572,0.546465 0.575931,0.608076 m -19.983458,7.776404 c 3.176995,2.462305 7.974632,5.397677 12.793699,5.397677 0.513784,0 1.023817,-0.03348 1.514028,-0.101792 0.218586,-0.02947 0.409849,-0.160725 0.516463,-0.352791 0.106346,-0.192334 0.11599,-0.423243 0.02679,-0.624149 -3.010912,-6.688833 -7.974632,-13.79555 -15.003666,-20.545995 7.540675,5.073549 13.32677,12.541897 17.157379,18.713732 0.154564,0.247784 0.447351,0.373685 0.733977,0.315289 0.285823,-0.05893 0.506284,-0.289305 0.550483,-0.57861 0.762639,-4.966398 -0.56093,-10.323894 -3.830609,-15.493877 -2.384086,-3.771676 -4.950326,-6.128974 -5.191413,-6.348631 -6.962066,-6.948672 -18.871778,-8.49163 -23.672094,-8.829153 -0.200906,-0.01554 -0.400205,0.05893 -0.542982,0.202514 -0.143045,0.143045 -0.216979,0.341808 -0.202781,0.543785 0.449494,6.337918 2.520701,12.646368 5.831634,17.765455 2.199251,3.412724 5.681623,7.125469 9.308648,9.938154 m 6.86777,-24.056494 c 2.116211,1.639394 5.311957,3.59488 8.521097,3.59488 0.341808,0 0.682009,-0.02331 1.009084,-0.06804 0.145992,-0.01982 0.273232,-0.10715 0.343683,-0.234659 0.07126,-0.129115 0.07768,-0.28234 0.01741,-0.416813 -2.003703,-4.454757 -5.309278,-9.188104 -9.991729,-13.683043 5.022652,3.377901 8.87737,8.352335 11.427538,12.464213 0.102596,0.164743 0.298145,0.249659 0.488603,0.210282 0.190192,-0.03965 0.336451,-0.19287 0.366185,-0.38574 C 65.053653,17.764524 64.172345,14.196432 61.995862,10.751562 60.407365,8.240236 58.698324,6.6691506 58.537599,6.5218195 53.898008,1.8929434 45.968915,0.86698303 42.77049,0.63928943 c -0.135009,-0.010715 -0.266803,0.040181 -0.362702,0.1350089 -0.0951,0.095096 -0.144653,0.22769357 -0.134741,0.36163097 0.298948,4.2217065 1.678503,8.4246617 3.884184,11.8347077 1.470632,2.274257 3.793107,4.749419 6.206658,6.621864"
     style="isolation:auto;mix-blend-mode:normal;stroke-width:0.267875"
     overflow="visible"
     solid-color="#000000"
     id="path7" />
</svg>
