<?xml version="1.0" encoding="UTF-8" standalone="no"?>
<svg
   width="100"
   height="100"
   viewBox="0 0 100 100"
   version="1.1"
   id="svg11"
   sodipodi:docname="uEA35-theme-international.svg"
   inkscape:version="1.1.1 (3bf5ae0d25, 2021-09-20)"
   xmlns:inkscape="http://www.inkscape.org/namespaces/inkscape"
   xmlns:sodipodi="http://sodipodi.sourceforge.net/DTD/sodipodi-0.dtd"
   xmlns="http://www.w3.org/2000/svg"
   xmlns:svg="http://www.w3.org/2000/svg">
  <defs
     id="defs5" />
  <sodipodi:namedview
     id="namedview13"
     pagecolor="#ffffff"
     bordercolor="#cccccc"
     borderopacity="1"
     inkscape:pageshadow="0"
     inkscape:pageopacity="1"
     inkscape:pagecheckerboard="0"
     showgrid="false"
     inkscape:zoom="1.4071425"
     inkscape:cx="-266.1422"
     inkscape:cy="-116.19292"
     inkscape:window-width="2880"
     inkscape:window-height="1721"
     inkscape:window-x="-11"
     inkscape:window-y="-11"
     inkscape:window-maximized="1"
     inkscape:current-layer="svg11" />
  <path
     d="m 99.456187,49.26638 c -1.196564,1.45241 -2.593844,2.98849 -4.163935,4.59108 -0.02807,0.96223 -0.06557,1.93354 -0.09817,2.89106 -0.593407,0.83607 -1.205809,1.66744 -1.850825,2.51645 -0.612234,-2.50805 -1.303982,-5.11353 -2.108023,-7.77108 -0.892632,-1.41513 -1.850825,-2.85914 -2.864491,-4.32399 -2.365223,-0.58846 -4.930489,-1.18632 -7.63192,-1.8025 -0.79446,-0.76602 -1.617161,-1.527 -2.449275,-2.29806 -0.401769,0.24291 -0.794627,0.48111 -1.196396,0.71932 0.63039,1.52263 1.247332,3.0456 1.832334,4.5726 0.911122,-0.49489 1.818884,-0.99448 2.687981,-1.48047 1.186815,1.01801 2.331603,2.02257 3.431002,3.00361 -3.252811,2.27455 -6.841831,4.66668 -10.62417,7.08066 -1.798713,-3.94602 -3.775615,-8.0617 -5.856742,-12.14715 -0.430346,0.0655 -0.860356,0.13523 -1.285659,0.20528 2.136601,4.86659 4.192513,9.77517 5.977776,14.43177 1.97186,-0.99482 3.888246,-1.98897 5.744113,-2.96665 -0.630894,2.20063 -1.313396,4.3895 -2.03742,6.5347 -1.963454,1.83945 -3.990788,3.65203 -6.033251,5.42262 0.09817,2.48957 0.149612,4.87162 0.140199,7.07057 -1.135711,0.77997 -2.266041,1.53641 -3.407467,2.26951 -2.326559,3.11952 -4.626222,5.81907 -6.809892,7.90715 -1.832333,0.2382 -3.649537,0.45776 -5.458336,0.66808 -1.359961,-2.13007 -2.977121,-5.03961 -4.733807,-8.4951 0.416057,-1.58328 0.864558,-3.26903 1.308689,-5.06313 -1.107805,-3.11112 -2.28117,-6.51118 -3.467985,-10.03723 -3.977339,0.24257 -7.912653,0.45289 -11.758872,0.62559 -2.224015,-2.09312 -4.421134,-4.22656 -6.562779,-6.37007 0.280735,-3.43702 0.631063,-6.94963 1.037706,-10.44376 2.089532,-2.60548 4.247988,-5.21264 6.416529,-7.77108 4.095012,-0.75661 8.277439,-1.49004 12.432969,-2.18551 0.261569,1.06957 0.518769,2.14855 0.780338,3.23207 1.706255,1.08822 3.41251,2.20063 5.132214,3.31103 0.658967,-0.91049 1.2944,-1.81762 1.934877,-2.7046 2.60393,0.67262 5.17424,1.35448 7.707566,2.04105 0.645015,-0.39225 1.280616,-0.77997 1.921429,-1.16298 0.261738,-0.95248 0.500109,-1.89153 0.748062,-2.8205 -1.711298,-0.3175 -3.454537,-0.6444 -5.211222,-0.96206 -0.593744,-0.9666 -1.191857,-1.93353 -1.785265,-2.88602 -0.425303,-0.20074 -0.846067,-0.40619 -1.257418,-0.61651 -0.32713,1.18179 -0.663674,2.38709 -1.009464,3.605 -0.803536,-0.98104 -1.603039,-1.94697 -2.407248,-2.9045 0.04236,-0.79407 0.08439,-1.57857 0.107586,-2.35349 -1.05149,-0.78954 -2.097937,-1.55993 -3.131776,-2.31655 -0.626188,-0.28977 -1.24313,-0.57451 -1.855868,-0.85471 0.06085,0.7425 0.10288,1.49911 0.16844,2.26446 1.2944,0.82196 2.607293,1.65803 3.921865,2.51309 -0.663674,0.72856 -1.332056,1.47576 -2.013885,2.23758 -0.958193,-1.21891 -1.9063,-2.41397 -2.837595,-3.58148 -0.677796,-0.73309 -1.341469,-1.45712 -2.010524,-2.16703 -1.551599,0.71462 -3.116647,1.45712 -4.683376,2.20399 -1.121757,1.61603 -2.257636,3.27911 -3.388976,4.97409 -1.654479,-0.2335 -3.289794,-0.45759 -4.911997,-0.67698 -0.02354,-2.01249 -0.03261,-3.97962 -0.01395,-5.86107 2.042464,0.084 4.10846,0.17739 6.203036,0.28944 -0.626692,-0.99028 -1.243633,-1.96209 -1.850824,-2.9045 -0.355372,-0.77106 -0.706037,-1.5275 -1.051827,-2.25606 1.561013,-0.47658 3.126734,-0.94829 4.683377,-1.39665 0.888261,-0.99482 1.758367,-1.95201 2.622422,-2.86753 0.682501,-0.042 1.369542,-0.0887 2.047506,-0.1307 -0.131121,-0.509 -0.266446,-1.00876 -0.397231,-1.49004 0.448839,-0.4576 0.878681,-0.88698 1.308691,-1.32156 0.327129,0.70992 0.658967,1.45242 0.990804,2.22247 1.897894,0.0375 3.795788,0.0936 5.683595,0.15455 0.485821,-1.07461 0.939029,-2.09312 1.382992,-3.04561 0.715113,0.18647 1.439642,0.37797 2.158454,0.56478 -0.299225,-0.67262 -0.59845,-1.31249 -0.892632,-1.92514 1.05149,-0.21502 2.065998,-0.4203 3.084707,-0.61651 -0.369155,-0.2755 -0.738312,-0.53705 -1.102762,-0.7939 -0.902213,0.1448 -1.832333,0.30355 -2.76699,0.467 -0.392691,-0.54176 -0.775969,-1.05546 -1.159245,-1.54128 -0.05128,0 -0.09801,-0.004 -0.14457,-0.004 0.01849,-0.0375 0.03699,-0.0702 0.06051,-0.10751 -0.154151,-0.20075 -0.317716,-0.39695 -0.481282,-0.57922 0.350497,-0.14447 0.700994,-0.28944 1.046785,-0.4203 0.275689,-0.46701 0.49557,-0.81273 0.743018,-1.19103 -0.336208,-0.0279 -0.681997,-0.0605 -1.023417,-0.0887 -0.485819,0.29431 -0.986097,0.63062 -1.495452,0.98105 -0.411014,0.53251 -0.841193,1.13475 -1.289862,1.77898 0.560963,0.36873 1.126297,0.7425 1.691126,1.13475 -0.467329,0.95299 -0.953486,2.00913 -1.476961,3.138 -0.845563,0.24308 -1.696169,0.48548 -2.561905,0.73813 -0.48582,-1.17255 -0.967102,-2.2611 -1.429724,-3.26398 -0.967438,0.3783 -1.958411,0.76602 -2.953586,1.17691 -0.462791,-0.20528 -0.916167,-0.39678 -1.369544,-0.59299 0.103048,-0.99482 0.215174,-1.91505 0.327299,-2.73147 0.832115,-0.38301 1.645065,-0.73326 2.439188,-1.06504 0.682502,-0.8732 1.336931,-1.59252 1.944963,-2.14855 1.542354,-0.31246 3.02419,-0.56948 4.434582,-0.7798 3.589021,0.16345 7.327653,0.42501 11.118397,0.7425 C 71.751812,11.0838 78.11791,10.85483 80.926927,10.71943 72.420867,4.02683 61.695833,1.8e-4 50.029418,1.8e-4 c -11.908484,0 -22.828517,4.17616 -31.418629,11.1157 0.574915,0.0795 1.144788,0.16345 1.724746,0.25232 0.341252,0.85472 0.729067,1.77898 1.186814,2.81546 0.149613,0.52782 0.313514,1.09293 0.490864,1.67651 -0.906417,0.8643 -1.798713,1.79746 -2.669491,2.79363 -0.182057,0.49052 -0.359743,0.98575 -0.532554,1.49945 -0.663674,0.3736 -1.308689,0.75661 -1.953367,1.13962 -0.420765,1.39648 -0.808581,2.87258 -1.168323,4.40462 -0.790088,-0.11204 -1.570595,-0.21955 -2.323197,-0.32219 -0.52835,-3.05401 -0.832114,-5.67965 -1.075193,-8.13562 -2.323196,2.66764 -4.3942373,5.56205 -6.1173029,8.68661 0.2571991,-0.21502 0.4954023,-0.425 0.7571403,-0.63499 0.6683812,3.37654 1.4722544,7.08066 2.5652664,11.11066 C 7.299073,37.81709 5.3272136,39.22247 3.6260015,40.57812 2.3874114,41.72211 1.3212962,42.84763 0.40176747,43.9261 0.16339705,45.9147 0,47.93727 0,49.99343 c 0,4.26351 0.59340698,8.38255 1.5936256,12.33864 0.8879251,0.3222 1.8558677,0.6397 2.930052,0.95249 1.6356515,1.86802 3.4999245,3.76459 5.5524734,5.63765 0.448502,1.34053 0.925244,2.65755 1.425522,3.95609 2.664448,1.6535 5.576009,3.26063 8.608604,4.76915 -0.916166,2.83563 -1.622204,5.31007 -2.15005,7.44519 -1.182443,0.0375 -2.32824,0.0655 -3.457899,0.084 9.057442,9.14858 21.63498,14.82318 35.537178,14.82318 27.1656,0 49.22084,-21.65353 49.960494,-48.63225 -0.13448,-0.73209 -0.274678,-1.41865 -0.470687,-2.13343 M 36.876966,16.99741 c 0.780507,-0.60223 1.560845,-1.16281 2.323197,-1.70003 0.03261,-0.39678 0.06993,-0.77039 0.107587,-1.13475 0.76151,-0.29398 1.514112,-0.58376 2.257636,-0.85001 0.892632,1.17691 1.921428,2.64411 3.037638,4.34414 -0.355372,0.3689 -0.710744,0.74721 -1.070486,1.13475 -1.20581,0.41107 -2.430784,0.84078 -3.649537,1.27502 0.140199,-1.32155 0.294518,-2.55004 0.467329,-3.65707 -0.471868,0.75678 -0.948611,1.56009 -1.434767,2.40053 -0.836318,0.0281 -1.672971,0.0608 -2.499706,0.0936 0.149612,-0.66792 0.303932,-1.30308 0.46279,-1.90497 m 36.697095,64.17105 c -0.644848,-0.20075 -1.299444,-0.40149 -1.963455,-0.61181 0.331838,-1.42923 0.649722,-2.99353 0.930119,-4.64316 1.369376,-0.93401 2.738414,-1.90162 4.084927,-2.8961 0.0701,0.85925 0.117001,1.68155 0.159026,2.49797 -1.05149,2.02256 -2.118109,3.93257 -3.210785,5.65108"
     style="isolation:auto;mix-blend-mode:normal;stroke-width:0.168045"
     overflow="visible"
     solid-color="#000000"
     id="path7" />
</svg>
