<?xml version="1.0" encoding="UTF-8" standalone="no"?>
<svg
   width="100"
   height="100"
   viewBox="0 0 100 100"
   version="1.1"
   id="svg11"
   sodipodi:docname="uEA33-theme-economie.svg"
   inkscape:version="1.1.1 (3bf5ae0d25, 2021-09-20)"
   xmlns:inkscape="http://www.inkscape.org/namespaces/inkscape"
   xmlns:sodipodi="http://sodipodi.sourceforge.net/DTD/sodipodi-0.dtd"
   xmlns="http://www.w3.org/2000/svg"
   xmlns:svg="http://www.w3.org/2000/svg">
  <defs
     id="defs5" />
  <sodipodi:namedview
     id="namedview13"
     pagecolor="#ffffff"
     bordercolor="#cccccc"
     borderopacity="1"
     inkscape:pageshadow="0"
     inkscape:pageopacity="1"
     inkscape:pagecheckerboard="0"
     showgrid="false"
     inkscape:zoom="0.995"
     inkscape:cx="-199.49749"
     inkscape:cy="189.44724"
     inkscape:window-width="2880"
     inkscape:window-height="1721"
     inkscape:window-x="-11"
     inkscape:window-y="-11"
     inkscape:window-maximized="1"
     inkscape:current-layer="svg11" />
  <path
     d="M 77.760115,91.631065 C 90.43559,83.202278 99.00289,69.155677 99.99381,53.057602 H 55.485137 Z M 59.454996,40.529998 H 92.815854 C 89.174236,23.91596 76.079686,10.831115 59.454996,7.198729 V 40.550637 Z M 99.97935,46.787609 H 53.179191 V 0 C 78.344344,1.56853 98.431049,21.649846 100,46.808247 M 47.357556,51.4932 72.336912,94.730976 C 65.623452,98.074423 58.084228,100 50.082576,100 22.419488,100 0,77.586527 0,49.930861 0,23.327761 20.747317,1.636638 46.944674,0.02683 v 49.904031 c -6.2e-4,0.537428 0.14038,1.074856 0.421965,1.564402"
     style="isolation:auto;mix-blend-mode:normal;stroke-width:0.206414"
     overflow="visible"
     solid-color="#000000"
     id="path7" />
</svg>
