<?xml version="1.0" encoding="UTF-8" standalone="no"?>
<svg
   width="100"
   height="100"
   viewBox="0 0 100 100"
   version="1.1"
   id="svg13"
   sodipodi:docname="uEA38-theme-transports.svg"
   inkscape:version="1.1.1 (3bf5ae0d25, 2021-09-20)"
   xmlns:inkscape="http://www.inkscape.org/namespaces/inkscape"
   xmlns:sodipodi="http://sodipodi.sourceforge.net/DTD/sodipodi-0.dtd"
   xmlns="http://www.w3.org/2000/svg"
   xmlns:svg="http://www.w3.org/2000/svg">
  <defs
     id="defs6" />
  <sodipodi:namedview
     id="namedview15"
     pagecolor="#ffffff"
     bordercolor="#cccccc"
     borderopacity="1"
     inkscape:pageshadow="0"
     inkscape:pageopacity="1"
     inkscape:pagecheckerboard="0"
     showgrid="false"
     inkscape:zoom="7.96"
     inkscape:cx="-16.896985"
     inkscape:cy="38.88191"
     inkscape:window-width="2880"
     inkscape:window-height="1721"
     inkscape:window-x="-11"
     inkscape:window-y="-11"
     inkscape:window-maximized="1"
     inkscape:current-layer="svg13" />
  <path
     id="path7"
     style="isolation:auto;mix-blend-mode:normal;stroke-width:0.17651"
     d="m 5.5251218,90.061627 c -1.8004049,0 -3.602266,-1.12521 -4.72716604,-2.70074 -0.90020247,-1.80041 -1.12497728,-3.82655 -0.22477482,-5.62695 L 34.32181,13.089013 c 1.12437,-2.025456 2.92483,-3.15064 5.175336,-3.15064 2.248741,0 4.275136,1.124302 5.175338,3.15064 L 59.29974,43.25469 68.531365,24.562182 c 1.124371,-2.025455 2.924486,-3.15064 5.174992,-3.15064 2.250507,0 4.276857,1.124302 5.177059,3.15064 l 5.175339,10.576482 C 71.685383,36.939069 64.48397,40.089847 60.88316,45.491061 c -1.800404,2.700608 -3.601016,7.20162 -1.800611,13.503036 0.900379,3.14983 9.9e-5,4.275 -0.224775,4.7251 l -0.02103,-0.002 c -1.359129,2.02634 -6.972431,5.17535 -27.20051,5.18947 -10.357624,0 -17.333242,2.92464 -20.934052,8.55179 -2.9265401,4.50101 -2.7017488,9.22803 -2.0264204,12.6029 z m 14.1818422,-0.0193 c -0.450101,-1.12437 -1.350303,-4.72518 0,-6.75152 1.350304,-2.02457 5.626942,-3.37507 11.702426,-3.37507 19.804454,0 31.056985,-2.92483 36.008098,-9.67635 2.026338,-2.70061 4.052759,-7.42748 2.026421,-14.40317 -0.900202,-2.699724 6.9e-5,-3.824756 0.22512,-4.274857 1.570941,-2.024573 6.066589,-4.725167 19.345458,-6.07547 l 10.352397,20.704447 0.0262,0.006 c 0.900206,1.8004 0.900216,3.82645 -0.691907,5.61627 -0.900202,1.57553 -2.700483,2.70074 -4.726821,2.70074 h -19.57506 l 3.600879,7.42757 c 0.900379,1.57447 0.900477,3.82561 -0.224776,5.40114 -0.900202,1.57536 -2.700828,2.70075 -4.727166,2.70075 z" />
</svg>
