<?xml version="1.0" encoding="UTF-8" standalone="no"?>
<svg
   width="100"
   height="100"
   viewBox="0 0 100 100"
   version="1.1"
   id="svg11"
   sodipodi:docname="uEA37-theme-societe.svg"
   inkscape:version="1.1.1 (3bf5ae0d25, 2021-09-20)"
   xmlns:inkscape="http://www.inkscape.org/namespaces/inkscape"
   xmlns:sodipodi="http://sodipodi.sourceforge.net/DTD/sodipodi-0.dtd"
   xmlns="http://www.w3.org/2000/svg"
   xmlns:svg="http://www.w3.org/2000/svg">
  <defs
     id="defs5" />
  <sodipodi:namedview
     id="namedview13"
     pagecolor="#ffffff"
     bordercolor="#cccccc"
     borderopacity="1"
     inkscape:pageshadow="0"
     inkscape:pageopacity="1"
     inkscape:pagecheckerboard="0"
     showgrid="false"
     inkscape:zoom="11.25714"
     inkscape:cx="28.381987"
     inkscape:cy="65.602809"
     inkscape:window-width="2880"
     inkscape:window-height="1721"
     inkscape:window-x="-11"
     inkscape:window-y="-11"
     inkscape:window-maximized="1"
     inkscape:current-layer="svg11" />
  <path
     d="m 15.836732,0 c 5.455511,0 9.877551,4.4220408 9.877551,9.877551 0,5.45551 -4.42204,9.877551 -9.877551,9.877551 -5.45551,0 -9.8775507,-4.422041 -9.8775507,-9.877551 C 5.9591813,4.4220408 10.381222,0 15.836732,0 M 4.8163242,54.367347 H 5.795916 v 19.591837 c 0,2.693877 2.2040817,4.897959 4.897959,4.897959 h 10.285714 c 2.693878,0 4.89796,-2.204082 4.89796,-4.897959 v -1.142857 c -0.89796,-1.714286 -1.469388,-3.67347 -1.469388,-5.714286 V 41.469388 c 0,-4.979592 3.020408,-9.306123 7.346939,-11.183674 v -1.959183 c 0,-2.693878 -2.204082,-4.89796 -4.897959,-4.89796 H 4.8163242 c -2.6938776,0 -4.8979592,2.204082 -4.8979592,4.89796 v 21.142857 c 0,2.69551 2.122449,4.897959 4.8979592,4.897959 M 84.244896,0 c 5.45551,0 9.877551,4.4220408 9.877551,9.877551 0,5.45551 -4.422858,9.877551 -9.877551,9.877551 -5.455511,0 -9.877551,-4.422041 -9.877551,-9.877551 C 74.367345,4.4220408 78.789385,0 84.244896,0 m -16,28.244898 v 1.959184 c 4.32653,1.877551 7.346938,6.204081 7.346938,11.183673 v 25.551021 c 0,2.040816 -0.489796,4 -1.469387,5.714285 v 1.142857 c 0,2.693878 2.204081,4.89796 4.897959,4.89796 H 89.30612 c 2.693878,0 4.897959,-2.204082 4.897959,-4.89796 V 54.204082 h 0.979592 c 2.693878,0 4.897969,-2.204082 4.897969,-4.89796 V 28.244898 c 0,-2.693878 -2.204091,-4.897959 -4.897969,-4.897959 H 73.142855 c -2.693878,0 -4.897959,2.204081 -4.897959,4.897959 m -36.408164,13.22449 v 25.632653 c 0,2.693877 2.204082,4.897959 4.89796,4.897959 h 1.877551 v 23.102041 c 0,2.693877 2.204081,4.897959 4.897959,4.897959 h 13.142857 c 2.693877,0 4.897959,-2.204082 4.897959,-4.897959 V 71.918367 h 1.877551 c 2.693878,0 4.897959,-2.204081 4.897959,-4.897959 v -25.55102 c 0,-2.693878 -2.204081,-4.897959 -4.897959,-4.897959 H 36.734692 c -2.775511,0 -4.89796,2.204081 -4.89796,4.897959 M 50.040814,9.7959184 c 6.266122,0 11.346939,5.0799996 11.346939,11.3469386 0,6.266939 -5.080817,11.346939 -11.346939,11.346939 -6.266939,0 -11.346939,-5.08 -11.346939,-11.346939 0,-6.266939 5.08,-11.3469386 11.346939,-11.3469386"
     style="isolation:auto;mix-blend-mode:normal;stroke-width:0.816327"
     overflow="visible"
     solid-color="#000000"
     id="path7" />
</svg>
