<?xml version="1.0" encoding="UTF-8" standalone="no"?>
<svg
   xmlns:dc="http://purl.org/dc/elements/1.1/"
   xmlns:cc="http://creativecommons.org/ns#"
   xmlns:rdf="http://www.w3.org/1999/02/22-rdf-syntax-ns#"
   xmlns:svg="http://www.w3.org/2000/svg"
   xmlns="http://www.w3.org/2000/svg"
   xmlns:sodipodi="http://sodipodi.sourceforge.net/DTD/sodipodi-0.dtd"
   xmlns:inkscape="http://www.inkscape.org/namespaces/inkscape"
   version="1.1"
   viewBox="0 0 100 100"
   height="100"
   width="100"
   id="icon-share2"
   sodipodi:docname="uE90B-ecosystem.svg"
   inkscape:version="0.92.4 (5da689c313, 2019-01-14)">
  <sodipodi:namedview
     pagecolor="#ffffff"
     bordercolor="#666666"
     borderopacity="1"
     objecttolerance="10"
     gridtolerance="10"
     guidetolerance="10"
     inkscape:pageopacity="0"
     inkscape:pageshadow="2"
     inkscape:window-width="1920"
     inkscape:window-height="1177"
     id="namedview6"
     showgrid="false"
     inkscape:zoom="3.9333333"
     inkscape:cx="-33.338581"
     inkscape:cy="-21.72431"
     inkscape:window-x="1272"
     inkscape:window-y="-8"
     inkscape:window-maximized="1"
     inkscape:current-layer="icon-share2" />
  <metadata
     id="metadata12">
    <rdf:RDF>
      <cc:Work
         rdf:about="">
        <dc:format>image/svg+xml</dc:format>
        <dc:type
           rdf:resource="http://purl.org/dc/dcmitype/StillImage" />
        <dc:title></dc:title>
      </cc:Work>
    </rdf:RDF>
  </metadata>
  <defs
     id="defs4" />
  <path
     d="m 49.831346,12.695166 c 8.9285,0 16.166376,7.327434 16.166376,16.366167 -0.0022,1.546766 -0.216,3.043266 -0.613767,4.461333 l 0.142967,0.119667 18.166767,17.066866 c 4.376456,-2.199033 9.634843,-1.3666 13.05232,2.0663 v 0 c 4.062981,4.0997 4.349801,10.584334 0.69912,15.084133 -3.65068,4.4998 -10.069124,5.573034 -14.89685,2.490834 -4.827727,-3.082133 -6.51786,-9.3322 -3.922844,-14.505933 v 0 L 61.805056,40.042999 c -2.19492,2.450668 -5.112394,4.225967 -8.412194,4.981134 l 0.0019,20.116566 c 5.224797,1.768767 8.412483,7.111333 7.527427,12.6161 -0.885057,5.504767 -5.581727,9.5483 -11.090897,9.5483 -5.50917,0 -10.20584,-4.043432 -11.090897,-9.5483 -0.88506,-5.504867 2.30263,-10.847533 7.527427,-12.6161 v 0 l -3.9e-4,-20.112166 c -3.354293,-0.764067 -6.313953,-2.5835 -8.520787,-5.0959 L 21.455226,55.680066 c 2.443844,4.945133 0.920018,10.977033 -3.598333,14.243633 -4.518351,3.2666 -10.6985155,2.804767 -14.594114,-1.0908 -3.89559838,-3.8956 -4.3575116,-10.075766 -1.0908183,-14.594133 3.2666935,-4.518333 9.2985183,-6.042167 14.2436263,-3.598333 v 0 L 34.239579,33.401999 c -0.374707,-1.382533 -0.574803,-2.838 -0.574803,-4.340933 0,-9.038733 7.237973,-16.366166 16.166376,-16.366166 z m 0,59.059566 c -2.26982,0 -4.109857,1.862767 -4.109857,4.160634 0,2.297833 1.840037,4.160633 4.109857,4.160633 2.26982,0 4.109856,-1.8628 4.109856,-4.160633 0,-2.297867 -1.840036,-4.160634 -4.109856,-4.160634 z M 91.644062,57.877399 c -1.605073,-1.605065 -4.22343,-1.588966 -5.848133,0.036 -1.624704,1.6249 -1.640914,4.243267 -0.03593,5.848134 1.605077,1.605066 4.22343,1.588966 5.848134,-0.036 1.624703,-1.6249 1.640916,-4.243267 0.03593,-5.848134 z m -77.385209,-0.04033 c -1.605075,-1.605067 -4.22343,-1.588966 -5.8481342,0.036 -1.6247039,1.6249 -1.6409149,4.243268 -0.035937,5.848134 1.6050753,1.605067 4.2234302,1.588966 5.8481342,-0.036 1.624704,-1.6249 1.640915,-4.243267 0.03594,-5.848134 z m 35.572493,-37.9269 c -4.992374,0 -9.03934,4.097167 -9.03934,9.151167 0,5.054 4.047163,9.151166 9.03934,9.151166 4.989543,-0.0067 9.032796,-4.0998 9.03934,-9.151166 0,-5.054 -4.04716,-9.151167 -9.03934,-9.151167 z"
     id="path5"
     inkscape:connector-curvature="0"
     style="stroke-width:0.0029533" />
</svg>
