<?xml version="1.0" encoding="UTF-8" standalone="no"?>
<svg
   xmlns:dc="http://purl.org/dc/elements/1.1/"
   xmlns:cc="http://creativecommons.org/ns#"
   xmlns:rdf="http://www.w3.org/1999/02/22-rdf-syntax-ns#"
   xmlns:svg="http://www.w3.org/2000/svg"
   xmlns="http://www.w3.org/2000/svg"
   xmlns:sodipodi="http://sodipodi.sourceforge.net/DTD/sodipodi-0.dtd"
   xmlns:inkscape="http://www.inkscape.org/namespaces/inkscape"
   version="1.1"
   viewBox="0 0 100 100"
   height="100"
   width="100"
   id="icon-share2"
   sodipodi:docname="uE90A-download.svg"
   inkscape:version="0.92.4 (5da689c313, 2019-01-14)">
  <sodipodi:namedview
     pagecolor="#ffffff"
     bordercolor="#666666"
     borderopacity="1"
     objecttolerance="10"
     gridtolerance="10"
     guidetolerance="10"
     inkscape:pageopacity="0"
     inkscape:pageshadow="2"
     inkscape:window-width="1280"
     inkscape:window-height="971"
     id="namedview6"
     showgrid="false"
     inkscape:zoom="3.9333333"
     inkscape:cx="44.839386"
     inkscape:cy="20.733317"
     inkscape:window-x="-8"
     inkscape:window-y="-8"
     inkscape:window-maximized="1"
     inkscape:current-layer="icon-share2" />
  <metadata
     id="metadata12">
    <rdf:RDF>
      <cc:Work
         rdf:about="">
        <dc:format>image/svg+xml</dc:format>
        <dc:type
           rdf:resource="http://purl.org/dc/dcmitype/StillImage" />
        <dc:title></dc:title>
      </cc:Work>
    </rdf:RDF>
  </metadata>
  <defs
     id="defs4" />
  <path
     d="m 50.196182,0.00129999 c -3.854977,0.05999964 -6.957125,3.19898081 -6.957125,7.06255761 0,0.035 3e-4,0.070333 8e-4,0.1049994 V 7.1621904 61.797229 L 26.602224,48.487509 c -1.21036,-1.002427 -2.779084,-1.610624 -4.48974,-1.610624 -0.02667,0 -0.05533,6.7e-5 -0.083,4.67e-4 h 0.0033 c -3.867077,0.04433 -6.984659,3.189648 -6.984659,7.062958 0,2.260353 1.061827,4.272841 2.713784,5.5656 l 0.01667,0.01333 32.221874,25.776548 32.22184,-25.776545 c 1.668622,-1.304492 2.731217,-3.31758 2.731217,-5.5788 0,-3.900943 -3.162381,-7.063324 -7.063324,-7.063324 -1.711523,0 -3.280947,0.608663 -4.503407,1.621557 l 0.01333,-0.01 -16.032738,12.825723 V 7.163357 c 4e-4,-0.03 7e-4,-0.064666 7e-4,-0.099999 C 57.368072,3.162381 54.205658,0 50.304715,0 c -0.03733,0 -0.07467,2.999982e-4 -0.112,8.6666147e-4 l 0.0067,-9.99994e-5 z M 18.537205,85.873985 c -0.03,-4e-4 -0.06433,-7e-4 -0.09933,-7e-4 -3.900977,0 -7.063358,3.162414 -7.063358,7.063357 0,3.900977 3.162381,7.063358 7.063358,7.063358 0.035,0 0.06967,-3e-4 0.104666,-7.67e-4 h 62.920254 c 0.03,3.67e-4 0.06433,6.67e-4 0.09933,6.67e-4 3.900943,0 7.063358,-3.162381 7.063358,-7.063358 0,-3.900943 -3.162415,-7.063324 -7.063358,-7.063324 -0.035,0 -0.06967,2.67e-4 -0.104666,7.67e-4 z"
     id="path5"
     inkscape:connector-curvature="0"
     style="stroke-width:0.00008653" />
</svg>
