<?xml version="1.0" encoding="UTF-8" standalone="no"?>
<svg
   xmlns:dc="http://purl.org/dc/elements/1.1/"
   xmlns:cc="http://creativecommons.org/ns#"
   xmlns:rdf="http://www.w3.org/1999/02/22-rdf-syntax-ns#"
   xmlns:svg="http://www.w3.org/2000/svg"
   xmlns="http://www.w3.org/2000/svg"
   xmlns:sodipodi="http://sodipodi.sourceforge.net/DTD/sodipodi-0.dtd"
   xmlns:inkscape="http://www.inkscape.org/namespaces/inkscape"
   version="1.1"
   viewBox="0 0 100 100"
   height="100"
   width="100"
   id="icon-share2"
   sodipodi:docname="uE900-access.svg"
   inkscape:version="0.92.4 (5da689c313, 2019-01-14)">
  <sodipodi:namedview
     pagecolor="#ffffff"
     bordercolor="#666666"
     borderopacity="1"
     objecttolerance="10"
     gridtolerance="10"
     guidetolerance="10"
     inkscape:pageopacity="0"
     inkscape:pageshadow="2"
     inkscape:window-width="1280"
     inkscape:window-height="971"
     id="namedview6"
     showgrid="false"
     inkscape:zoom="3.9333333"
     inkscape:cx="37.974982"
     inkscape:cy="-7.9954961"
     inkscape:window-x="-8"
     inkscape:window-y="-8"
     inkscape:window-maximized="1"
     inkscape:current-layer="icon-share2" />
  <metadata
     id="metadata12">
    <rdf:RDF>
      <cc:Work
         rdf:about="">
        <dc:format>image/svg+xml</dc:format>
        <dc:type
           rdf:resource="http://purl.org/dc/dcmitype/StillImage" />
        <dc:title></dc:title>
      </cc:Work>
    </rdf:RDF>
  </metadata>
  <defs
     id="defs4" />
  <path
     d="m 49.459717,72.773385 -7.758017,7.976066 -0.38701,-0.089 c -2.02178,-0.469166 -4.078327,-1.098733 -6.117487,-1.870833 l -1.05713,-0.397933 7.18614,-7.394067 0.439064,0.172333 c 1.987206,0.789867 4.055176,1.282934 6.14639,1.467 l 1.548146,0.136667 z M 37.34027,68.746718 29.876787,76.419985 29.408915,76.176318 c -1.74463,-0.9086 -3.448733,-1.888667 -5.066118,-2.921967 l -0.762598,-0.492966 8.636043,-8.8848 0.508399,0.623633 c 1.143752,1.407533 2.466702,2.6666 3.922369,3.735667 z m -12.362023,-3.6584 -5.014165,5.149133 -0.496778,-0.3801 c -1.490431,-1.134366 -2.801663,-2.1915 -4.003226,-3.2367 -0.144434,-0.130666 -0.265724,-0.237666 -0.392774,-0.338566 l -0.623829,-0.522667 4.991021,-5.1135 0.508398,0.445433 c 1.357521,1.181934 2.82471,2.3578 4.344048,3.486234 l 0.06348,0.04767 -0.08086,-0.154333 c -1.010938,-1.8708 -1.82549,-3.8128 -2.397365,-5.772767 l -0.132814,-0.4217 5.909576,-6.075566 0.231054,1.413466 c 0.335059,2.0549 0.947364,4.056367 1.802345,5.939067 l 0.213673,0.4751 -4.927544,5.060067 h 0.0058 z m -8.728524,-7.3584 -4.944731,5.089733 -0.514161,-0.504866 C 9.4795013,61.020051 8.1624103,59.654118 6.8742253,58.240651 l -0.4794926,-0.5286 4.9447313,-5.0838 0.514161,0.5582 c 1.276564,1.407534 2.57637,2.761734 3.858793,4.0207 l 0.537207,0.522667 z m 62.79225,-7.8751 c 0,-5.636133 -1.55391,-11.1594 -4.44229,-15.910667 7.902447,5.642 13.904407,12.424434 16.58478,15.702734 -2.6168,3.218966 -8.480086,9.870733 -16.20353,15.4592 2.668754,-4.6087 4.06094,-9.8172 4.06094,-15.251367 v 0 z m -17.185566,-0.22 c 0,-6.8299 -5.406937,-12.394633 -12.05587,-12.394633 -1.975687,0 -3.92813,0.5167 -5.689947,1.484766 l -7.23233,-7.4297 c 3.80098,-2.815033 8.26065,-4.2998 12.93966,-4.2998 12.281263,0 22.263207,10.2626 22.263207,22.883034 0,4.810633 -1.444144,9.3955 -4.193854,13.3034 l -7.47491,-7.691 c 0.953127,-1.799634 1.444144,-3.8128 1.444144,-5.855867 v 0 z m 36.58363,-2.1084 -0.029,-0.04767 c -0.941504,-1.2829 -6.04815,-8.017566 -13.910267,-14.782233 -11.443567,-9.8469 -23.372387,-15.049533 -34.5097,-15.049533 -6.72989,0 -13.754213,1.906466 -20.882639,5.654 l -11.611144,-11.9374 -4.933306,5.071966 10.317198,10.613 c -2.530085,1.6988 -5.025595,3.5993 -7.417101,5.660234 C 7.6020583,39.473351 2.4955102,46.208218 1.5192398,47.532551 L 0,49.658718 1.582814,51.862051 c 0.161719,0.225667 0.6701179,0.914534 1.4961929,1.936134 l 0.5025394,0.623633 22.8929917,-23.542333 3.026956,3.112133 -7.798445,8.0117 -0.132814,0.148667 -0.05195,0.19 c -0.612403,2.4825 -0.930079,5.018466 -0.930079,7.536633 0,0.546367 0.01153,1.0868 0.04619,1.627333 l 0.104003,1.6333 7.197761,-7.4 0.04619,-0.225666 c 0.618067,-3.290234 1.975685,-6.443734 3.945511,-9.175767 l 7.249715,7.465333 c -0.953127,1.805467 -1.455664,3.818834 -1.455664,5.855867 0,0.101 0.0057,0.201667 0.01167,0.302667 l 0.01167,1.989533 4.61553,-4.7452 3.021193,3.1121 -5.80557,5.968667 0.358203,0.5167 c 1.161134,1.668833 2.703517,3.034866 4.47686,3.9376 l 0.46211,0.237666 5.441607,-5.594533 3.102053,3.177333 -3.627736,3.723734 2.339553,-0.481134 c 1.166893,-0.243666 2.2876,-0.6593 3.35049,-1.253133 l 7.515437,7.7326 c -1.917774,1.461067 -4.02061,2.5834 -6.2503,3.343667 l -9.797177,9.959766 1.629007,0.083 c 2.726663,0.130667 5.609086,-0.101 8.618756,-0.6711 l 0.219534,-0.04767 8.872956,-9.1164 3.899224,4.008866 0.456346,0.303 L 82.79158,88.636418 87.719123,83.564451 76.92253,72.458485 c 2.605277,-1.752067 5.1586,-3.7 7.596297,-5.802467 7.86202,-6.764533 12.968566,-13.499433 13.944836,-14.8297 L 100,49.694351 98.44033,47.526585 Z"
     id="path5"
     inkscape:connector-curvature="0"
     style="stroke-width:0" />
</svg>
