<?xml version="1.0" encoding="UTF-8" standalone="no"?>
<svg
   xmlns:dc="http://purl.org/dc/elements/1.1/"
   xmlns:cc="http://creativecommons.org/ns#"
   xmlns:rdf="http://www.w3.org/1999/02/22-rdf-syntax-ns#"
   xmlns:svg="http://www.w3.org/2000/svg"
   xmlns="http://www.w3.org/2000/svg"
   xmlns:sodipodi="http://sodipodi.sourceforge.net/DTD/sodipodi-0.dtd"
   xmlns:inkscape="http://www.inkscape.org/namespaces/inkscape"
   version="1.1"
   viewBox="0 0 100 100"
   height="100"
   width="100"
   id="icon-share2"
   sodipodi:docname="uE901-external-link.svg"
   inkscape:version="0.92.4 (5da689c313, 2019-01-14)">
  <sodipodi:namedview
     pagecolor="#ffffff"
     bordercolor="#666666"
     borderopacity="1"
     objecttolerance="10"
     gridtolerance="10"
     guidetolerance="10"
     inkscape:pageopacity="0"
     inkscape:pageshadow="2"
     inkscape:window-width="1280"
     inkscape:window-height="971"
     id="namedview6"
     showgrid="false"
     inkscape:zoom="3.9333333"
     inkscape:cx="-30.796205"
     inkscape:cy="-34.181937"
     inkscape:window-x="-8"
     inkscape:window-y="-8"
     inkscape:window-maximized="1"
     inkscape:current-layer="icon-share2" />
  <metadata
     id="metadata12">
    <rdf:RDF>
      <cc:Work
         rdf:about="">
        <dc:format>image/svg+xml</dc:format>
        <dc:type
           rdf:resource="http://purl.org/dc/dcmitype/StillImage" />
        <dc:title></dc:title>
      </cc:Work>
    </rdf:RDF>
  </metadata>
  <defs
     id="defs4" />
  <path
     d="M 10.058399,0 C 4.5434578,0.011 0.07812575,4.4843667 0.07812575,10 c 0,0 0,0 0,0 v 0 80 c 0,0 0,0 0,0 0,5.515633 4.46562505,9.989167 9.97900325,10 h 79.884378 c 5.51494,-0.01 9.980273,-4.484367 9.980273,-10 0,0 0,0 0,0 V 90 60 H 89.941507 V 90 H 10.058301 V 10 H 39.999124 L 40.01879,0 H 10.058301 Z M 59.981057,0 V 10 H 82.87168 l -59.921875,60 7.09043,7.0707 3.534572,-3.534567 L 89.9416,17.0707 V 40 h 9.980274 V 10 c 0,-5.5223667 -4.477637,-10 -10,-10 v 0 z"
     id="path5"
     inkscape:connector-curvature="0"
     style="stroke-width:0" />
</svg>
