<?xml version="1.0" encoding="UTF-8" standalone="no"?>
<svg
   xmlns:dc="http://purl.org/dc/elements/1.1/"
   xmlns:cc="http://creativecommons.org/ns#"
   xmlns:rdf="http://www.w3.org/1999/02/22-rdf-syntax-ns#"
   xmlns:svg="http://www.w3.org/2000/svg"
   xmlns="http://www.w3.org/2000/svg"
   xmlns:sodipodi="http://sodipodi.sourceforge.net/DTD/sodipodi-0.dtd"
   xmlns:inkscape="http://www.inkscape.org/namespaces/inkscape"
   version="1.1"
   viewBox="0 0 100 100"
   height="100"
   width="100"
   id="icon-share2"
   sodipodi:docname="uE905-check.svg"
   inkscape:version="0.92.4 (5da689c313, 2019-01-14)">
  <sodipodi:namedview
     pagecolor="#ffffff"
     bordercolor="#666666"
     borderopacity="1"
     objecttolerance="10"
     gridtolerance="10"
     guidetolerance="10"
     inkscape:pageopacity="0"
     inkscape:pageshadow="2"
     inkscape:window-width="1280"
     inkscape:window-height="971"
     id="namedview6"
     showgrid="false"
     inkscape:zoom="3.9333333"
     inkscape:cx="70.898709"
     inkscape:cy="22.512979"
     inkscape:window-x="-8"
     inkscape:window-y="-8"
     inkscape:window-maximized="1"
     inkscape:current-layer="icon-share2" />
  <metadata
     id="metadata12">
    <rdf:RDF>
      <cc:Work
         rdf:about="">
        <dc:format>image/svg+xml</dc:format>
        <dc:type
           rdf:resource="http://purl.org/dc/dcmitype/StillImage" />
        <dc:title></dc:title>
      </cc:Work>
    </rdf:RDF>
  </metadata>
  <defs
     id="defs4" />
  <path
     d="m 93.445117,11.130916 c -1.685157,0.086 -3.18203,0.827233 -4.25293,1.972167 l -0.0032,0.0033 -55.59912,57.769833 -22.817773,-23.7079 C 9.6320313,45.970083 8.0254883,45.224683 6.2447267,45.224683 2.7958008,45.224683 0,48.020483 0,51.469416 c 0,1.6959 0.67597657,3.233667 1.7731445,4.359067 l -0.00127,-0.0013 31.8179685,33.0496 64.599317,-67.1115 C 99.3084,20.637083 100,19.083283 100,17.367949 c 0,-3.448933 -2.7958,-6.244733 -6.244727,-6.244733 -0.109166,0 -0.217566,0.0027 -0.3253,0.0067 l 0.015,-6e-4 z"
     id="path5"
     inkscape:connector-curvature="0"
     style="stroke-width:0.00000007" />
</svg>
