<?xml version="1.0" encoding="UTF-8" standalone="no"?>
<svg
   xmlns:dc="http://purl.org/dc/elements/1.1/"
   xmlns:cc="http://creativecommons.org/ns#"
   xmlns:rdf="http://www.w3.org/1999/02/22-rdf-syntax-ns#"
   xmlns:svg="http://www.w3.org/2000/svg"
   xmlns="http://www.w3.org/2000/svg"
   xmlns:sodipodi="http://sodipodi.sourceforge.net/DTD/sodipodi-0.dtd"
   xmlns:inkscape="http://www.inkscape.org/namespaces/inkscape"
   version="1.1"
   viewBox="0 0 100 100"
   height="100"
   width="100"
   id="icon-share2"
   sodipodi:docname="uE90E-instagram.svg"
   inkscape:version="0.92.4 (5da689c313, 2019-01-14)">
  <sodipodi:namedview
     pagecolor="#ffffff"
     bordercolor="#666666"
     borderopacity="1"
     objecttolerance="10"
     gridtolerance="10"
     guidetolerance="10"
     inkscape:pageopacity="0"
     inkscape:pageshadow="2"
     inkscape:window-width="1280"
     inkscape:window-height="971"
     id="namedview6"
     showgrid="false"
     inkscape:zoom="7.8666667"
     inkscape:cx="22.657678"
     inkscape:cy="37.430076"
     inkscape:window-x="-8"
     inkscape:window-y="-8"
     inkscape:window-maximized="1"
     inkscape:current-layer="icon-share2" />
  <metadata
     id="metadata12">
    <rdf:RDF>
      <cc:Work
         rdf:about="">
        <dc:format>image/svg+xml</dc:format>
        <dc:type
           rdf:resource="http://purl.org/dc/dcmitype/StillImage" />
        <dc:title></dc:title>
      </cc:Work>
    </rdf:RDF>
  </metadata>
  <defs
     id="defs4" />
  <path
     d="m 53.911509,0 c 10.066473,0.01333331 11.931996,0.08099984 16.70366,0.2989994 5.322056,0.24266618 8.956812,1.0880645 12.137172,2.3241954 3.287977,1.2776307 6.076348,2.987294 8.856322,5.7669884 2.779678,2.7798608 4.489438,5.5683558 5.767266,8.8563158 1.235837,3.18036 2.081245,6.81512 2.324018,12.137176 0.217767,4.771657 0.2867,6.637086 0.298833,16.703766 v 7.823118 c -0.012,10.06648 -0.08107,11.931976 -0.298833,16.703666 -0.242666,5.322056 -1.088084,8.956783 -2.324018,12.137176 -1.277828,3.28796 -2.987491,6.076321 -5.767266,8.856316 -2.779874,2.779661 -5.568345,4.489424 -8.856322,5.767255 -3.18036,1.235831 -6.815116,2.081262 -12.137172,2.324029 C 65.281983,99.942333 63.57935,100 50.000093,100 36.420544,100 34.717914,99.94233 29.384726,99.699001 24.062672,99.456334 20.427917,98.610903 17.247556,97.374972 13.959577,96.097141 11.171206,94.387478 8.3912342,91.607717 5.6115548,88.827822 3.9017942,86.039361 2.6242591,82.751401 1.3881299,79.571008 0.54281995,75.936281 0.30004724,70.614225 0.08227444,65.842535 0.01332934,63.977139 0.00122,53.910559 V 46.087441 C 0.01332931,36.020761 0.08227444,34.155332 0.30004724,29.383675 0.54272242,24.061619 1.3881299,20.426859 2.6242591,17.246499 3.9018919,13.958539 5.6115548,11.170144 8.3912342,8.3901832 11.171109,5.6104888 13.959577,3.9007255 17.247556,2.6231948 20.427917,1.3870639 24.062672,0.54176558 29.384726,0.2989994 34.156392,0.08133317 36.021815,0.01233331 46.088484,0 Z m 0.02533,9.0090486 h -7.873747 c -9.798994,0.01 -11.565394,0.075 -16.267823,0.2896661 -4.875083,0.2223329 -7.522536,1.0368983 -9.284445,1.7215633 -2.333977,0.907031 -3.9995,1.990629 -5.749104,3.740326 -1.7498,1.749596 -2.833293,3.415226 -3.740321,5.749088 -0.684764,1.76193 -1.499312,4.409391 -1.7215769,9.284448 -0.2145496,4.702358 -0.2783195,6.468754 -0.2895495,16.267835 v 7.873717 c 0.011233,9.798881 0.075,11.565277 0.2895495,16.267601 0.2222662,4.87509 1.0369109,7.522552 1.7215769,9.284448 0.907028,2.333995 1.990717,3.999525 3.740321,5.749122 1.749604,1.749796 3.415224,2.833294 5.749104,3.740326 1.761909,0.684765 4.409362,1.499297 9.284445,1.721563 4.701842,0.214666 6.467949,0.278333 16.267529,0.289666 h 7.874294 c 9.799581,-0.01 11.565784,-0.075 16.267335,-0.289666 4.875083,-0.222333 7.522535,-1.036898 9.284444,-1.721563 2.333979,-0.907032 3.999499,-1.99063 5.749106,-3.740326 1.749796,-1.749597 2.833291,-3.415227 3.740319,-5.749122 0.684765,-1.761896 1.499313,-4.409358 1.721576,-9.284448 0.214533,-4.702324 0.278333,-6.46872 0.289533,-16.267601 V 46.061975 C 90.978075,36.262994 90.914408,34.496564 90.699875,29.79414 90.477609,24.919083 89.662964,22.271622 88.978299,20.509692 88.071271,18.17573 86.987679,16.5102 85.23798,14.760604 83.488373,13.010807 81.822753,11.927309 79.488874,11.020278 77.726965,10.335513 75.079513,9.520981 70.20443,9.2987147 65.502099,9.0840485 63.735699,9.020382 53.936802,9.0090486 Z M 50.000037,24.322785 c 14.180428,0 25.675902,11.495477 25.675902,25.676082 0,14.180438 -11.495474,25.675915 -25.675902,25.675915 -14.180719,0 -25.676096,-11.495477 -25.676096,-25.675915 0,-14.180705 11.495474,-25.676082 25.676096,-25.676082 z m 0,9.009048 c -9.204952,0 -16.666944,7.461985 -16.666944,16.666934 0,9.204948 7.461992,16.666766 16.666944,16.666766 9.204855,0 16.666746,-7.461985 16.666746,-16.666766 0,-9.204949 -7.461988,-16.666934 -16.666746,-16.666934 z M 76.690483,17.308065 c 3.31376,0 6.000178,2.686395 6.000178,6.000155 0,3.31376 -2.686418,5.999988 -6.000178,5.999988 -3.31366,0 -5.999981,-2.686228 -5.999981,-5.999988 0,-3.31376 2.686418,-6.000155 5.999981,-6.000155 z"
     style="fill:#091625;stroke-width:0"
     id="path5"
     inkscape:connector-curvature="0" />
</svg>
