<?xml version="1.0" encoding="UTF-8" standalone="no"?>
<svg
   xmlns:dc="http://purl.org/dc/elements/1.1/"
   xmlns:cc="http://creativecommons.org/ns#"
   xmlns:rdf="http://www.w3.org/1999/02/22-rdf-syntax-ns#"
   xmlns:svg="http://www.w3.org/2000/svg"
   xmlns="http://www.w3.org/2000/svg"
   xmlns:sodipodi="http://sodipodi.sourceforge.net/DTD/sodipodi-0.dtd"
   xmlns:inkscape="http://www.inkscape.org/namespaces/inkscape"
   version="1.1"
   viewBox="0 0 100 100"
   height="100"
   width="100"
   id="icon-share2"
   sodipodi:docname="uE915-map.svg"
   inkscape:version="0.92.4 (5da689c313, 2019-01-14)">
  <sodipodi:namedview
     pagecolor="#ffffff"
     bordercolor="#666666"
     borderopacity="1"
     objecttolerance="10"
     gridtolerance="10"
     guidetolerance="10"
     inkscape:pageopacity="0"
     inkscape:pageshadow="2"
     inkscape:window-width="1280"
     inkscape:window-height="971"
     id="namedview6"
     showgrid="false"
     inkscape:zoom="1.9666667"
     inkscape:cx="-56.738298"
     inkscape:cy="-13.325244"
     inkscape:window-x="-8"
     inkscape:window-y="-8"
     inkscape:window-maximized="1"
     inkscape:current-layer="icon-share2" />
  <metadata
     id="metadata12">
    <rdf:RDF>
      <cc:Work
         rdf:about="">
        <dc:format>image/svg+xml</dc:format>
        <dc:type
           rdf:resource="http://purl.org/dc/dcmitype/StillImage" />
        <dc:title></dc:title>
      </cc:Work>
    </rdf:RDF>
  </metadata>
  <defs
     id="defs4" />
  <path
     d="m 9.694687,31.173825 c 0,-1.578531 1.488768,-2.630963 2.977729,-2.210064 v 0 l 20.41854,6.314259 V 100 L 11.289898,93.264742 C 10.332773,92.949043 9.694687,92.107144 9.694687,91.054712 v 0 z m 36.476818,1.683798 12.44255,19.048208 c 0.744432,1.157598 1.807898,2.104764 3.084063,2.630963 v 0 38.201682 L 38.301882,99.9999 V 35.27792 l 7.869623,-2.420397 z m 36.264185,-0.105333 6.274425,1.89433 c 0.957132,0.315667 1.595198,1.157632 1.595198,2.210064 v 0 59.880987 c 0,1.578498 -1.488765,2.630963 -2.97773,2.210064 v 0 L 66.802711,92.633476 V 54.431761 c 1.276165,-0.421 2.445997,-1.368165 3.190329,-2.525664 v 0 L 82.43559,32.75259 Z M 64.332714,0 65.313946,0.0233333 c 9.783987,0.5261993 17.653577,8.6295885 17.866176,18.2063427 0.106334,3.578128 -0.850765,6.94579 -2.55233,9.892453 v 0 L 66.483678,49.8013 c -1.063365,1.578531 -3.403129,1.578531 -4.466494,0 v 0 L 47.873069,28.122129 c -1.595231,-2.73623 -2.552363,-5.998625 -2.552363,-9.366187 0,-10.7343527 9.145788,-19.25877466 19.99314,-18.7325087 z m -0.08233,9.4945207 c -5.104693,0 -9.252154,4.1043943 -9.252154,9.1557543 0,5.05136 4.147561,9.155755 9.252154,9.155755 5.10466,0 9.252121,-4.104395 9.252121,-9.155755 0,-5.05136 -4.147561,-9.1557543 -9.252121,-9.1557543 z"
     style="fill:#091625;stroke-width:0"
     id="path5"
     inkscape:connector-curvature="0" />
</svg>
