<?xml version="1.0" encoding="UTF-8" standalone="no"?>
<svg
   xmlns:dc="http://purl.org/dc/elements/1.1/"
   xmlns:cc="http://creativecommons.org/ns#"
   xmlns:rdf="http://www.w3.org/1999/02/22-rdf-syntax-ns#"
   xmlns:svg="http://www.w3.org/2000/svg"
   xmlns="http://www.w3.org/2000/svg"
   xmlns:sodipodi="http://sodipodi.sourceforge.net/DTD/sodipodi-0.dtd"
   xmlns:inkscape="http://www.inkscape.org/namespaces/inkscape"
   version="1.1"
   viewBox="0 0 100 100"
   height="100"
   width="100"
   id="icon-share2"
   sodipodi:docname="uE911-clock.svg"
   inkscape:version="0.92.4 (5da689c313, 2019-01-14)">
  <sodipodi:namedview
     pagecolor="#ffffff"
     bordercolor="#666666"
     borderopacity="1"
     objecttolerance="10"
     gridtolerance="10"
     guidetolerance="10"
     inkscape:pageopacity="0"
     inkscape:pageshadow="2"
     inkscape:window-width="1280"
     inkscape:window-height="971"
     id="namedview6"
     showgrid="false"
     inkscape:zoom="1.9666667"
     inkscape:cx="10.55527"
     inkscape:cy="2.9353587"
     inkscape:window-x="-8"
     inkscape:window-y="-8"
     inkscape:window-maximized="1"
     inkscape:current-layer="icon-share2" />
  <metadata
     id="metadata12">
    <rdf:RDF>
      <cc:Work
         rdf:about="">
        <dc:format>image/svg+xml</dc:format>
        <dc:type
           rdf:resource="http://purl.org/dc/dcmitype/StillImage" />
        <dc:title></dc:title>
      </cc:Work>
    </rdf:RDF>
  </metadata>
  <defs
     id="defs4" />
  <path
     d="m 49.649994,17.679506 c -1.887815,0 -3.418303,1.530485 -3.418303,3.418307 v 30.758959 c 0,1.264548 0.689071,2.364561 1.708617,2.956167 l 24.672257,14.239233 c 1.63547,0.945211 3.720747,0.390238 4.663435,-1.245214 0.945228,-1.634119 0.390238,-3.720777 -1.245228,-4.663455 L 53.067124,49.899515 V 21.098013 c 0,-1.887822 -1.529314,-3.418307 -3.41713,-3.418307 z m 0.350004,75.003309 c -23.617365,0 -42.6834076,-19.064756 -42.6834076,-42.682232 0,-23.617475 19.0661396,-42.6833976 42.6834076,-42.6833976 23.616193,0 42.683408,19.0661226 42.683408,42.6833976 0,23.617276 -19.067312,42.682232 -42.683408,42.682232 z M 49.999998,0 V 0 C 22.428974,0 -5.85e-4,22.429562 -5.85e-4,50.000583 -5.85e-4,77.571605 22.428974,100 49.999998,100 77.571023,100 100.00059,77.571705 100.00059,50.000583 100.00059,22.429462 77.571023,0 49.999998,0 Z"
     style="fill:#091625;stroke-width:0"
     id="path5"
     inkscape:connector-curvature="0" />
</svg>
