<?xml version="1.0" encoding="UTF-8" standalone="no"?>
<svg
   xmlns:dc="http://purl.org/dc/elements/1.1/"
   xmlns:cc="http://creativecommons.org/ns#"
   xmlns:rdf="http://www.w3.org/1999/02/22-rdf-syntax-ns#"
   xmlns:svg="http://www.w3.org/2000/svg"
   xmlns="http://www.w3.org/2000/svg"
   xmlns:sodipodi="http://sodipodi.sourceforge.net/DTD/sodipodi-0.dtd"
   xmlns:inkscape="http://www.inkscape.org/namespaces/inkscape"
   version="1.1"
   viewBox="0 0 100 100"
   height="100"
   width="100"
   id="icon-share2"
   sodipodi:docname="uE912-timer.svg"
   inkscape:version="0.92.4 (5da689c313, 2019-01-14)">
  <sodipodi:namedview
     pagecolor="#ffffff"
     bordercolor="#666666"
     borderopacity="1"
     objecttolerance="10"
     gridtolerance="10"
     guidetolerance="10"
     inkscape:pageopacity="0"
     inkscape:pageshadow="2"
     inkscape:window-width="1280"
     inkscape:window-height="971"
     id="namedview6"
     showgrid="false"
     inkscape:zoom="2.7812867"
     inkscape:cx="2.1302308"
     inkscape:cy="19.020234"
     inkscape:window-x="-8"
     inkscape:window-y="-8"
     inkscape:window-maximized="1"
     inkscape:current-layer="icon-share2" />
  <metadata
     id="metadata12">
    <rdf:RDF>
      <cc:Work
         rdf:about="">
        <dc:format>image/svg+xml</dc:format>
        <dc:type
           rdf:resource="http://purl.org/dc/dcmitype/StillImage" />
        <dc:title></dc:title>
      </cc:Work>
    </rdf:RDF>
  </metadata>
  <defs
     id="defs4" />
  <path
     d="M 64.694649,65.595633 50.487583,56.2552 35.46795,65.670067 c -2.528034,1.586133 -4.039267,4.2127 -4.039267,7.0213 V 91.489233 H 68.571617 V 72.5106 c -0.0012,-2.743667 -1.443868,-5.3181 -3.876868,-6.914967 z m 4.1554,-37.478766 V 8.5104667 H 31.707083 V 28.296733 c 0.0012,2.744634 1.443866,5.318067 3.876867,6.914967 l 14.207066,9.3414 15.008033,-9.446767 c 2.522167,-1.578633 4.035767,-4.191533 4.0509,-6.9894 z M 77.857184,72.5106 v 18.978633 h 8.125 c 2.564066,0 4.642799,1.9053 4.642799,4.2554 0,2.3501 -2.0789,4.255367 -4.642799,4.255367 H 14.0178 c -2.56407,0 -4.6427835,-1.905267 -4.6427835,-4.255367 0,-2.3501 2.0789105,-4.2554 4.6427835,-4.2554 h 8.125016 V 72.691367 c 0.007,-5.627667 3.048067,-10.887334 8.125,-14.053167 L 43.035716,50.606333 30.140083,42.0958 C 25.275549,38.900067 22.388909,33.751133 22.386566,28.266067 V 8.5107667 H 14.0178 c -2.56407,0 -4.6427835,-1.9053 -4.6427835,-4.2554 C 9.3750165,1.9052667 11.453927,0 14.0178,0 h 71.964384 c 2.564066,0 4.642799,1.9052667 4.642799,4.2553667 0,2.3501 -2.0789,4.2554 -4.642799,4.2554 h -7.8464 V 28.117133 c -0.0067,5.627667 -3.0492,10.887334 -8.125,14.053167 l -12.791034,8.0426 12.8839,8.510567 C 74.955517,61.9096 77.839783,67.0394 77.857184,72.5107 Z"
     style="fill:#091625;stroke-width:0"
     id="path5"
     inkscape:connector-curvature="0" />
</svg>
