<?xml version="1.0" encoding="UTF-8" standalone="no"?>
<svg
   xmlns:dc="http://purl.org/dc/elements/1.1/"
   xmlns:cc="http://creativecommons.org/ns#"
   xmlns:rdf="http://www.w3.org/1999/02/22-rdf-syntax-ns#"
   xmlns:svg="http://www.w3.org/2000/svg"
   xmlns="http://www.w3.org/2000/svg"
   xmlns:sodipodi="http://sodipodi.sourceforge.net/DTD/sodipodi-0.dtd"
   xmlns:inkscape="http://www.inkscape.org/namespaces/inkscape"
   version="1.1"
   viewBox="0 0 100 100"
   height="100"
   width="100"
   id="icon-share2"
   sodipodi:docname="uE919-pro.svg"
   inkscape:version="0.92.4 (5da689c313, 2019-01-14)">
  <sodipodi:namedview
     pagecolor="#ffffff"
     bordercolor="#666666"
     borderopacity="1"
     objecttolerance="10"
     gridtolerance="10"
     guidetolerance="10"
     inkscape:pageopacity="0"
     inkscape:pageshadow="2"
     inkscape:window-width="1280"
     inkscape:window-height="971"
     id="namedview6"
     showgrid="false"
     inkscape:zoom="7.8666667"
     inkscape:cx="-14.969441"
     inkscape:cy="-3.7563651"
     inkscape:window-x="-8"
     inkscape:window-y="-8"
     inkscape:window-maximized="1"
     inkscape:current-layer="icon-share2" />
  <metadata
     id="metadata12">
    <rdf:RDF>
      <cc:Work
         rdf:about="">
        <dc:format>image/svg+xml</dc:format>
        <dc:type
           rdf:resource="http://purl.org/dc/dcmitype/StillImage" />
        <dc:title></dc:title>
      </cc:Work>
    </rdf:RDF>
  </metadata>
  <defs
     id="defs4" />
  <path
     d="m 52.564333,50.991633 c 1.612633,4.5623 2.6388,4.267867 -0.879167,6.916834 v 0 L 54.323966,78.0712 69.276767,52.757133 C 84.9068,56.9904 96.542433,51.8737 96.542433,78.365633 v 0 V 100 H 3.4575665 V 78.365633 c 0,-26.490666 8.7270665,-21.3751 27.2656665,-25.6085 v 0 l 14.952833,25.314067 2.6388,-20.162733 c -3.665199,-2.648967 -2.491799,-2.354534 -1.0264,-6.916834 v 0 z M 49.998666,0 c 11.250233,0 20.3625,10.738433 20.3625,23.996667 0,13.258233 -9.112032,23.996666 -20.362499,23.996666 C 38.748434,47.993333 29.6362,37.2549 29.6362,23.996667 29.636199,10.738433 38.748199,0 49.998666,0 Z"
     style="fill:#091625;stroke-width:0"
     id="path5"
     inkscape:connector-curvature="0" />
</svg>
