<?xml version="1.0" encoding="UTF-8" standalone="no"?>
<svg
   xmlns:dc="http://purl.org/dc/elements/1.1/"
   xmlns:cc="http://creativecommons.org/ns#"
   xmlns:rdf="http://www.w3.org/1999/02/22-rdf-syntax-ns#"
   xmlns:svg="http://www.w3.org/2000/svg"
   xmlns="http://www.w3.org/2000/svg"
   xmlns:sodipodi="http://sodipodi.sourceforge.net/DTD/sodipodi-0.dtd"
   xmlns:inkscape="http://www.inkscape.org/namespaces/inkscape"
   id="icon-share2"
   width="100"
   height="100"
   viewBox="0 0 100 100"
   version="1.1"
   sodipodi:docname="uE927-share.svg"
   inkscape:version="0.92.4 (5da689c313, 2019-01-14)">
  <metadata
     id="metadata12">
    <rdf:RDF>
      <cc:Work
         rdf:about="">
        <dc:format>image/svg+xml</dc:format>
        <dc:type
           rdf:resource="http://purl.org/dc/dcmitype/StillImage" />
        <dc:title></dc:title>
      </cc:Work>
    </rdf:RDF>
  </metadata>
  <sodipodi:namedview
     pagecolor="#ffffff"
     bordercolor="#666666"
     borderopacity="1"
     objecttolerance="10"
     gridtolerance="10"
     guidetolerance="10"
     inkscape:pageopacity="0"
     inkscape:pageshadow="2"
     inkscape:window-width="1280"
     inkscape:window-height="971"
     id="namedview10"
     showgrid="false"
     inkscape:zoom="7.8666667"
     inkscape:cx="-8.1991525"
     inkscape:cy="15"
     inkscape:window-x="-8"
     inkscape:window-y="-8"
     inkscape:window-maximized="1"
     inkscape:current-layer="icon-share2" />
  <defs
     id="defs4" />
  <g
     id="Groupe_10"
     data-name="Groupe 10"
     transform="matrix(5.1430525,0,0,5.1430525,4.9982906,-0.00151261)">
    <path
       id="Combined_Shape-2"
       data-name="Combined Shape"
       d="M 2.917,19.444 A 2.917,2.917 0 0 1 0,16.527 V 9.722 a 0.972,0.972 0 1 1 1.944,0 v 6.805 A 0.973,0.973 0 0 0 2.917,17.5 h 11.666 a 0.972,0.972 0 0 0 0.972,-0.973 V 9.722 a 0.973,0.973 0 0 1 1.945,0 v 6.805 a 2.917,2.917 0 0 1 -2.917,2.917 z m 4.861,-6.805 v -9.32 l -2.23,2.23 A 0.972,0.972 0 0 1 4.174,4.174 L 8.057,0.291 A 0.976,0.976 0 0 1 8.156,0.2 v 0 L 8.175,0.188 v 0 L 8.194,0.175 v 0 l 0.02,-0.014 v 0 L 8.235,0.148 v 0 l 0.02,-0.013 v 0 l 0.02,-0.012 v 0 a 0.973,0.973 0 0 1 0.946,0 v 0 l 0.018,0.01 v 0 l 0.014,0.008 0.016,0.009 0.01,0.006 0.012,0.008 h 0.006 l 0.014,0.01 v 0 l 0.017,0.012 v 0 a 0.983,0.983 0 0 1 0.106,0.091 l 3.889,3.889 A 0.97262544,0.97262544 0 1 1 11.947,5.541 L 9.722,3.319 v 9.32 a 0.972,0.972 0 0 1 -1.944,0 z"
       inkscape:connector-curvature="0"
       style="fill:#091625" />
  </g>
</svg>
