<?xml version="1.0" encoding="UTF-8" standalone="no"?>
<svg
   xmlns:dc="http://purl.org/dc/elements/1.1/"
   xmlns:cc="http://creativecommons.org/ns#"
   xmlns:rdf="http://www.w3.org/1999/02/22-rdf-syntax-ns#"
   xmlns:svg="http://www.w3.org/2000/svg"
   xmlns="http://www.w3.org/2000/svg"
   xmlns:sodipodi="http://sodipodi.sourceforge.net/DTD/sodipodi-0.dtd"
   xmlns:inkscape="http://www.inkscape.org/namespaces/inkscape"
   id="icon-share2"
   width="100"
   height="100"
   viewBox="0 0 100 100"
   version="1.1"
   sodipodi:docname="uE929-comment.svg"
   inkscape:version="0.92.4 (5da689c313, 2019-01-14)">
  <metadata
     id="metadata12">
    <rdf:RDF>
      <cc:Work
         rdf:about="">
        <dc:format>image/svg+xml</dc:format>
        <dc:type
           rdf:resource="http://purl.org/dc/dcmitype/StillImage" />
        <dc:title></dc:title>
      </cc:Work>
    </rdf:RDF>
  </metadata>
  <sodipodi:namedview
     pagecolor="#ffffff"
     bordercolor="#666666"
     borderopacity="1"
     objecttolerance="10"
     gridtolerance="10"
     guidetolerance="10"
     inkscape:pageopacity="0"
     inkscape:pageshadow="2"
     inkscape:window-width="1280"
     inkscape:window-height="971"
     id="namedview10"
     showgrid="false"
     inkscape:zoom="3.9333334"
     inkscape:cx="37.973427"
     inkscape:cy="16.484462"
     inkscape:window-x="-8"
     inkscape:window-y="-8"
     inkscape:window-maximized="1"
     inkscape:current-layer="icon-share2" />
  <defs
     id="defs4" />
  <g
     id="Groupe_10"
     data-name="Groupe 10"
     transform="matrix(0.09765625,0,0,-0.09765625,0,93.75)">
    <path
       id="Combined_Shape-2"
       data-name="Combined Shape"
       d="M 511.999,813.714 C 274.285,813.714 73.142,680 73.142,521.143 c 0,-85.143 57.143,-166.286 156,-222.286 l 49.714,-28.571 -15.429,-54.857 c -10.857,-40.571 -25.143,-72 -40,-98.286 57.714,24 110.286,56.571 157.143,97.714 l 24.571,21.714 32.571,-3.429 c 24.571,-2.857 49.714,-4.571 74.286,-4.571 237.714,0 438.857,133.714 438.857,292.571 0,158.857 -201.143,292.571 -438.857,292.571 z m 512,-292.571 c 0,-202.286 -229.143,-365.714 -512,-365.714 -28,0 -56,1.714 -82.857,4.571 C 354.285,93.714 265.142,46.857 166.285,21.714 145.714,16 123.428,12 101.142,9.143 h -2.857 c -11.429,0 -21.714,9.143 -24.571,21.714 v 0.571 c -2.857,14.286 6.857,22.857 15.429,33.143 36,40.571 77.143,74.857 104,170.286 C 75.429,301.714 0,405.143 0,521.143 0,723.429 229.143,886.857 512,886.857 v 0 c 282.857,0 512,-163.429 512,-365.714 z"
       inkscape:connector-curvature="0"
       style="fill:#091625" />
  </g>
</svg>
