<?xml version="1.0" encoding="UTF-8" standalone="no"?>
<svg
   xmlns:dc="http://purl.org/dc/elements/1.1/"
   xmlns:cc="http://creativecommons.org/ns#"
   xmlns:rdf="http://www.w3.org/1999/02/22-rdf-syntax-ns#"
   xmlns:svg="http://www.w3.org/2000/svg"
   xmlns="http://www.w3.org/2000/svg"
   xmlns:sodipodi="http://sodipodi.sourceforge.net/DTD/sodipodi-0.dtd"
   xmlns:inkscape="http://www.inkscape.org/namespaces/inkscape"
   id="icon-share2"
   width="100"
   height="100"
   viewBox="0 0 100 100"
   version="1.1"
   sodipodi:docname="uE921-dossier.svg"
   inkscape:version="0.92.4 (5da689c313, 2019-01-14)">
  <metadata
     id="metadata12">
    <rdf:RDF>
      <cc:Work
         rdf:about="">
        <dc:format>image/svg+xml</dc:format>
        <dc:type
           rdf:resource="http://purl.org/dc/dcmitype/StillImage" />
        <dc:title></dc:title>
      </cc:Work>
    </rdf:RDF>
  </metadata>
  <sodipodi:namedview
     pagecolor="#ffffff"
     bordercolor="#666666"
     borderopacity="1"
     objecttolerance="10"
     gridtolerance="10"
     guidetolerance="10"
     inkscape:pageopacity="0"
     inkscape:pageshadow="2"
     inkscape:window-width="1280"
     inkscape:window-height="971"
     id="namedview10"
     showgrid="false"
     inkscape:zoom="1.9666667"
     inkscape:cx="2.2892511"
     inkscape:cy="62.656592"
     inkscape:window-x="-8"
     inkscape:window-y="-8"
     inkscape:window-maximized="1"
     inkscape:current-layer="icon-share2" />
  <defs
     id="defs4" />
  <path
     id="path5"
     style="fill:#091625;stroke-width:0"
     inkscape:connector-curvature="0"
     d="M 10,20 H 0 v 70 c 0,5.5 4.5,10 10,10 H 80 V 90 H 10 Z M 90,0 H 30 C 24.5,0 20,4.5 20,10 v 60 c 0,5.5 4.5,10 10,10 h 60 c 5.5,0 10,-4.5 10,-10 V 10 C 100,4.5 95.5,0 90,0 Z M 85.000097,45 H 35 V 35 H 85.000097 Z M 65,65.0001 H 35 v -10 h 30 z m 20.000097,-40 H 35 v -10 h 50.000097 z" />
</svg>
