<?xml version="1.0" encoding="UTF-8" standalone="no"?>
<svg
   id="icon-maximize"
   width="100"
   height="100"
   viewBox="0 0 100 100"
   version="1.1"
   sodipodi:docname="uEA45-maximize.svg"
   inkscape:version="1.1.1 (3bf5ae0d25, 2021-09-20)"
   xmlns:inkscape="http://www.inkscape.org/namespaces/inkscape"
   xmlns:sodipodi="http://sodipodi.sourceforge.net/DTD/sodipodi-0.dtd"
   xmlns="http://www.w3.org/2000/svg"
   xmlns:svg="http://www.w3.org/2000/svg">
  <defs
     id="defs10" />
  <sodipodi:namedview
     id="namedview8"
     pagecolor="#ffffff"
     bordercolor="#cccccc"
     borderopacity="1"
     inkscape:pageshadow="0"
     inkscape:pageopacity="1"
     inkscape:pagecheckerboard="0"
     showgrid="false"
     fit-margin-top="0"
     fit-margin-left="0"
     fit-margin-right="0"
     fit-margin-bottom="0"
     inkscape:zoom="3.3166667"
     inkscape:cx="108.99497"
     inkscape:cy="108.69347"
     inkscape:window-width="2880"
     inkscape:window-height="1721"
     inkscape:window-x="1909"
     inkscape:window-y="3"
     inkscape:window-maximized="1"
     inkscape:current-layer="icon-maximize" />
  <g
     id="Flèche"
     transform="matrix(5.701049,0,0,5.701049,0.01575945,0.04878974)">
    <path
       id="Tracé_103"
       style="stroke-width:3.33333"
       d="m 58.212891,20.800781 a 2.9066666,2.9066666 0 0 0 -2.888672,2.916016 2.9066666,2.9066666 0 0 0 2.888672,2.916015 H 69.134766 L 26.550781,69.216797 V 58.210938 a 2.9133333,2.9133333 0 0 0 -2.917969,-2.917969 2.9066666,2.9066666 0 0 0 -2.888671,2.917969 v 21 h 21 a 2.9066666,2.9066666 0 0 0 2.878906,-2.927735 2.9066666,2.9066666 0 0 0 -2.890625,-2.916015 H 30.679688 L 73.369141,30.677734 v 11.111328 a 2.9166666,2.9166666 0 0 0 2.943359,2.917969 2.9066666,2.9066666 0 0 0 2.900391,-2.90625 v -21 z"
       transform="matrix(0.3,0,0,0.3,-6.226,-6.2400001)" />
  </g>
</svg>
