<?xml version="1.0" encoding="UTF-8" standalone="no"?>
<!-- Generated by IcoMoon.io -->

<svg
   version="1.1"
   width="100"
   height="100"
   viewBox="0 0 100 100"
   id="svg6"
   sodipodi:docname="check-circle.svg"
   inkscape:version="1.1.1 (3bf5ae0d25, 2021-09-20)"
   xmlns:inkscape="http://www.inkscape.org/namespaces/inkscape"
   xmlns:sodipodi="http://sodipodi.sourceforge.net/DTD/sodipodi-0.dtd"
   xmlns="http://www.w3.org/2000/svg"
   xmlns:svg="http://www.w3.org/2000/svg"
   xmlns:rdf="http://www.w3.org/1999/02/22-rdf-syntax-ns#"
   xmlns:cc="http://creativecommons.org/ns#"
   xmlns:dc="http://purl.org/dc/elements/1.1/">
  <defs
     id="defs10" />
  <sodipodi:namedview
     id="namedview8"
     pagecolor="#ffffff"
     bordercolor="#cccccc"
     borderopacity="1"
     inkscape:pageshadow="0"
     inkscape:pageopacity="1"
     inkscape:pagecheckerboard="0"
     showgrid="false"
     inkscape:zoom="24.875"
     inkscape:cx="13.447236"
     inkscape:cy="15.979899"
     inkscape:window-width="2880"
     inkscape:window-height="1541"
     inkscape:window-x="2869"
     inkscape:window-y="-11"
     inkscape:window-maximized="1"
     inkscape:current-layer="svg6" />
  <title
     id="title2">check-circle</title>
  <path
     d="m 29.5,40.5 -7,7 L 45,70 95,20 88,13 45,55.75 Z M 90,50 C 90,72 72,90 50,90 28,90 10,72 10,50 10,28 28,10 50,10 c 3.75,0 7.5,0.5 11,1.5 L 68.75,3.75 C 63,1.25 56.75,0 50,0 22.5,0 0,22.5 0,50 c 0,27.5 22.5,50 50,50 27.5,0 50,-22.5 50,-50 z"
     id="path4"
     style="stroke-width:3.125" />
  <metadata
     id="metadata926">
    <rdf:RDF>
      <cc:Work
         rdf:about="">
        <dc:title>check-circle</dc:title>
      </cc:Work>
    </rdf:RDF>
  </metadata>
</svg>
