<?xml version="1.0" encoding="UTF-8" standalone="no"?>
<!-- Generator: Adobe Illustrator 24.0.2, SVG Export Plug-In . SVG Version: 6.00 Build 0)  -->

<svg
   version="1.1"
   id="Calque_1"
   x="0px"
   y="0px"
   width="100"
   height="100"
   viewBox="0 0 100 100"
   xml:space="preserve"
   sodipodi:docname="uEA58-map-o.svg"
   inkscape:version="1.1.1 (3bf5ae0d25, 2021-09-20)"
   xmlns:inkscape="http://www.inkscape.org/namespaces/inkscape"
   xmlns:sodipodi="http://sodipodi.sourceforge.net/DTD/sodipodi-0.dtd"
   xmlns="http://www.w3.org/2000/svg"
   xmlns:svg="http://www.w3.org/2000/svg"><defs
   id="defs29">
	
	

		
	
		
	
			
			
			
		
				
			</defs><sodipodi:namedview
   id="namedview27"
   pagecolor="#ffffff"
   bordercolor="#cccccc"
   borderopacity="1"
   inkscape:pageshadow="0"
   inkscape:pageopacity="1"
   inkscape:pagecheckerboard="0"
   showgrid="false"
   inkscape:zoom="1.8090909"
   inkscape:cx="-112.48744"
   inkscape:cy="112.48744"
   inkscape:window-width="2880"
   inkscape:window-height="1541"
   inkscape:window-x="2869"
   inkscape:window-y="-11"
   inkscape:window-maximized="1"
   inkscape:current-layer="Calque_1" />
<style
   type="text/css"
   id="style2">
	.st0{fill:none;}
	.st1{fill:#091625;stroke:#091625;stroke-width:1.8;stroke-miterlimit:10;}
	.st2{fill:#091625;}
	.st3{fill:#091625;stroke:#091625;stroke-width:1.8;stroke-linecap:round;stroke-miterlimit:10;}
</style>
<path
   id="path1851"
   style="color:#000000;fill:#091625;stroke:none;stroke-width:3.38985;stroke-miterlimit:10;-inkscape-stroke:none"
   d="m 63.306944,7.475e-5 c -11.282297,0 -20.152999,9.30176795 -20.152999,20.71576825 0,6.996214 3.671221,13.566423 9.26545,19.935984 1.137185,1.359989 3.216754,3.222029 5.134803,4.903074 0.962537,0.843601 1.868432,1.619581 2.545333,2.195902 0.33845,0.288162 0.62032,0.525142 0.820244,0.695185 0.09996,0.08503 0.178325,0.152619 0.231729,0.198623 0.0267,0.02299 0.06665,0.06296 0.08092,0.07725 l 0.05149,0.05149 0.139775,0.09196 c 1.142979,0.761986 2.613013,0.685253 3.770181,0.106667 l 0.246441,-0.121375 0.114031,-0.11034 c -0.0041,0.0075 0.195788,-0.185237 0.345753,-0.316328 0.199955,-0.174803 0.482563,-0.418697 0.820245,-0.713577 0.675366,-0.589761 1.578843,-1.383902 2.537975,-2.236361 1.918265,-1.704915 4.006488,-3.588728 5.094343,-4.785371 v -0.0038 C 79.968941,34.48758 83.647534,27.888638 83.647534,20.71577 83.647534,9.1089227 74.568699,1.35e-6 63.306946,1.35e-6 Z m 0.18759,7.15782795 c 7.139699,0 12.967641,5.9443743 12.987815,13.5211583 -0.174427,4.666355 -2.933971,10.017787 -7.474155,15.102795 l -0.02207,0.02943 -0.02574,0.02574 c -0.695285,0.849795 -2.292241,2.375942 -3.707651,3.652478 -0.64582,0.582454 -1.231694,1.098022 -1.728767,1.53382 -0.543158,-0.506707 -0.9033,-0.849264 -1.765554,-1.655192 -1.421942,-1.329051 -3.005289,-2.822729 -3.814321,-3.630409 -4.903232,-5.271727 -7.441049,-10.359019 -7.441049,-15.021874 0,-7.621182 5.629598,-13.5579413 12.991492,-13.5579413 z m -0.18759,5.6497543 c -4.331479,0 -7.720597,3.389119 -7.720597,7.720597 0,4.331479 3.389118,7.908186 7.720597,7.908186 4.331478,0 7.720595,-3.389118 7.720595,-7.720597 0,-4.331479 -3.389117,-7.908186 -7.720595,-7.908186 z m 0,4.708129 c 1.883251,0 3.200057,1.316805 3.200057,3.200057 0,1.883252 -1.316806,3.203735 -3.200057,3.203735 -1.883252,0 -3.203735,-1.320483 -3.203735,-3.203735 0,-1.883252 1.320483,-3.200057 3.203735,-3.200057 z M 11.131312,24.78396 c -0.913927,-0.01904 -1.6608553,0.342164 -2.2510753,0.735645 l -0.139775,0.09196 -0.117703,0.117703 c -0.378212,0.378209 -1.250596,1.199836 -1.250596,2.519583 v 61.205676 c 0,0.802036 0.256069,1.483483 0.665758,2.096589 0.409694,0.613103 1.014044,1.199733 1.938425,1.430833 l 26.3692003,7.01805 h 0.595874 0.59955 l 25.582059,-6.90771 25.387114,6.72012 h 0.595874 c 0.93721,0 1.549785,-0.28079 2.140726,-0.87174 0.378214,-0.37821 1.250598,-1.19984 1.250598,-2.51958 V 35.700934 c 0.2098,-0.695106 0.178376,-1.49472 -0.180233,-2.159118 -0.404961,-0.750257 -1.138713,-1.235083 -1.916355,-1.441864 l -5.090666,-2.037737 -3.284655,6.197809 3.880529,1.596352 V 91.952039 L 66.885856,86.835629 V 51.980763 l -2.0267,0.404603 c 0,0 -0.835695,0.154483 -1.552212,0.154483 -0.716517,0 -1.28738,-0.136102 -1.28738,-0.136102 L 59.91562,51.881449 v 34.95418 l -19.020106,5.11641 V 38.132242 l 4.237316,-1.408761 -1.088755,-1.813364 c -0.461781,-0.769636 -1.034069,-2.168925 -2.011989,-3.391325 l -0.739323,-0.923234 -4.020301,1.342551 -25.217916,-6.992306 c -0.300364,-0.100114 -0.617183,-0.155462 -0.923234,-0.161847 z m 3.39868,8.309113 19.207695,5.120091 V 92.187449 L 14.529992,87.026897 Z" />
</svg>
