<?xml version="1.0" encoding="UTF-8" standalone="no"?>
<!-- Generator: Adobe Illustrator 24.0.2, SVG Export Plug-In . SVG Version: 6.00 Build 0)  -->

<svg
   version="1.1"
   id="Calque_1"
   x="0px"
   y="0px"
   width="100"
   height="100"
   viewBox="0 0 100 100"
   xml:space="preserve"
   sodipodi:docname="hygiaphone.svg"
   inkscape:version="1.1.1 (3bf5ae0d25, 2021-09-20)"
   xmlns:inkscape="http://www.inkscape.org/namespaces/inkscape"
   xmlns:sodipodi="http://sodipodi.sourceforge.net/DTD/sodipodi-0.dtd"
   xmlns="http://www.w3.org/2000/svg"
   xmlns:svg="http://www.w3.org/2000/svg"><defs
   id="defs12" /><sodipodi:namedview
   id="namedview10"
   pagecolor="#ffffff"
   bordercolor="#cccccc"
   borderopacity="1"
   inkscape:pageshadow="0"
   inkscape:pageopacity="1"
   inkscape:pagecheckerboard="0"
   showgrid="false"
   inkscape:zoom="7.2363636"
   inkscape:cx="87.405779"
   inkscape:cy="34.06407"
   inkscape:window-width="2880"
   inkscape:window-height="1541"
   inkscape:window-x="2869"
   inkscape:window-y="-11"
   inkscape:window-maximized="1"
   inkscape:current-layer="XMLID_16_" />
<style
   type="text/css"
   id="style2">
	.st0{fill:none;stroke:#091625;stroke-width:3.5;stroke-linecap:round;stroke-linejoin:round;stroke-miterlimit:10;}
</style>
<g
   id="XMLID_16_">
	<path
   id="path1081"
   style="color:#000000;fill:#091625;stroke-width:2.05342;stroke-linecap:round;stroke-linejoin:round;stroke-miterlimit:10;-inkscape-stroke:none"
   d="M 96.95998,2.5061101 A 3.5938462,3.5938462 0 0 0 95.283549,2.64247 L 39.151361,21.147324 H 12.011712 C 5.3098278,21.147324 3e-7,26.685442 3e-7,33.163045 v 17.65862 c 0,6.597724 5.4139865,12.01171 12.0117117,12.01171 h 6.019893 l 3.140291,28.627576 a 3.5938462,3.5938462 0 0 0 0.004,0.05214 c 0.397343,3.178743 3.206066,6.023904 6.645544,6.023904 h 12.529076 c 3.974754,0 7.137964,-3.339709 6.645544,-7.319323 L 44.136521,64.477715 95.283549,81.338228 A 3.5938462,3.5938462 0 0 0 100,77.925217 V 6.0554804 A 3.5938462,3.5938462 0 0 0 96.95998,2.5061101 Z M 92.813027,11.024599 V 72.9561 L 43.530922,56.709207 V 27.271492 Z M 12.011712,28.334298 H 36.139409 V 55.646401 H 21.252106 12.011712 c -2.8480033,0 -4.8247383,-1.976734 -4.8247383,-4.824736 v -17.65862 c 0,-2.55744 2.080894,-4.828747 4.8247383,-4.828747 z m 13.250982,34.499077 h 11.45825 L 39.777011,90.35002 H 28.278657 Z" />
	
	
</g>
</svg>
