<?xml version="1.0" encoding="UTF-8" standalone="no"?>
<!-- Generated by IcoMoon.io -->

<svg
   version="1.1"
   width="100"
   height="100"
   viewBox="0 0 100 100"
   id="svg6"
   sodipodi:docname="quote.svg"
   inkscape:version="1.1.1 (3bf5ae0d25, 2021-09-20)"
   xmlns:inkscape="http://www.inkscape.org/namespaces/inkscape"
   xmlns:sodipodi="http://sodipodi.sourceforge.net/DTD/sodipodi-0.dtd"
   xmlns="http://www.w3.org/2000/svg"
   xmlns:svg="http://www.w3.org/2000/svg"
   xmlns:rdf="http://www.w3.org/1999/02/22-rdf-syntax-ns#"
   xmlns:cc="http://creativecommons.org/ns#"
   xmlns:dc="http://purl.org/dc/elements/1.1/">
  <defs
     id="defs10" />
  <sodipodi:namedview
     id="namedview8"
     pagecolor="#ffffff"
     bordercolor="#cccccc"
     borderopacity="1"
     inkscape:pageshadow="0"
     inkscape:pageopacity="1"
     inkscape:pagecheckerboard="0"
     showgrid="false"
     inkscape:zoom="3.109375"
     inkscape:cx="92.462311"
     inkscape:cy="112.72362"
     inkscape:window-width="2880"
     inkscape:window-height="1541"
     inkscape:window-x="2869"
     inkscape:window-y="-11"
     inkscape:window-maximized="1"
     inkscape:current-layer="svg6" />
  <title
     id="title2">quote</title>
  <path
     d="m 42.672722,22.050948 c -9.727741,5.70681 -19.973835,18.157135 -21.790536,28.403228 0.649174,-0.259176 2.984227,-0.649174 5.188458,-0.649174 9.986918,0 17.897959,7.911041 17.897959,19.065483 0,11.154445 -9.078567,20.62301 -20.62301,20.62301 C 10.895268,89.493495 0,79.50658 0,61.99615 0,41.113965 11.544443,22.307655 28.144053,10.506505 l 14.526201,11.544443 z m 56.031398,0 C 88.97638,27.757758 78.730285,40.208083 76.913585,50.454176 77.56276,50.195 79.89781,49.805002 82.10204,49.805002 c 9.98692,0 17.89796,7.911041 17.89796,19.065483 0,11.154445 -9.078565,20.62301 -20.62301,20.62301 -12.450325,0 -23.345595,-9.986915 -23.345595,-27.497345 0,-20.882185 11.544445,-39.688495 28.144055,-51.489645 l 14.5262,11.544443 z"
     id="path4"
     style="stroke-width:2.46834" />
  <metadata
     id="metadata926">
    <rdf:RDF>
      <cc:Work
         rdf:about="">
        <dc:title>quote</dc:title>
      </cc:Work>
    </rdf:RDF>
  </metadata>
</svg>
