<?xml version="1.0" encoding="UTF-8" standalone="no"?>
<svg
   width="100"
   height="100"
   viewBox="0 0 100 100"
   version="1.1"
   id="svg9"
   sodipodi:docname="uEA5E-distance.svg"
   inkscape:version="1.1.1 (3bf5ae0d25, 2021-09-20)"
   xmlns:inkscape="http://www.inkscape.org/namespaces/inkscape"
   xmlns:sodipodi="http://sodipodi.sourceforge.net/DTD/sodipodi-0.dtd"
   xmlns="http://www.w3.org/2000/svg"
   xmlns:svg="http://www.w3.org/2000/svg"
   xmlns:rdf="http://www.w3.org/1999/02/22-rdf-syntax-ns#"
   xmlns:cc="http://creativecommons.org/ns#"
   xmlns:dc="http://purl.org/dc/elements/1.1/">
  <defs
     id="defs13" />
  <sodipodi:namedview
     id="namedview11"
     pagecolor="#ffffff"
     bordercolor="#cccccc"
     borderopacity="1"
     inkscape:pageshadow="0"
     inkscape:pageopacity="1"
     inkscape:pagecheckerboard="0"
     showgrid="false"
     inkscape:zoom="16.583333"
     inkscape:cx="37.899498"
     inkscape:cy="64.613067"
     inkscape:window-width="2880"
     inkscape:window-height="1541"
     inkscape:window-x="2869"
     inkscape:window-y="-11"
     inkscape:window-maximized="1"
     inkscape:current-layer="Group" />
  <title
     id="title2">02.Icons/Distance</title>
  <g
     id="02.Icons/Distance"
     stroke="none"
     stroke-width="1"
     fill="none"
     fill-rule="evenodd"
     transform="matrix(4.1250002,0,0,4.1250002,0.4999976,-1.3198544)">
    <g
       id="Group"
       transform="translate(4,9)"
       fill="#091625">
      <path
         id="Path"
         style="stroke-width:4.125"
         d="M 29.849609 35.804688 C 29.21667 35.804688 28.588652 36.066569 28.115234 36.587891 L 17.699219 48.011719 C 17.575716 48.147716 17.453429 48.281972 17.371094 48.417969 L 17.371094 48.464844 C 17.288759 48.600839 17.20523 48.781972 17.164062 48.917969 L 17.164062 48.962891 C 17.122899 49.098885 17.082183 49.234685 17.041016 49.416016 L 17.041016 49.460938 C 16.999848 49.642265 17 49.779607 17 49.960938 C 17 50.142265 16.999848 50.277653 17.041016 50.458984 L 17.041016 50.503906 C 17.082179 50.639901 17.122895 50.821034 17.164062 50.957031 L 17.164062 51.001953 C 17.20523 51.183282 17.288759 51.321034 17.371094 51.457031 L 17.371094 51.501953 C 17.453429 51.63795 17.534701 51.774159 17.658203 51.910156 L 28.115234 63.423828 C 29.06207 64.466471 30.625279 64.467295 31.613281 63.333984 C 32.107283 62.83533 32.355469 62.109672 32.355469 61.429688 C 32.355469 60.749703 32.107282 60.069378 31.613281 59.525391 L 25.398438 52.679688 L 27.720703 52.679688 L 72.279297 52.679688 L 74.601562 52.679688 L 68.386719 59.525391 C 67.892718 60.069379 67.644531 60.749702 67.644531 61.429688 C 67.644531 62.109673 67.892717 62.83533 68.386719 63.333984 C 69.374721 64.467295 70.93793 64.466471 71.884766 63.423828 L 82.341797 51.910156 C 82.465299 51.774159 82.546571 51.63795 82.628906 51.501953 L 82.628906 51.457031 C 82.711241 51.321034 82.79477 51.183282 82.835938 51.001953 L 82.835938 50.957031 C 82.877105 50.821034 82.917821 50.639901 82.958984 50.503906 L 82.958984 50.458984 C 83.000152 50.277653 83 50.142265 83 49.960938 C 83 49.779607 83.000152 49.642265 82.958984 49.460938 L 82.958984 49.416016 C 82.917817 49.234685 82.877101 49.098885 82.835938 48.962891 L 82.835938 48.917969 C 82.79477 48.781972 82.711241 48.600839 82.628906 48.464844 L 82.628906 48.417969 C 82.546571 48.281972 82.424284 48.147716 82.300781 48.011719 L 71.884766 36.587891 C 70.93793 35.545248 69.374721 35.545248 68.386719 36.587891 C 67.892718 37.131878 67.644531 37.81025 67.644531 38.490234 C 67.644531 39.170219 67.892717 39.895876 68.386719 40.394531 L 74.601562 47.240234 L 72.279297 47.240234 L 27.720703 47.240234 L 25.398438 47.240234 L 31.613281 40.394531 C 32.107283 39.895876 32.355469 39.170219 32.355469 38.490234 C 32.355469 37.81025 32.107282 37.131878 31.613281 36.587891 C 31.11928 36.066569 30.482548 35.804688 29.849609 35.804688 z "
         transform="matrix(0.24242423,0,0,0.24242423,-4.1212115,-8.6800353)" />
    </g>
  </g>
  <metadata
     id="metadata830">
    <rdf:RDF>
      <cc:Work
         rdf:about="">
        <dc:title>02.Icons/Distance</dc:title>
      </cc:Work>
    </rdf:RDF>
  </metadata>
</svg>
