<?xml version="1.0" encoding="UTF-8" standalone="no"?>
<!-- Generated by IcoMoon.io -->

<svg
   version="1.1"
   width="100"
   height="100"
   viewBox="0 0 100 100"
   id="svg8"
   sodipodi:docname="price.svg"
   inkscape:version="1.1.1 (3bf5ae0d25, 2021-09-20)"
   xmlns:inkscape="http://www.inkscape.org/namespaces/inkscape"
   xmlns:sodipodi="http://sodipodi.sourceforge.net/DTD/sodipodi-0.dtd"
   xmlns="http://www.w3.org/2000/svg"
   xmlns:svg="http://www.w3.org/2000/svg"
   xmlns:rdf="http://www.w3.org/1999/02/22-rdf-syntax-ns#"
   xmlns:cc="http://creativecommons.org/ns#"
   xmlns:dc="http://purl.org/dc/elements/1.1/">
  <defs
     id="defs12" />
  <sodipodi:namedview
     id="namedview10"
     pagecolor="#ffffff"
     bordercolor="#cccccc"
     borderopacity="1"
     inkscape:pageshadow="0"
     inkscape:pageopacity="1"
     inkscape:pagecheckerboard="0"
     showgrid="false"
     inkscape:zoom="8.7946406"
     inkscape:cx="-14.270054"
     inkscape:cy="58.501538"
     inkscape:window-width="2880"
     inkscape:window-height="1541"
     inkscape:window-x="2869"
     inkscape:window-y="-11"
     inkscape:window-maximized="1"
     inkscape:current-layer="svg8" />
  <title
     id="title2">price</title>
  <path
     id="path4"
     d="M 50,0 C 22.384375,0 0,22.384375 0,50 0,77.615625 22.384375,100 50,100 77.615625,100 100,77.615625 100,50 100,22.384375 77.615625,0 50,0 Z m 0,9.0881347 C 72.59375,9.0881347 90.911866,27.40625 90.911866,50 90.911866,72.59375 72.59375,90.911866 50,90.911866 27.40625,90.911866 9.0881347,72.59375 9.0881347,50 9.0881347,27.40625 27.40625,9.0881347 50,9.0881347 Z m 4.400634,10.9069823 c -14.815625,0 -27.255028,9.617822 -30.780028,22.564699 h -4.559327 c -2.2375,0 -4.058837,1.729734 -4.058838,3.839109 0,2.115625 1.821338,3.826906 4.058838,3.826906 h 3.540039 c 0.0063,0.68125 0.05674,1.351513 0.109864,2.020263 h -3.649903 c -2.2375,0 -4.058837,1.723634 -4.058838,3.833006 0,2.115625 1.821338,3.833009 4.058838,3.833009 h 5.352783 c 4.346875,11.68125 16.133447,20.086669 29.986572,20.086669 6.709375,0 13.120313,-1.94619 18.554688,-5.627441 1.921875,-1.306249 2.360937,-3.836231 0.976562,-5.651856 -1.378125,-1.81875 -4.062693,-2.218359 -5.981443,-0.927734 l -0.0061,0.0061 c -3.962503,2.6875 -8.646681,4.113772 -13.549806,4.113772 -9.003125,0 -16.743262,-4.912013 -20.593262,-11.999513 h 15.88135 c 2.2375,0 4.06494,-1.717384 4.06494,-3.833009 0,-2.109375 -1.827443,-3.826903 -4.06494,-3.826903 H 31.408691 c -0.06875,-0.675 -0.207373,-1.329638 -0.213623,-2.020263 h 18.487551 c 2.2375,0 4.06494,-1.717384 4.06494,-3.833009 0,-2.109375 -1.827443,-3.833006 -4.06494,-3.833006 H 32.6416 c 3.25,-8.409375 11.730909,-14.47754 21.759034,-14.47754 5,0 9.757032,1.472754 13.769532,4.260252 1.90625,1.321878 4.587256,0.942385 5.999756,-0.85449 1.40625,-1.803125 0.996825,-4.336084 -0.909425,-5.657959 -5.496875,-3.81875 -12.012988,-5.841065 -18.859863,-5.841065 z"
     style="stroke-width:3.125" />
  <metadata
     id="metadata967">
    <rdf:RDF>
      <cc:Work
         rdf:about="">
        <dc:title>price</dc:title>
      </cc:Work>
    </rdf:RDF>
  </metadata>
</svg>
