<?xml version="1.0" encoding="UTF-8" standalone="no"?>
<!-- Generated by IcoMoon.io -->

<svg
   version="1.1"
   width="100"
   height="100"
   viewBox="0 0 100 100"
   id="svg6"
   sodipodi:docname="student.svg"
   inkscape:version="1.1.1 (3bf5ae0d25, 2021-09-20)"
   xmlns:inkscape="http://www.inkscape.org/namespaces/inkscape"
   xmlns:sodipodi="http://sodipodi.sourceforge.net/DTD/sodipodi-0.dtd"
   xmlns="http://www.w3.org/2000/svg"
   xmlns:svg="http://www.w3.org/2000/svg"
   xmlns:rdf="http://www.w3.org/1999/02/22-rdf-syntax-ns#"
   xmlns:cc="http://creativecommons.org/ns#"
   xmlns:dc="http://purl.org/dc/elements/1.1/">
  <defs
     id="defs10" />
  <sodipodi:namedview
     id="namedview8"
     pagecolor="#ffffff"
     bordercolor="#cccccc"
     borderopacity="1"
     inkscape:pageshadow="0"
     inkscape:pageopacity="1"
     inkscape:pagecheckerboard="0"
     showgrid="false"
     inkscape:zoom="3.109375"
     inkscape:cx="-147.45729"
     inkscape:cy="142.31156"
     inkscape:window-width="2880"
     inkscape:window-height="1541"
     inkscape:window-x="2869"
     inkscape:window-y="-11"
     inkscape:window-maximized="1"
     inkscape:current-layer="svg6" />
  <title
     id="title2">student</title>
  <path
     d="m 99.64803,24.249405 c -0.05,-2.587307 -1.590506,-4.859012 -4.024699,-5.918308 L 56.395009,1.241748 C 52.420306,-0.48624812 47.914392,-0.41125372 44.002184,1.4698559 L 5.3550687,20.012221 c -2.1467147,1.034298 -3.4591168,3.118517 -3.4216196,5.452718 0.049996,2.334201 1.4248937,4.368424 3.6216047,5.327727 l 0.7311954,0.315602 v 33.447503 c -1.312402,0.556209 -2.4873143,1.399896 -3.4591168,2.474815 -1.727996,1.943605 -2.59980588,4.443419 -2.46231614,7.030726 0.1124916,1.993601 0.80931454,3.849712 2.00610024,5.390222 -1.299903,1.690499 -2.01859931,3.774718 -2.01859931,5.930807 v 10.817943 c 0,2.096718 1.70299781,3.799715 3.79971631,3.799715 H 16.004274 c 2.093594,0 3.799717,-1.702997 3.799717,-3.799715 V 85.382341 c 0,-2.159213 -0.718697,-4.240308 -2.0186,-5.918308 0.781192,-1.021798 1.362399,-2.196711 1.702998,-3.459117 0.656201,-2.512312 0.303103,-5.137116 -0.9968,-7.371324 -1.071795,-1.843613 -2.674801,-3.243508 -4.605907,-4.065322 v -30.1415 l 2.902909,1.262406 v 21.254663 l 0.743694,0.971803 c 0.124991,0.162488 3.156015,4.065321 8.78372,7.915034 5.187112,3.54661 13.72085,7.761921 24.926264,7.761921 8.152516,0 16.180042,-2.712298 23.185769,-7.836915 5.262107,-3.849713 8.152517,-7.736923 8.268133,-7.902536 l 0.706197,-0.959303 V 36.282882 l 12.445946,-5.97143 c 2.396696,-1.149914 3.849713,-3.471615 3.799716,-6.058922 z m -75.388122,14.692653 21.83587,9.51804 c 1.893609,0.821813 3.899709,1.237407 5.95893,1.237407 2.20921,0 4.443419,-0.506212 6.43702,-1.465515 l 17.442448,-8.368126 v 14.577037 c -2.449817,2.815415 -11.32103,11.839741 -24.688782,11.839741 -7.383824,0 -14.298933,-2.146714 -20.535967,-6.374524 -3.181013,-2.159214 -5.377724,-4.340301 -6.449519,-5.515213 z M 49.136176,41.766847 25.394198,31.41762 51.673487,28.477214 c 1.009299,-0.112491 1.906107,-0.606204 2.524811,-1.387396 0.606205,-0.768693 0.87181,-1.715497 0.756194,-2.6748 -0.240607,-1.993602 -2.096719,-3.434119 -4.140316,-3.206011 l -38.887722,4.3528 -0.606205,-0.265605 35.972315,-17.2549616 c 0.971802,-0.4655903 2.068595,-0.7186964 3.156014,-0.7186964 1.0093,0 1.993601,0.2031099 2.915407,0.6062048 L 91.176788,24.399394 55.204473,41.654356 c -1.906108,0.921806 -4.127817,0.959303 -6.071422,0.112491 z M 7.9673737,85.297973 c 0,-0.0625 0,-0.112492 0,-0.178112 0.049996,-1.174912 1.0467969,-2.096718 2.2217093,-2.031098 1.174913,0.05 2.081095,1.046797 2.031099,2.221709 v 7.09322 H 7.9673737 Z M 11.588979,75.026864 c -0.403095,0.403095 -0.934305,0.618704 -1.503013,0.618704 0,0 0,0 0,0 -1.1749127,0 -2.121717,-0.959303 -2.1342161,-2.121716 v -0.0125 c 0,-0.568708 0.228108,-1.096794 0.6312029,-1.503013 0.4030949,-0.40622 0.9343052,-0.618704 1.5030132,-0.618704 0,0 0,0 0,0 0.568708,0 1.096793,0.228108 1.503013,0.631203 0.40622,0.403095 0.618704,0.934305 0.618704,1.503013 0,0.568707 -0.215609,1.096793 -0.618704,1.503012 z"
     id="path4"
     style="stroke-width:3.12477" />
  <metadata
     id="metadata827">
    <rdf:RDF>
      <cc:Work
         rdf:about="">
        <dc:title>student</dc:title>
      </cc:Work>
    </rdf:RDF>
  </metadata>
</svg>
