<?xml version="1.0" encoding="UTF-8" standalone="no"?>
<svg
   width="100"
   height="100"
   viewBox="0 0 100 100"
   version="1.1"
   id="svg7"
   sodipodi:docname="libre.svg"
   inkscape:version="1.1.1 (3bf5ae0d25, 2021-09-20)"
   xmlns:inkscape="http://www.inkscape.org/namespaces/inkscape"
   xmlns:sodipodi="http://sodipodi.sourceforge.net/DTD/sodipodi-0.dtd"
   xmlns="http://www.w3.org/2000/svg"
   xmlns:svg="http://www.w3.org/2000/svg"
   xmlns:rdf="http://www.w3.org/1999/02/22-rdf-syntax-ns#"
   xmlns:cc="http://creativecommons.org/ns#"
   xmlns:dc="http://purl.org/dc/elements/1.1/">
  <defs
     id="defs11" />
  <sodipodi:namedview
     id="namedview9"
     pagecolor="#ffffff"
     bordercolor="#cccccc"
     borderopacity="1"
     inkscape:pageshadow="0"
     inkscape:pageopacity="1"
     inkscape:pagecheckerboard="0"
     showgrid="false"
     inkscape:zoom="4.1458333"
     inkscape:cx="-54.39196"
     inkscape:cy="111.55779"
     inkscape:window-width="2880"
     inkscape:window-height="1541"
     inkscape:window-x="-11"
     inkscape:window-y="-11"
     inkscape:window-maximized="1"
     inkscape:current-layer="svg7" />
  <title
     id="title2">02.Icons/Libre</title>
  <g
     id="02.Icons/Libre"
     stroke="none"
     stroke-width="1"
     fill="none"
     fill-rule="evenodd"
     transform="matrix(6.25,0,0,6.25,-25,-25)">
    <g
       id="iconfinder_map_pin_location_9111147"
       transform="translate(4,4)"
       fill="#091625"
       fill-rule="nonzero">
      <path
         d="M 8.8,7.9199855 V 13.6 H 7.2 V 7.9199855 C 5.3742077,7.5493693 4,5.9351663 4,4 4,1.790861 5.790861,0 8,0 c 2.209139,0 4,1.790861 4,4 0,1.9351663 -1.374208,3.5493693 -3.2,3.9199855 z M 5.6,9.7258401 V 11.34749 c -2.346253,0.29289 -4,0.961898 -4,1.45251 0,0.645562 2.8633126,1.6 6.4,1.6 3.536687,0 6.4,-0.954438 6.4,-1.6 0,-0.490612 -1.653747,-1.15962 -4,-1.45251 V 9.7258401 C 13.644701,10.08137 16,11.17425 16,12.8 16,14.805404 12.416213,16 8,16 3.583787,16 0,14.805404 0,12.8 0,11.17425 2.3552988,10.08137 5.6,9.7258401 Z M 8,6.4 C 9.3254834,6.4 10.4,5.3254834 10.4,4 10.4,2.6745166 9.3254834,1.6 8,1.6 6.6745166,1.6 5.6,2.6745166 5.6,4 5.6,5.3254834 6.6745166,6.4 8,6.4 Z"
         id="Shape" />
    </g>
  </g>
  <metadata
     id="metadata828">
    <rdf:RDF>
      <cc:Work
         rdf:about="">
        <dc:title>02.Icons/Libre</dc:title>
      </cc:Work>
    </rdf:RDF>
  </metadata>
</svg>
