<?xml version="1.0" encoding="UTF-8" standalone="no"?>
<svg
   width="100"
   height="100"
   viewBox="0 0 100 100"
   fill="none"
   version="1.1"
   id="svg1"
   sodipodi:docname="bluesky_media_kit_logo.svg"
   inkscape:version="1.3.1 (9b9bdc1480, 2023-11-25, custom)"
   xmlns:inkscape="http://www.inkscape.org/namespaces/inkscape"
   xmlns:sodipodi="http://sodipodi.sourceforge.net/DTD/sodipodi-0.dtd"
   xmlns="http://www.w3.org/2000/svg"
   xmlns:svg="http://www.w3.org/2000/svg">
  <defs
     id="defs1" />
  <sodipodi:namedview
     id="namedview1"
     pagecolor="#ffffff"
     bordercolor="#000000"
     borderopacity="0.25"
     inkscape:showpageshadow="2"
     inkscape:pageopacity="0.0"
     inkscape:pagecheckerboard="0"
     inkscape:deskcolor="#d1d1d1"
     showgrid="false"
     inkscape:zoom="1.6287425"
     inkscape:cx="283.65441"
     inkscape:cy="250.5"
     inkscape:window-width="1850"
     inkscape:window-height="1016"
     inkscape:window-x="0"
     inkscape:window-y="0"
     inkscape:window-maximized="1"
     inkscape:current-layer="svg1" />
  <path
     d="M 21.676232,11.902296 C 33.141021,20.509497 45.472007,37.96168 50,47.326469 54.527993,37.96168 66.858979,20.509497 78.323768,11.902296 86.596127,5.6918154 100,0.88643339 100,16.17742 100,19.231152 98.24912,41.831046 97.222183,45.500413 93.652641,58.256222 80.645599,61.509744 69.075176,59.540553 89.299648,62.982631 94.444366,74.384039 83.333275,85.785448 62.231162,107.43897 53.003697,80.352525 50.639261,73.412032 50.20581,72.139673 50.002993,71.544427 50,72.050589 49.997,71.544427 49.79419,72.139669 49.360739,73.412032 46.996303,80.352525 37.768838,107.43897 16.666673,85.785448 5.5555634,74.384039 10.700317,62.982631 30.924824,59.540553 19.354401,61.509744 6.3474472,58.256222 2.7777817,45.500413 1.7509243,41.831046 0,19.231152 0,16.17742 0,0.88643339 13.403961,5.6918154 21.676232,11.902296 Z"
     fill="#000000"
     id="path1"
     style="stroke-width:0.176056" />
</svg>
